{"glyphs":{"0":{"ha":742,"x_min":50,"x_max":690,"o":"m 690 496 q 674 285 690 378 q 619 124 657 192 q 521 22 582 57 q 369 -14 460 -14 q 191 44 261 -14 q 85 215 121 101 q 50 496 50 329 q 83 776 50 663 q 185 948 115 889 q 369 1007 256 1007 q 550 947 479 1007 q 656 774 621 888 q 690 496 690 660 m 251 496 q 262 306 251 382 q 298 192 272 229 q 369 154 324 154 q 441 192 415 154 q 478 305 467 229 q 489 496 489 381 q 478 686 489 610 q 441 801 467 763 q 369 839 415 839 q 299 801 325 839 q 262 687 272 763 q 251 496 251 611 z "},"1":{"ha":742,"x_min":76,"x_max":546,"o":"m 546 0 l 344 0 l 344 575 q 345 635 344 603 q 347 703 346 668 q 350 767 349 738 q 322 736 342 756 q 285 699 303 717 l 181 608 l 76 729 l 376 992 l 546 992 l 546 0 z "},"2":{"ha":742,"x_min":47,"x_max":688,"o":"m 688 0 l 50 0 l 50 142 l 278 399 q 388 533 347 479 q 446 628 429 586 q 463 718 463 671 q 433 805 463 775 q 350 835 403 835 q 253 810 300 835 q 153 736 207 786 l 47 867 q 135 940 90 908 q 237 988 181 971 q 368 1006 293 1006 q 525 971 458 1006 q 628 876 592 936 q 664 738 664 815 q 638 597 664 663 q 558 467 611 532 q 426 319 506 401 l 297 181 l 297 172 l 688 172 l 688 0 z "},"3":{"ha":742,"x_min":50,"x_max":685,"o":"m 658 764 q 633 653 658 701 q 565 572 608 604 q 461 522 521 539 l 461 518 q 628 442 571 501 q 685 285 685 383 q 644 131 685 199 q 522 24 603 63 q 315 -14 440 -14 q 176 -1 240 -14 q 50 38 111 11 l 50 214 q 173 167 110 183 q 292 151 236 151 q 432 189 390 151 q 474 296 474 226 q 453 371 474 342 q 385 415 433 400 q 254 429 338 429 l 189 429 l 189 589 l 256 589 q 381 606 336 589 q 443 655 425 624 q 461 728 461 686 q 430 810 461 781 q 331 839 399 839 q 258 828 292 839 q 194 802 224 818 q 140 769 165 786 l 51 910 q 183 981 111 956 q 354 1006 256 1006 q 576 943 494 1006 q 658 764 658 881 z "},"4":{"ha":742,"x_min":24,"x_max":721,"o":"m 721 204 l 608 204 l 608 0 l 413 0 l 413 204 l 24 204 l 24 351 l 418 993 l 608 993 l 608 364 l 721 364 l 721 204 m 411 554 q 412 602 411 574 q 414 660 413 631 q 417 713 415 689 q 418 746 418 736 l 413 746 q 389 690 401 717 q 360 638 376 664 l 196 364 l 411 364 l 411 554 z "},"5":{"ha":742,"x_min":68,"x_max":679,"o":"m 392 633 q 540 597 476 633 q 642 494 604 561 q 679 331 679 426 q 638 146 679 224 q 515 27 597 68 q 313 -14 433 -14 q 178 -1 240 -14 q 68 38 115 13 l 68 215 q 181 171 117 189 q 303 153 244 153 q 398 172 360 153 q 456 226 436 190 q 475 315 475 263 q 431 429 475 390 q 297 468 388 468 q 226 461 263 468 q 160 446 189 454 l 85 492 l 119 992 l 617 992 l 617 818 l 293 818 l 276 621 q 328 629 303 625 q 392 633 354 633 z "},"6":{"ha":742,"x_min":50,"x_max":696,"o":"m 50 421 q 62 596 50 511 q 103 755 74 681 q 184 885 132 829 q 314 973 236 942 q 503 1004 392 1004 q 569 1001 533 1004 q 633 993 606 999 l 633 828 q 577 838 607 835 q 517 842 547 842 q 386 821 439 842 q 301 760 333 800 q 254 662 269 719 q 236 531 239 604 l 243 531 q 288 592 261 567 q 351 631 314 617 q 436 646 389 646 q 576 608 518 646 q 665 499 633 569 q 696 331 696 428 q 658 147 696 225 q 551 28 621 69 q 383 -14 482 -14 q 250 13 311 -14 q 144 95 189 40 q 74 232 99 150 q 50 421 50 314 m 379 153 q 466 195 433 153 q 499 326 499 238 q 469 443 499 401 q 382 485 440 485 q 313 465 343 485 q 267 415 283 446 q 251 347 251 383 q 259 278 251 313 q 283 215 267 243 q 324 169 300 186 q 379 153 347 153 z "},"7":{"ha":742,"x_min":42,"x_max":694,"o":"m 142 0 l 485 819 l 42 819 l 42 992 l 694 992 l 694 861 l 353 0 l 142 0 z "},"8":{"ha":742,"x_min":47,"x_max":694,"o":"m 371 1004 q 522 977 456 1004 q 628 897 589 950 q 667 767 667 844 q 646 665 667 710 q 588 585 625 619 q 501 522 551 550 q 599 453 556 490 q 669 367 643 415 q 694 257 694 319 q 654 114 694 175 q 541 19 614 53 q 371 -14 468 -14 q 195 18 268 -14 q 85 110 122 50 q 47 253 47 169 q 69 365 47 315 q 131 452 90 414 q 224 518 171 490 q 146 585 179 549 q 94 667 113 622 q 75 767 75 711 q 115 897 75 844 q 222 977 154 950 q 371 1004 289 1004 m 236 261 q 269 173 236 207 q 368 139 303 139 q 472 172 438 139 q 506 261 506 206 q 488 322 506 294 q 443 373 471 349 q 381 418 415 397 l 363 431 q 294 383 322 408 q 251 328 265 358 q 236 261 236 299 m 371 853 q 295 826 325 853 q 265 751 265 800 q 279 694 265 719 q 317 649 293 669 q 371 611 340 629 q 426 649 403 631 q 463 693 450 668 q 476 751 476 718 q 447 826 476 800 q 371 853 417 853 z "},"9":{"ha":742,"x_min":44,"x_max":692,"o":"m 692 571 q 678 394 692 481 q 636 235 665 308 q 555 105 607 161 q 425 17 503 49 q 238 -14 347 -14 q 170 -11 207 -14 q 107 -3 133 -8 l 107 163 q 163 153 133 157 q 224 149 193 149 q 356 170 303 149 q 440 233 408 192 q 488 332 472 275 q 506 458 503 389 l 497 458 q 453 399 479 425 q 392 359 428 374 q 301 344 356 344 q 165 382 222 344 q 76 490 107 419 q 44 660 44 561 q 82 844 44 767 q 190 963 119 921 q 358 1004 261 1004 q 492 976 431 1004 q 597 895 553 949 q 667 760 642 842 q 692 571 692 679 m 361 838 q 275 795 308 838 q 242 663 242 753 q 270 546 242 588 q 358 504 299 504 q 429 526 400 504 q 474 579 458 547 q 490 644 490 611 q 483 708 490 674 q 460 772 475 742 q 419 819 444 801 q 361 838 394 838 z "},"\u0000":{"ha":0,"x_min":0,"x_max":0,"o":""},"\r":{"ha":319,"x_min":0,"x_max":0,"o":""}," ":{"ha":319,"x_min":0,"x_max":0,"o":""},"!":{"ha":382,"x_min":76,"x_max":306,"o":"m 272 326 l 111 326 l 78 992 l 304 992 l 272 326 m 76 97 q 108 185 76 158 q 192 213 140 213 q 273 186 240 213 q 306 99 306 160 q 273 11 306 39 q 192 -17 240 -17 q 109 11 142 -17 q 76 97 76 39 z "},"\"":{"ha":640,"x_min":81,"x_max":560,"o":"m 274 992 l 246 633 l 108 633 l 81 992 l 274 992 m 560 992 l 533 633 l 394 633 l 368 992 l 560 992 z "},"#":{"ha":829,"x_min":29,"x_max":801,"o":"m 633 578 l 604 414 l 761 414 l 761 276 l 582 276 l 535 0 l 390 0 l 439 276 l 315 276 l 269 0 l 129 0 l 174 276 l 29 276 l 29 414 l 197 414 l 226 578 l 72 578 l 72 717 l 249 717 l 296 990 l 439 990 l 392 717 l 515 717 l 563 990 l 703 990 l 656 717 l 801 717 l 801 578 l 633 578 m 339 414 l 463 414 l 492 578 l 368 578 l 339 414 z "},"$":{"ha":742,"x_min":60,"x_max":686,"o":"m 328 56 q 184 73 250 58 q 63 113 118 88 l 63 286 q 188 235 115 258 q 328 208 261 213 l 328 432 q 172 508 232 469 q 86 594 113 546 q 60 711 60 643 q 94 831 60 781 q 188 913 128 882 q 328 950 249 943 l 328 1054 l 418 1054 l 418 953 q 549 935 486 950 q 669 892 611 919 l 614 742 q 515 776 565 764 q 418 793 464 789 l 418 579 q 554 518 493 551 q 651 437 615 485 q 686 313 686 389 q 619 144 686 213 q 418 60 551 75 l 418 -81 l 328 -81 l 328 56 m 418 215 q 483 247 463 224 q 504 301 504 269 q 494 339 504 324 q 466 368 485 354 q 418 396 447 382 l 418 215 m 328 790 q 281 776 300 786 q 253 749 263 765 q 243 710 243 732 q 252 673 243 689 q 280 644 261 657 q 328 617 299 631 l 328 790 z "},"%":{"ha":1185,"x_min":43,"x_max":1143,"o":"m 263 1006 q 427 924 369 1006 q 485 696 485 842 q 430 466 485 549 q 263 383 375 383 q 100 467 157 383 q 43 696 43 550 q 97 924 43 843 q 263 1006 150 1006 m 264 869 q 217 826 232 869 q 203 696 203 783 q 217 562 203 606 q 264 518 232 518 q 310 562 296 518 q 325 694 325 606 q 310 826 325 783 q 264 869 294 869 m 913 992 l 424 0 l 269 0 l 758 992 l 913 992 m 919 610 q 1085 528 1026 610 q 1143 300 1143 446 q 1088 70 1143 153 q 919 -12 1032 -12 q 757 71 814 -12 q 700 300 700 154 q 754 529 700 449 q 919 610 808 610 m 921 474 q 874 431 889 474 q 860 299 860 388 q 874 167 860 210 q 921 124 889 124 q 967 168 953 124 q 982 299 982 213 q 967 429 982 385 q 921 474 953 474 z "},"&":{"ha":954,"x_min":49,"x_max":956,"o":"m 399 1006 q 534 980 476 1006 q 624 905 592 954 q 657 786 657 856 q 608 633 657 697 q 479 518 558 568 l 643 339 q 683 428 665 381 q 710 529 700 476 l 917 529 q 864 363 900 450 q 772 199 828 275 l 956 0 l 710 0 l 643 76 q 563 28 606 49 q 473 -3 521 8 q 369 -14 425 -14 q 195 22 267 -14 q 86 120 124 57 q 49 267 49 183 q 68 384 49 333 q 127 474 88 435 q 222 547 167 514 q 169 624 190 588 q 140 699 149 661 q 131 778 131 736 q 165 899 131 847 q 259 978 199 950 q 399 1006 319 1006 m 331 426 q 289 385 306 407 q 263 339 272 364 q 254 283 254 314 q 292 191 254 226 q 389 156 329 156 q 464 168 429 156 q 528 204 499 181 l 331 426 m 397 854 q 341 835 367 854 q 315 769 315 817 q 331 700 315 735 q 375 632 347 665 q 449 697 424 663 q 474 775 474 732 q 451 835 474 817 q 397 854 428 854 z "},"'":{"ha":354,"x_min":81,"x_max":274,"o":"m 274 992 l 246 633 l 108 633 l 81 992 l 274 992 z "},"(":{"ha":457,"x_min":58,"x_max":425,"o":"m 58 385 q 81 613 58 503 q 147 820 103 722 q 257 999 192 918 l 425 999 q 284 710 332 867 q 236 386 236 554 q 258 171 236 276 q 322 -33 281 65 q 424 -219 363 -131 l 257 -219 q 147 -42 192 -137 q 81 160 103 53 q 58 385 58 268 z "},")":{"ha":457,"x_min":33,"x_max":400,"o":"m 400 385 q 378 160 400 268 q 311 -43 356 53 q 200 -219 267 -139 l 33 -219 q 136 -33 94 -131 q 199 171 178 65 q 221 385 221 276 q 200 606 221 499 q 138 812 179 713 q 33 999 96 911 l 200 999 q 311 819 267 918 q 378 611 356 721 q 400 385 400 501 z "},"*":{"ha":706,"x_min":38,"x_max":668,"o":"m 440 1057 l 414 826 l 639 894 l 668 728 l 454 710 l 600 526 l 451 440 l 350 639 l 257 440 l 106 526 l 250 710 l 38 728 l 68 894 l 292 826 l 265 1057 l 440 1057 z "},"+":{"ha":744,"x_min":54,"x_max":689,"o":"m 446 564 l 689 564 l 689 415 l 446 415 l 446 156 l 297 156 l 297 417 l 54 417 l 54 564 l 297 564 l 297 826 l 446 826 l 446 564 z "},",":{"ha":381,"x_min":44,"x_max":303,"o":"m 303 154 q 274 40 292 99 q 235 -76 256 -19 q 192 -183 215 -132 l 44 -183 q 69 -65 57 -128 q 92 60 82 -1 q 107 169 103 121 l 294 169 l 303 154 z "},"-":{"ha":439,"x_min":40,"x_max":399,"o":"m 40 288 l 40 458 l 399 458 l 399 288 l 40 288 z "},".":{"ha":381,"x_min":76,"x_max":306,"o":"m 76 97 q 108 185 76 158 q 192 213 140 213 q 273 186 240 213 q 306 99 306 160 q 273 11 306 39 q 192 -17 240 -17 q 109 11 142 -17 q 76 97 76 39 z "},"/":{"ha":569,"x_min":11,"x_max":561,"o":"m 561 996 l 189 -4 l 11 -4 l 383 996 l 561 996 z "},":":{"ha":383,"x_min":78,"x_max":306,"o":"m 78 97 q 110 185 78 158 q 193 213 142 213 q 274 186 242 213 q 306 99 306 160 q 274 11 306 39 q 193 -17 242 -17 q 110 11 142 -17 q 78 97 78 39 m 78 656 q 110 744 78 717 q 193 771 142 771 q 274 744 242 771 q 306 656 306 717 q 274 568 306 596 q 193 540 242 540 q 110 569 142 540 q 78 656 78 597 z "},";":{"ha":383,"x_min":43,"x_max":306,"o":"m 303 154 q 274 40 292 99 q 235 -76 256 -19 q 192 -183 215 -132 l 43 -183 q 63 -95 53 -142 q 81 -1 72 -49 q 96 89 89 46 q 107 169 103 132 l 294 169 l 303 154 m 78 656 q 110 744 78 717 q 193 771 142 771 q 274 744 242 771 q 306 656 306 717 q 274 568 306 596 q 193 540 242 540 q 110 569 142 540 q 78 656 78 597 z "},"<":{"ha":744,"x_min":53,"x_max":689,"o":"m 689 149 l 53 440 l 53 538 l 689 854 l 689 690 l 263 493 l 689 311 l 689 149 z "},"=":{"ha":744,"x_min":54,"x_max":689,"o":"m 54 554 l 54 701 l 689 701 l 689 554 l 54 554 m 54 276 l 54 425 l 689 425 l 689 276 l 54 276 z "},">":{"ha":744,"x_min":54,"x_max":690,"o":"m 54 311 l 479 493 l 54 690 l 54 854 l 690 538 l 690 440 l 54 149 l 54 311 z "},"?":{"ha":607,"x_min":6,"x_max":578,"o":"m 172 378 q 183 459 172 424 q 219 526 193 494 q 285 592 244 558 q 345 647 322 622 q 378 695 368 671 q 389 749 389 719 q 360 817 389 794 q 278 840 332 840 q 178 823 228 840 q 74 775 128 806 l 6 921 q 140 983 69 960 q 293 1006 211 1006 q 504 938 431 1006 q 578 763 578 871 q 562 662 578 704 q 513 583 546 619 q 431 506 479 546 q 373 453 393 475 q 347 413 353 432 q 340 364 340 393 l 340 326 l 172 326 l 172 378 m 146 97 q 178 185 146 158 q 261 213 210 213 q 343 186 311 213 q 375 97 375 160 q 342 11 375 39 q 261 -17 310 -17 q 178 11 211 -17 q 146 97 146 39 z "},"@":{"ha":1157,"x_min":64,"x_max":1093,"o":"m 1093 501 q 1078 369 1093 432 q 1033 256 1063 306 q 960 178 1003 207 q 860 150 917 150 q 770 176 807 150 q 718 244 733 201 l 708 244 q 640 176 682 203 q 542 150 599 150 q 372 223 432 150 q 311 418 311 296 q 348 585 311 514 q 451 697 385 657 q 610 738 518 738 q 727 726 665 738 q 828 701 789 715 l 815 415 q 813 382 814 399 q 813 357 813 365 q 827 288 813 307 q 863 269 842 269 q 911 298 892 269 q 940 379 931 326 q 950 503 950 432 q 908 701 951 618 q 790 828 865 783 q 614 874 714 874 q 437 838 513 874 q 310 738 361 801 q 234 590 260 675 q 208 406 208 504 q 249 192 208 282 q 372 56 290 103 q 572 10 453 10 q 725 27 646 10 q 872 71 804 44 l 872 -56 q 735 -99 810 -83 q 576 -114 660 -114 q 299 -53 414 -114 q 124 124 185 8 q 64 400 64 239 q 103 640 64 531 q 214 828 142 749 q 387 952 286 908 q 613 996 488 996 q 808 961 719 996 q 960 861 896 926 q 1058 705 1024 796 q 1093 501 1093 614 m 461 417 q 488 304 461 339 q 558 269 514 269 q 638 319 614 269 q 668 465 663 369 l 676 613 q 647 617 663 615 q 614 619 632 619 q 526 592 560 619 q 477 518 493 564 q 461 417 461 472 z "},"A":{"ha":875,"x_min":0,"x_max":875,"o":"m 657 0 l 593 238 l 283 238 l 218 0 l 0 0 l 310 994 l 563 994 l 875 0 l 657 0 m 485 651 q 469 713 478 679 q 452 781 461 747 q 438 843 443 815 q 423 780 432 817 q 406 708 414 743 q 392 653 397 674 l 326 410 l 550 410 l 485 651 z "},"B":{"ha":860,"x_min":111,"x_max":792,"o":"m 403 992 q 677 934 585 992 q 769 743 769 876 q 752 640 769 686 q 702 565 735 594 q 624 526 669 536 l 624 519 q 713 481 675 508 q 771 407 750 454 q 792 288 792 360 q 751 134 792 199 q 634 35 710 69 q 454 0 558 0 l 111 0 l 111 992 l 403 992 m 418 596 q 530 626 497 596 q 563 715 563 657 q 526 799 563 772 q 410 825 489 825 l 314 825 l 314 596 l 418 596 m 314 435 l 314 168 l 433 168 q 548 205 514 168 q 582 307 582 242 q 567 374 582 346 q 517 419 551 403 q 426 435 482 435 l 314 435 z "},"C":{"ha":807,"x_min":74,"x_max":764,"o":"m 503 835 q 408 810 450 835 q 338 741 367 786 q 296 633 310 696 q 282 493 282 569 q 306 311 282 386 q 381 197 331 236 q 507 157 431 157 q 616 172 563 157 q 729 210 669 186 l 729 36 q 614 -1 672 11 q 485 -14 556 -14 q 255 48 347 -14 q 118 224 163 110 q 74 494 74 338 q 101 700 74 607 q 183 862 129 793 q 317 968 238 931 q 499 1006 396 1006 q 634 988 567 1006 q 764 939 701 971 l 700 774 q 602 817 651 799 q 503 835 553 835 z "},"D":{"ha":936,"x_min":111,"x_max":863,"o":"m 863 508 q 806 228 863 342 q 640 58 749 115 q 375 0 531 0 l 111 0 l 111 992 l 400 992 q 647 936 543 992 q 806 774 750 881 q 863 508 863 667 m 653 501 q 625 683 653 613 q 542 788 597 754 q 406 822 486 822 l 314 822 l 314 171 l 388 171 q 588 253 522 171 q 653 501 653 336 z "},"E":{"ha":710,"x_min":111,"x_max":636,"o":"m 636 0 l 111 0 l 111 992 l 636 992 l 636 824 l 314 824 l 314 600 l 614 600 l 614 431 l 314 431 l 314 171 l 636 171 l 636 0 z "},"F":{"ha":694,"x_min":111,"x_max":633,"o":"m 313 0 l 111 0 l 111 992 l 633 992 l 633 824 l 313 824 l 313 563 l 613 563 l 613 393 l 313 393 l 313 0 z "},"G":{"ha":929,"x_min":74,"x_max":833,"o":"m 471 557 l 833 557 l 833 43 q 677 1 757 15 q 501 -14 597 -14 q 267 46 363 -14 q 122 220 171 106 q 74 497 74 335 q 129 767 74 653 q 291 943 185 881 q 550 1006 397 1006 q 698 989 626 1006 q 826 944 769 972 l 763 781 q 664 820 718 806 q 551 835 610 835 q 408 794 468 835 q 315 676 347 753 q 282 493 282 600 q 306 317 282 393 q 382 199 331 242 q 514 157 433 157 q 581 161 553 157 q 635 172 610 165 l 635 388 l 471 388 l 471 557 z "},"H":{"ha":968,"x_min":111,"x_max":856,"o":"m 856 0 l 653 0 l 653 429 l 314 429 l 314 0 l 111 0 l 111 992 l 314 992 l 314 601 l 653 601 l 653 992 l 856 992 l 856 0 z "},"I":{"ha":508,"x_min":43,"x_max":465,"o":"m 465 0 l 43 0 l 43 114 l 153 163 l 153 829 l 43 878 l 43 992 l 465 992 l 465 878 l 356 829 l 356 163 l 465 114 l 465 0 z "},"J":{"ha":425,"x_min":-93,"x_max":314,"o":"m 22 -293 q -42 -288 -12 -293 q -93 -278 -71 -283 l -93 -107 q -51 -117 -74 -112 q -3 -121 -29 -121 q 58 -106 32 -121 q 99 -53 85 -92 q 113 56 113 -14 l 113 992 l 314 992 l 314 57 q 278 -148 314 -71 q 178 -259 243 -225 q 22 -293 113 -293 z "},"K":{"ha":844,"x_min":111,"x_max":847,"o":"m 847 0 l 619 0 l 393 413 l 314 353 l 314 0 l 111 0 l 111 992 l 314 992 l 314 536 q 349 595 331 565 q 389 660 368 625 l 622 992 l 844 992 l 538 551 l 847 0 z "},"L":{"ha":704,"x_min":111,"x_max":667,"o":"m 111 0 l 111 992 l 314 992 l 314 171 l 667 171 l 667 0 l 111 0 z "},"M":{"ha":1222,"x_min":111,"x_max":1111,"o":"m 513 0 l 290 761 l 285 761 q 289 676 286 726 q 294 574 292 626 q 296 479 296 522 l 296 0 l 111 0 l 111 992 l 389 992 l 606 263 l 610 263 l 833 992 l 1111 992 l 1111 0 l 921 0 l 921 485 q 922 578 921 526 q 926 678 924 629 q 929 760 928 726 l 924 760 l 690 0 l 513 0 z "},"N":{"ha":1032,"x_min":111,"x_max":921,"o":"m 921 0 l 669 0 l 289 729 l 283 729 q 290 635 288 681 q 293 547 292 590 q 296 464 294 504 l 296 0 l 111 0 l 111 992 l 361 992 l 740 274 l 744 274 q 741 363 743 319 q 738 449 739 407 q 735 529 736 490 l 735 992 l 921 992 l 921 0 z "},"O":{"ha":1003,"x_min":74,"x_max":929,"o":"m 929 497 q 903 287 929 381 q 825 126 878 193 q 692 22 772 58 q 501 -14 611 -14 q 311 22 392 -14 q 178 126 231 58 q 99 288 125 193 q 74 499 74 382 q 120 771 74 657 q 262 946 167 885 q 503 1007 357 1007 q 743 944 649 1007 q 883 767 838 882 q 929 497 929 653 m 285 497 q 308 314 285 389 q 380 199 332 239 q 501 160 428 160 q 625 199 578 160 q 694 313 672 238 q 717 497 717 389 q 666 748 717 660 q 503 836 615 836 q 380 796 428 836 q 308 681 332 756 q 285 497 285 606 z "},"P":{"ha":801,"x_min":111,"x_max":747,"o":"m 404 992 q 665 910 582 992 q 747 683 747 829 q 728 554 747 614 q 666 449 708 494 q 556 378 624 403 q 390 353 488 353 l 314 353 l 314 0 l 111 0 l 111 992 l 404 992 m 393 824 l 314 824 l 314 521 l 371 521 q 464 537 425 521 q 523 588 503 553 q 543 678 543 622 q 506 788 543 753 q 393 824 469 824 z "},"Q":{"ha":1003,"x_min":74,"x_max":929,"o":"m 929 497 q 905 292 929 383 q 832 134 881 200 q 710 31 783 68 l 921 -236 l 671 -236 l 511 -14 q 503 -14 507 -14 q 496 -14 500 -14 q 308 24 388 -14 q 176 129 228 61 q 99 291 124 197 q 74 499 74 385 q 120 771 74 657 q 262 946 167 885 q 503 1007 357 1007 q 742 946 647 1007 q 883 771 836 885 q 929 497 929 657 m 285 497 q 308 314 285 389 q 380 199 332 239 q 501 160 428 160 q 625 199 578 160 q 694 313 672 238 q 717 497 717 389 q 666 748 717 660 q 503 836 615 836 q 380 796 428 836 q 308 681 332 756 q 285 497 285 606 z "},"R":{"ha":842,"x_min":111,"x_max":840,"o":"m 379 992 q 587 959 504 992 q 710 862 669 926 q 750 699 750 797 q 728 582 750 632 q 667 495 706 532 q 581 433 629 458 l 840 0 l 615 0 l 407 383 l 314 383 l 314 0 l 111 0 l 111 992 l 379 992 m 369 824 l 314 824 l 314 547 l 374 547 q 503 583 463 547 q 544 690 544 619 q 525 767 544 739 q 467 810 506 796 q 369 824 429 824 z "},"S":{"ha":708,"x_min":57,"x_max":657,"o":"m 657 281 q 617 126 657 193 q 501 23 576 60 q 319 -14 425 -14 q 226 -8 271 -14 q 138 11 181 -1 q 57 44 96 24 l 57 239 q 190 184 121 207 q 326 161 260 161 q 401 175 372 161 q 443 213 429 189 q 457 267 457 236 q 437 328 457 303 q 378 378 417 354 q 285 431 340 401 q 209 475 247 450 q 138 533 171 500 q 86 613 106 567 q 67 725 67 660 q 105 875 67 813 q 214 972 143 938 q 382 1006 285 1006 q 519 988 454 1006 q 654 939 585 971 l 592 774 q 481 816 531 801 q 381 831 431 831 q 319 818 344 831 q 280 784 293 806 q 267 732 267 763 q 284 673 267 697 q 338 626 301 649 q 436 572 375 604 q 556 497 507 536 q 631 406 606 457 q 657 281 657 354 z "},"T":{"ha":728,"x_min":25,"x_max":703,"o":"m 465 0 l 263 0 l 263 821 l 25 821 l 25 992 l 703 992 l 703 821 l 465 821 l 465 0 z "},"U":{"ha":951,"x_min":106,"x_max":846,"o":"m 846 342 q 804 155 846 235 q 680 31 763 75 q 472 -14 597 -14 q 199 81 293 -14 q 106 342 106 175 l 106 992 l 308 992 l 308 364 q 351 206 308 253 q 476 160 393 160 q 572 181 535 160 q 626 249 608 203 q 644 365 644 294 l 644 992 l 846 992 l 846 342 z "},"V":{"ha":833,"x_min":0,"x_max":833,"o":"m 833 992 l 529 0 l 303 0 l 0 992 l 207 992 l 369 413 q 385 351 375 392 q 403 266 394 310 q 417 192 413 222 q 430 265 421 222 q 449 350 439 308 q 463 413 458 392 l 626 992 l 833 992 z "},"W":{"ha":1246,"x_min":0,"x_max":1244,"o":"m 1244 992 l 1013 0 l 782 0 l 663 503 q 653 551 658 522 q 641 615 647 581 q 630 681 635 649 q 622 739 625 714 q 615 686 619 718 q 603 620 610 654 q 592 555 597 586 q 581 503 586 524 l 463 0 l 232 0 l 0 992 l 200 992 l 313 465 q 324 405 318 439 q 338 335 331 371 q 349 264 344 299 q 357 201 354 229 q 367 266 361 231 q 378 337 372 301 q 391 403 385 372 q 401 456 397 435 l 531 992 l 715 992 l 840 456 q 852 403 846 435 q 865 335 858 371 q 876 265 871 299 q 885 201 882 231 q 897 286 889 239 q 913 381 904 333 q 929 465 922 429 l 1043 992 l 1244 992 z "},"X":{"ha":828,"x_min":0,"x_max":828,"o":"m 828 0 l 600 0 l 410 360 l 215 0 l 0 0 l 289 508 l 21 992 l 239 992 l 415 651 l 586 992 l 804 992 l 533 501 l 828 0 z "},"Y":{"ha":790,"x_min":0,"x_max":790,"o":"m 396 585 l 575 992 l 790 992 l 496 385 l 496 0 l 294 0 l 294 378 l 0 992 l 217 992 l 396 585 z "},"Z":{"ha":728,"x_min":33,"x_max":696,"o":"m 696 0 l 33 0 l 33 136 l 451 822 l 43 822 l 43 992 l 685 992 l 685 856 l 267 171 l 696 171 l 696 0 z "},"[":{"ha":447,"x_min":89,"x_max":414,"o":"m 414 -224 l 89 -224 l 89 999 l 414 999 l 414 856 l 263 856 l 263 -81 l 414 -81 l 414 -224 z "},"\\":{"ha":569,"x_min":10,"x_max":560,"o":"m 188 996 l 560 -4 l 382 -4 l 10 996 l 188 996 z "},"]":{"ha":447,"x_min":33,"x_max":358,"o":"m 33 -81 l 185 -81 l 185 856 l 33 856 l 33 999 l 358 999 l 358 -224 l 33 -224 l 33 -81 z "},"^":{"ha":758,"x_min":25,"x_max":733,"o":"m 25 364 l 318 996 l 415 996 l 733 364 l 569 364 l 369 775 l 188 364 l 25 364 z "},"_":{"ha":603,"x_min":-3,"x_max":606,"o":"m 606 -225 l -3 -225 l -3 -115 l 606 -115 l 606 -225 z "},"`":{"ha":476,"x_min":56,"x_max":421,"o":"m 278 1064 q 322 995 296 1033 q 374 921 347 957 q 421 860 401 885 l 421 842 l 288 842 q 231 887 264 860 q 165 944 199 914 q 103 1003 132 975 q 56 1050 74 1031 l 56 1064 l 278 1064 z "},"a":{"ha":768,"x_min":51,"x_max":674,"o":"m 390 774 q 601 707 528 774 q 674 504 674 640 l 674 0 l 533 0 l 497 103 l 493 103 q 433 36 464 63 q 362 -2 401 10 q 265 -14 322 -14 q 152 15 200 -14 q 78 97 104 43 q 51 225 51 151 q 129 404 51 346 q 360 468 207 463 l 478 472 l 478 506 q 451 594 478 565 q 372 624 424 624 q 277 609 325 624 q 179 569 229 594 l 118 707 q 245 756 175 739 q 390 774 315 774 m 407 349 q 288 315 324 346 q 253 228 253 283 q 277 157 253 179 q 342 135 301 135 q 439 175 400 135 q 478 288 478 215 l 478 351 l 407 349 z "},"b":{"ha":811,"x_min":97,"x_max":754,"o":"m 294 803 q 292 730 294 768 q 288 660 290 692 l 294 660 q 373 742 325 711 q 492 772 421 772 q 683 672 611 772 q 754 381 754 572 q 721 165 754 254 q 628 31 688 76 q 488 -14 568 -14 q 372 13 415 -14 q 294 83 328 39 l 282 83 l 251 0 l 97 0 l 97 1056 l 294 1056 l 294 803 m 428 611 q 349 588 378 611 q 308 517 321 564 q 294 403 296 471 l 294 375 q 324 206 294 263 q 429 149 354 149 q 520 208 488 149 q 553 383 553 267 q 520 553 553 496 q 428 611 488 611 z "},"c":{"ha":656,"x_min":58,"x_max":617,"o":"m 386 -14 q 207 28 281 -14 q 96 156 133 69 q 58 375 58 242 q 99 594 58 506 q 217 727 140 682 q 399 772 293 772 q 522 758 469 772 q 617 722 575 744 l 560 568 q 480 599 518 588 q 404 610 442 610 q 324 583 356 610 q 275 506 292 557 q 258 376 258 454 q 276 249 258 300 q 326 174 293 199 q 406 150 358 150 q 507 166 461 150 q 596 211 553 182 l 596 43 q 503 -1 553 13 q 386 -14 454 -14 z "},"d":{"ha":811,"x_min":58,"x_max":714,"o":"m 322 -14 q 130 88 201 -14 q 58 379 58 189 q 131 672 58 571 q 324 772 203 772 q 408 759 371 772 q 474 721 446 746 q 522 661 501 696 l 529 661 q 521 730 525 692 q 517 806 517 768 l 517 1056 l 714 1056 l 714 0 l 561 0 l 526 93 l 517 93 q 469 37 497 61 q 406 -1 442 13 q 322 -14 371 -14 m 388 146 q 493 197 461 146 q 526 356 525 249 l 526 385 q 495 553 526 497 q 386 608 464 608 q 292 549 325 608 q 258 378 258 490 q 292 204 258 263 q 388 146 325 146 z "},"e":{"ha":753,"x_min":58,"x_max":699,"o":"m 386 772 q 554 731 485 772 q 661 614 624 690 q 699 428 699 538 l 699 328 l 256 328 q 303 187 258 236 q 429 138 347 138 q 547 151 493 138 q 658 196 600 165 l 658 40 q 549 -1 607 13 q 414 -14 490 -14 q 223 31 303 -14 q 101 161 143 75 q 58 374 58 247 q 98 594 58 506 q 211 727 138 682 q 386 772 285 772 m 388 626 q 299 588 333 626 q 260 463 264 549 l 514 463 q 499 548 514 511 q 458 606 485 585 q 388 626 431 626 z "},"f":{"ha":492,"x_min":22,"x_max":543,"o":"m 482 606 l 324 606 l 324 0 l 126 0 l 126 606 l 22 606 l 22 704 l 126 758 l 126 803 q 154 956 126 900 q 236 1038 182 1013 q 368 1063 290 1063 q 464 1053 421 1063 q 543 1031 507 1044 l 494 885 q 449 897 474 892 q 396 903 425 903 q 341 876 358 903 q 324 801 324 850 l 324 758 l 482 758 l 482 606 z "},"g":{"ha":811,"x_min":58,"x_max":714,"o":"m 325 772 q 438 746 389 772 q 522 661 488 719 l 531 661 l 546 758 l 714 758 l 714 14 q 675 -176 714 -99 q 556 -293 636 -253 q 356 -333 476 -333 q 220 -322 282 -333 q 100 -286 158 -311 l 100 -122 q 229 -167 164 -153 q 361 -181 294 -181 q 477 -140 438 -181 q 517 -15 517 -100 l 517 0 q 519 51 517 24 q 524 100 521 78 l 517 100 q 432 13 481 40 q 319 -14 383 -14 q 128 89 197 -14 q 58 376 58 192 q 129 668 58 564 q 325 772 200 772 m 386 608 q 315 583 344 608 q 272 505 286 557 q 258 374 258 453 q 290 203 258 258 q 389 147 322 147 q 449 158 424 147 q 492 194 475 169 q 517 257 508 218 q 526 351 526 296 l 526 381 q 512 513 526 463 q 466 585 497 563 q 386 608 435 608 z "},"h":{"ha":833,"x_min":97,"x_max":739,"o":"m 294 833 q 291 736 294 783 q 283 661 288 689 l 294 661 q 345 724 315 700 q 413 760 375 749 q 493 772 450 772 q 624 742 569 772 q 709 652 679 713 q 739 497 739 592 l 739 0 l 542 0 l 542 446 q 517 569 542 529 q 438 608 492 608 q 352 581 383 608 q 308 497 321 553 q 294 360 294 442 l 294 0 l 97 0 l 97 1056 l 294 1056 l 294 833 z "},"i":{"ha":393,"x_min":89,"x_max":304,"o":"m 294 758 l 294 0 l 97 0 l 97 758 l 294 758 m 197 1057 q 274 1033 244 1057 q 304 954 304 1010 q 274 876 304 900 q 197 853 243 853 q 119 876 149 853 q 89 954 89 900 q 118 1034 89 1011 q 197 1057 147 1057 z "},"j":{"ha":393,"x_min":-71,"x_max":304,"o":"m 51 -333 q -13 -329 19 -333 q -71 -317 -46 -325 l -71 -157 q -30 -166 -49 -162 q 13 -169 -11 -169 q 74 -145 50 -169 q 97 -58 97 -121 l 97 758 l 294 758 l 294 -82 q 269 -214 294 -157 q 190 -302 244 -271 q 51 -333 136 -333 m 89 954 q 119 1034 89 1011 q 197 1057 149 1057 q 274 1033 244 1057 q 304 954 304 1010 q 274 876 304 900 q 197 853 243 853 q 119 876 150 853 q 89 954 89 900 z "},"k":{"ha":786,"x_min":97,"x_max":788,"o":"m 294 588 q 292 499 294 543 q 285 413 289 456 l 288 413 q 313 451 300 432 q 338 488 325 469 q 365 522 351 506 l 553 758 l 772 758 l 510 436 l 788 0 l 564 0 l 376 310 l 294 239 l 294 0 l 97 0 l 97 1056 l 294 1056 l 294 588 z "},"l":{"ha":392,"x_min":97,"x_max":294,"o":"m 294 0 l 97 0 l 97 1056 l 294 1056 l 294 0 z "},"m":{"ha":1244,"x_min":97,"x_max":1151,"o":"m 915 772 q 1092 706 1032 772 q 1151 496 1151 640 l 1151 0 l 954 0 l 954 446 q 929 568 954 528 q 854 608 904 608 q 752 551 782 608 q 722 382 722 494 l 722 0 l 525 0 l 525 446 q 515 536 525 500 q 482 590 504 572 q 426 608 460 608 q 347 580 376 608 q 306 496 318 551 q 294 360 294 440 l 294 0 l 97 0 l 97 758 l 250 758 l 275 661 l 286 661 q 338 724 307 700 q 408 760 368 749 q 490 772 447 772 q 618 744 567 772 q 694 663 669 717 l 711 663 q 797 746 743 719 q 915 772 851 772 z "},"n":{"ha":833,"x_min":97,"x_max":739,"o":"m 494 772 q 674 706 608 772 q 739 497 739 639 l 739 0 l 542 0 l 542 446 q 517 567 542 526 q 436 608 493 608 q 325 547 356 608 q 294 360 294 486 l 294 0 l 97 0 l 97 758 l 250 758 l 275 661 l 286 661 q 340 724 308 700 q 412 760 372 749 q 494 772 451 772 z "},"o":{"ha":793,"x_min":58,"x_max":735,"o":"m 735 381 q 713 219 735 292 q 648 94 690 147 q 542 14 606 42 q 396 -14 478 -14 q 256 14 318 -14 q 149 94 193 42 q 82 219 106 146 q 58 382 58 292 q 97 590 58 503 q 213 725 136 678 q 399 772 289 772 q 574 727 499 772 q 692 594 650 682 q 735 381 735 507 m 258 379 q 273 252 258 304 q 318 174 288 200 q 397 147 349 147 q 476 174 446 147 q 519 252 506 200 q 533 381 533 304 q 519 509 533 458 q 475 585 506 560 q 396 611 444 611 q 291 554 324 611 q 258 379 258 497 z "},"p":{"ha":811,"x_min":97,"x_max":754,"o":"m 490 772 q 683 672 611 772 q 754 379 754 572 q 720 165 754 253 q 627 31 686 76 q 489 -14 568 -14 q 406 -1 442 -14 q 342 36 369 13 q 294 89 315 60 l 285 89 q 292 27 290 57 q 294 -28 294 -3 l 294 -333 l 97 -333 l 97 758 l 257 758 l 285 660 l 294 660 q 344 721 317 696 q 408 759 371 746 q 490 772 444 772 m 428 613 q 351 590 379 613 q 309 520 322 567 q 294 403 296 474 l 294 375 q 308 250 294 300 q 350 175 321 200 q 429 150 379 150 q 498 176 471 150 q 539 254 525 203 q 553 381 553 306 q 522 554 553 496 q 428 613 492 613 z "},"q":{"ha":811,"x_min":58,"x_max":714,"o":"m 517 -24 q 519 33 517 1 q 525 100 521 64 l 517 100 q 440 17 488 49 q 319 -14 392 -14 q 130 86 201 -14 q 58 376 58 186 q 91 594 58 506 q 184 727 124 682 q 324 772 244 772 q 444 743 397 772 q 522 661 490 714 l 529 661 l 546 758 l 714 758 l 714 -333 l 517 -333 l 517 -24 m 389 147 q 467 169 438 147 q 511 237 497 192 q 526 351 525 282 l 526 381 q 495 551 526 494 q 386 608 464 608 q 290 549 322 608 q 258 374 258 490 q 290 203 258 258 q 389 147 322 147 z "},"r":{"ha":576,"x_min":97,"x_max":554,"o":"m 486 772 q 520 771 501 772 q 554 765 539 769 l 538 572 q 509 577 526 575 q 475 579 492 579 q 406 568 439 579 q 349 533 374 557 q 309 474 324 510 q 294 386 294 438 l 294 0 l 97 0 l 97 758 l 249 758 l 276 632 l 286 632 q 335 701 306 669 q 403 753 364 733 q 486 772 442 772 z "},"s":{"ha":628,"x_min":54,"x_max":581,"o":"m 581 224 q 547 94 581 147 q 448 14 514 42 q 286 -14 382 -14 q 161 -3 215 -14 q 56 31 107 7 l 56 203 q 169 157 107 175 q 285 139 232 139 q 361 157 338 139 q 385 207 385 175 q 375 242 385 226 q 335 276 365 257 q 239 324 304 296 q 136 383 178 353 q 74 457 94 414 q 54 560 54 500 q 129 718 54 664 q 329 772 204 772 q 453 758 394 772 q 572 713 511 744 l 514 568 q 422 607 467 592 q 331 622 378 622 q 269 608 290 622 q 249 568 249 594 q 259 535 249 550 q 299 504 269 521 q 389 460 329 488 q 490 403 447 433 q 557 331 533 374 q 581 224 581 289 z "},"t":{"ha":543,"x_min":26,"x_max":507,"o":"m 393 149 q 450 155 422 149 q 507 171 478 161 l 507 21 q 430 -4 474 6 q 333 -14 386 -14 q 218 10 267 -14 q 142 88 169 33 q 115 233 115 142 l 115 606 l 26 606 l 26 696 l 131 758 l 185 919 l 313 919 l 313 758 l 497 758 l 497 606 l 313 606 l 313 236 q 334 171 313 193 q 393 149 356 149 z "},"u":{"ha":833,"x_min":94,"x_max":736,"o":"m 736 758 l 736 0 l 583 0 l 558 97 l 547 97 q 494 35 526 60 q 423 -2 463 10 q 339 -14 383 -14 q 208 17 263 -14 q 124 109 153 47 q 94 264 94 171 l 94 758 l 292 758 l 292 317 q 316 192 292 235 q 396 150 340 150 q 483 178 453 150 q 526 260 514 206 q 539 392 539 314 l 539 758 l 736 758 z "},"v":{"ha":726,"x_min":1,"x_max":725,"o":"m 260 0 l 1 758 l 207 758 l 332 338 q 345 285 339 313 q 355 231 351 258 q 360 179 358 204 l 365 179 q 370 227 367 201 q 380 280 374 253 q 393 333 386 307 l 519 758 l 725 758 l 467 0 l 260 0 z "},"w":{"ha":1101,"x_min":13,"x_max":1089,"o":"m 611 308 q 598 371 606 332 q 581 453 590 410 q 564 534 572 496 q 551 593 556 572 l 547 593 q 535 533 543 571 q 519 451 528 494 q 501 369 510 407 q 488 307 493 331 l 422 0 l 207 0 l 13 758 l 208 758 l 283 439 q 299 356 292 403 q 313 265 307 310 q 322 188 319 221 l 326 188 q 333 241 329 210 q 342 305 336 272 q 352 368 347 338 q 361 417 357 399 l 442 758 l 663 758 l 739 415 q 751 347 744 389 q 765 261 758 304 q 772 188 771 218 l 778 188 q 786 258 781 215 q 799 346 792 300 q 815 428 807 392 l 896 758 l 1089 758 l 892 0 l 672 0 l 611 308 z "},"x":{"ha":731,"x_min":8,"x_max":721,"o":"m 236 388 l 19 758 l 239 758 l 365 522 l 492 758 l 711 758 l 493 388 l 721 0 l 501 0 l 364 254 l 228 0 l 8 0 l 236 388 z "},"y":{"ha":726,"x_min":1,"x_max":725,"o":"m 1 758 l 214 758 l 338 354 q 349 309 344 332 q 358 263 354 286 q 363 217 361 240 l 368 217 q 378 284 371 250 q 396 353 386 318 l 515 758 l 725 758 l 439 -89 q 369 -226 411 -172 q 272 -307 328 -281 q 147 -333 215 -333 q 92 -330 117 -333 q 49 -322 68 -326 l 49 -160 q 83 -165 64 -162 q 121 -168 101 -168 q 184 -153 158 -168 q 228 -107 210 -137 q 260 -33 247 -76 l 272 7 l 1 758 z "},"z":{"ha":613,"x_min":33,"x_max":576,"o":"m 576 0 l 33 0 l 33 118 l 343 603 l 53 603 l 53 758 l 565 758 l 565 629 l 265 156 l 576 156 l 576 0 z "},"{":{"ha":532,"x_min":25,"x_max":483,"o":"m 483 -224 q 305 -203 369 -224 q 214 -139 240 -183 q 188 -19 188 -94 l 188 186 q 169 256 188 229 q 115 295 151 282 q 25 308 79 308 l 25 463 q 115 475 79 463 q 169 515 150 488 q 188 585 188 543 l 188 793 q 213 908 188 864 q 302 974 238 953 q 483 996 367 996 l 483 846 q 419 837 446 844 q 378 809 392 829 q 364 750 364 789 l 364 549 q 328 440 364 479 q 217 390 292 401 l 217 382 q 328 332 292 371 q 364 225 364 293 l 364 24 q 377 -35 364 -14 q 417 -64 390 -56 q 483 -74 443 -72 l 483 -224 z "},"|":{"ha":696,"x_min":271,"x_max":424,"o":"m 271 1057 l 424 1057 l 424 -318 l 271 -318 l 271 1057 z "},"}":{"ha":532,"x_min":50,"x_max":507,"o":"m 50 -74 q 115 -64 89 -72 q 156 -35 142 -56 q 169 24 169 -14 l 169 225 q 206 332 169 293 q 315 382 242 371 l 315 390 q 206 441 242 401 q 169 549 169 481 l 169 750 q 154 809 169 789 q 113 837 139 829 q 50 846 86 844 l 50 996 q 228 975 164 996 q 319 910 293 954 q 346 793 346 867 l 346 585 q 363 516 346 543 q 417 476 381 489 q 507 463 453 463 l 507 308 q 418 295 454 308 q 364 256 382 282 q 346 186 346 229 l 346 -19 q 320 -136 346 -92 q 231 -202 294 -181 q 50 -224 168 -224 l 50 -74 z "},"~":{"ha":744,"x_min":53,"x_max":690,"o":"m 349 418 q 268 447 303 439 q 203 456 233 456 q 127 433 167 456 q 53 374 88 410 l 53 531 q 126 585 85 567 q 218 604 168 604 q 299 595 258 604 q 394 561 339 586 q 475 532 440 540 q 540 524 510 524 q 617 547 578 524 q 690 606 657 569 l 690 449 q 616 394 657 413 q 526 375 575 375 q 445 385 485 375 q 349 418 406 394 z "}," ":{"ha":319,"x_min":0,"x_max":0,"o":""},"¡":{"ha":382,"x_min":76,"x_max":306,"o":"m 110 418 l 269 418 l 303 -251 l 76 -251 l 110 418 m 306 649 q 274 560 306 588 q 192 533 242 533 q 110 560 142 533 q 78 647 78 588 q 110 734 78 706 q 190 763 142 763 q 273 735 240 763 q 306 649 306 707 z "},"¢":{"ha":742,"x_min":93,"x_max":651,"o":"m 469 899 q 569 882 524 896 q 651 849 615 868 l 594 694 q 515 726 553 714 q 440 738 476 738 q 360 712 392 738 q 311 635 328 686 q 294 504 294 583 q 310 375 294 425 q 359 301 326 325 q 439 276 392 276 q 539 291 494 276 q 631 329 583 306 l 631 164 q 554 131 594 144 q 469 115 514 118 l 469 -14 l 356 -14 l 356 119 q 213 176 271 131 q 124 304 154 222 q 93 503 93 386 q 124 708 93 626 q 215 836 156 790 q 356 893 275 882 l 356 1006 l 469 1006 l 469 899 z "},"£":{"ha":742,"x_min":58,"x_max":707,"o":"m 444 1006 q 573 990 513 1006 q 685 950 633 975 l 626 796 q 540 828 582 817 q 461 839 499 839 q 392 812 419 839 q 365 721 365 785 l 365 585 l 590 585 l 590 440 l 365 440 l 365 340 q 352 263 365 296 q 317 209 339 231 q 268 172 294 188 l 707 172 l 707 0 l 58 0 l 58 164 q 119 203 94 182 q 156 256 143 224 q 168 339 168 289 l 168 440 l 58 440 l 58 585 l 168 585 l 168 722 q 204 883 168 821 q 303 976 240 946 q 444 1006 365 1006 z "},"¤":{"ha":781,"x_min":71,"x_max":710,"o":"m 121 490 q 131 561 121 526 q 160 628 140 596 l 71 715 l 165 808 l 251 722 q 317 750 282 740 q 389 760 353 760 q 460 750 426 760 q 526 721 494 740 l 614 808 l 710 717 l 621 629 q 649 563 639 599 q 660 490 660 528 q 650 417 660 451 q 621 351 640 382 l 707 265 l 614 172 l 526 258 q 461 232 496 242 q 389 222 426 222 q 315 231 350 222 q 250 258 281 240 l 165 174 l 72 267 l 160 353 q 131 418 140 383 q 121 490 121 453 m 253 490 q 271 422 253 453 q 320 372 289 390 q 389 353 351 353 q 460 372 428 353 q 510 422 492 390 q 529 490 529 453 q 510 560 529 528 q 460 610 492 592 q 389 629 428 629 q 321 610 351 629 q 272 560 290 592 q 253 490 253 529 z "},"¥":{"ha":742,"x_min":10,"x_max":731,"o":"m 371 590 l 524 992 l 731 992 l 499 488 l 632 488 l 632 367 l 465 367 l 465 272 l 632 272 l 632 153 l 465 153 l 465 0 l 275 0 l 275 153 l 108 153 l 108 272 l 275 272 l 275 367 l 108 367 l 108 488 l 238 488 l 10 992 l 217 992 l 371 590 z "},"¦":{"ha":696,"x_min":271,"x_max":424,"o":"m 271 1053 l 424 1053 l 424 501 l 271 501 l 271 1053 m 271 233 l 424 233 l 424 -318 l 271 -318 l 271 233 z "},"§":{"ha":636,"x_min":68,"x_max":572,"o":"m 72 543 q 99 642 72 600 q 165 710 125 683 q 99 778 122 739 q 76 868 76 818 q 148 1008 76 956 q 335 1061 219 1061 q 454 1046 399 1061 q 565 1006 510 1031 l 511 878 q 424 916 468 900 q 335 932 381 932 q 263 917 286 932 q 239 869 239 901 q 253 829 239 847 q 297 795 268 811 q 369 760 325 779 q 478 701 433 733 q 548 629 524 669 q 572 535 572 589 q 549 429 572 471 q 486 360 526 388 q 548 294 528 332 q 568 207 568 257 q 493 50 568 108 q 289 -8 418 -8 q 167 6 221 -8 q 68 46 113 19 l 68 186 q 138 153 100 168 q 216 128 176 138 q 288 119 256 119 q 379 141 353 119 q 406 197 406 163 q 396 238 406 221 q 358 271 386 254 q 275 313 331 288 q 162 375 207 344 q 94 446 117 406 q 72 543 72 486 m 221 561 q 235 513 221 535 q 278 472 249 492 q 353 431 308 451 l 375 419 q 407 458 393 435 q 421 511 421 481 q 408 563 421 540 q 365 607 396 586 q 278 650 335 628 q 237 617 253 640 q 221 561 221 593 z "},"¨":{"ha":781,"x_min":167,"x_max":615,"o":"m 167 950 q 192 1021 167 999 q 256 1043 218 1043 q 322 1020 294 1043 q 349 951 349 997 q 322 883 349 906 q 256 860 294 860 q 192 883 218 860 q 167 950 167 906 m 432 950 q 458 1021 432 999 q 522 1043 483 1043 q 589 1020 563 1043 q 615 951 615 997 q 589 883 615 906 q 524 860 563 860 q 458 883 485 860 q 432 950 432 906 z "},"©":{"ha":1153,"x_min":64,"x_max":1088,"o":"m 597 179 q 385 265 457 179 q 313 496 313 350 q 346 662 313 590 q 444 773 379 733 q 600 813 508 813 q 694 801 647 813 q 782 768 740 789 l 738 671 q 669 697 703 689 q 606 706 636 706 q 484 651 528 706 q 440 494 440 597 q 479 338 440 392 q 606 285 518 285 q 681 294 640 285 q 757 319 721 303 l 757 215 q 683 189 721 199 q 597 179 646 179 m 574 -14 q 368 24 461 -14 q 207 131 275 63 q 101 292 139 200 q 64 496 64 385 q 103 697 64 604 q 212 859 142 790 q 375 967 282 928 q 576 1006 468 1006 q 778 968 685 1006 q 940 861 871 931 q 1049 699 1010 792 q 1088 494 1088 606 q 1050 290 1088 383 q 943 129 1013 197 q 780 24 874 61 q 574 -14 686 -14 m 578 76 q 740 107 665 76 q 869 194 814 138 q 956 326 925 250 q 988 494 988 403 q 956 662 988 585 q 869 796 925 739 q 739 885 814 853 q 576 917 664 917 q 410 885 486 917 q 279 797 335 854 q 193 663 224 740 q 163 494 163 586 q 193 326 163 403 q 280 193 224 249 q 412 107 336 138 q 578 76 488 76 z "},"ª":{"ha":506,"x_min":32,"x_max":446,"o":"m 264 1003 q 401 954 356 1003 q 446 819 446 906 l 446 518 l 354 518 l 333 593 q 269 532 308 554 q 181 510 231 510 q 102 528 136 510 q 50 580 68 546 q 32 661 32 614 q 58 748 32 715 q 134 796 85 781 q 253 814 183 811 l 313 818 l 313 831 q 294 880 313 863 q 236 897 276 897 q 172 887 206 897 q 101 857 138 876 l 58 950 q 153 988 103 974 q 264 1003 203 1003 m 256 733 q 185 710 204 729 q 167 664 167 690 q 181 625 167 638 q 218 613 196 613 q 288 641 263 613 q 313 713 313 669 l 313 738 l 256 733 z "},"«":{"ha":807,"x_min":49,"x_max":756,"o":"m 49 389 l 285 696 l 426 619 l 254 381 l 426 143 l 285 65 l 49 371 l 49 389 m 378 389 l 614 696 l 756 619 l 585 381 l 756 143 l 614 65 l 378 371 l 378 389 z "},"¬":{"ha":744,"x_min":54,"x_max":686,"o":"m 686 564 l 686 167 l 536 167 l 536 415 l 54 415 l 54 564 l 686 564 z "},"­":{"ha":439,"x_min":40,"x_max":399,"o":"m 40 288 l 40 458 l 399 458 l 399 288 l 40 288 z "},"®":{"ha":1153,"x_min":64,"x_max":1088,"o":"m 375 197 l 375 804 l 561 804 q 731 758 675 804 q 786 621 786 711 q 757 519 786 558 q 682 460 728 479 l 833 197 l 696 197 l 574 428 l 499 428 l 499 197 l 375 197 m 556 524 q 634 549 607 524 q 661 617 661 574 q 638 683 661 663 q 556 703 614 703 l 499 703 l 499 524 l 556 524 m 574 -14 q 368 24 461 -14 q 207 131 275 63 q 101 292 139 200 q 64 496 64 385 q 103 697 64 604 q 212 859 142 790 q 375 967 282 928 q 576 1006 468 1006 q 778 968 685 1006 q 940 861 871 931 q 1049 699 1010 792 q 1088 494 1088 606 q 1050 290 1088 383 q 943 129 1013 197 q 780 24 874 61 q 574 -14 686 -14 m 578 76 q 740 107 665 76 q 869 194 814 138 q 956 326 925 250 q 988 494 988 403 q 956 662 988 585 q 869 796 925 739 q 739 885 814 853 q 576 917 664 917 q 410 885 486 917 q 279 797 335 854 q 193 663 224 740 q 163 494 163 586 q 193 326 163 403 q 280 193 224 249 q 412 107 336 138 q 578 76 488 76 z "},"¯":{"ha":681,"x_min":-4,"x_max":685,"o":"m 685 1056 l -4 1056 l -4 1192 l 685 1192 l 685 1056 z "},"°":{"ha":561,"x_min":50,"x_max":510,"o":"m 281 560 q 162 588 214 560 q 80 667 110 617 q 50 782 50 718 q 80 899 50 849 q 162 977 110 949 q 281 1006 214 1006 q 400 977 349 1006 q 481 899 451 949 q 510 782 510 849 q 481 667 510 717 q 399 588 451 617 q 281 560 347 560 m 281 682 q 353 709 325 682 q 382 782 382 736 q 353 858 382 831 q 281 885 325 885 q 208 857 236 885 q 179 782 179 829 q 208 709 179 736 q 281 682 238 682 z "},"±":{"ha":744,"x_min":54,"x_max":689,"o":"m 54 0 l 54 149 l 689 149 l 689 0 l 54 0 m 446 613 l 689 613 l 689 464 l 446 464 l 446 204 l 297 204 l 297 465 l 54 465 l 54 613 l 297 613 l 297 875 l 446 875 l 446 613 z "},"²":{"ha":504,"x_min":33,"x_max":453,"o":"m 453 578 l 39 578 l 39 692 l 181 840 q 242 908 219 881 q 274 959 264 936 q 283 1007 283 982 q 267 1047 283 1032 q 224 1061 251 1061 q 169 1047 197 1061 q 110 1001 140 1033 l 33 1099 q 124 1162 71 1138 q 244 1186 176 1186 q 385 1142 333 1186 q 436 1021 436 1097 q 420 938 436 975 q 369 858 404 900 q 275 760 333 817 l 219 707 l 453 707 l 453 578 z "},"³":{"ha":504,"x_min":40,"x_max":449,"o":"m 240 1185 q 377 1143 324 1185 q 431 1031 431 1101 q 405 947 431 982 q 325 892 379 913 l 325 885 q 418 832 388 871 q 449 742 449 793 q 390 613 449 660 q 217 567 331 567 q 124 578 167 567 q 42 613 82 589 l 42 740 q 124 699 81 715 q 215 683 168 683 q 283 701 261 683 q 306 753 306 719 q 282 806 306 785 q 200 826 258 826 l 131 826 l 131 933 l 188 933 q 271 955 250 933 q 292 1007 292 976 q 276 1051 292 1035 q 225 1068 260 1068 q 167 1056 194 1068 q 104 1017 139 1044 l 40 1110 q 130 1165 81 1144 q 240 1185 179 1185 z "},"´":{"ha":476,"x_min":56,"x_max":421,"o":"m 421 1050 q 376 1003 404 1031 q 314 946 347 976 q 248 888 281 915 q 190 842 215 861 l 56 842 l 56 860 q 106 926 79 890 q 156 997 132 961 q 199 1064 181 1033 l 421 1064 l 421 1050 z "},"µ":{"ha":836,"x_min":97,"x_max":739,"o":"m 739 758 l 739 0 l 588 0 l 561 100 l 551 100 q 514 38 536 64 q 465 -1 492 13 q 403 -14 438 -14 q 339 2 367 -14 q 292 47 311 18 l 288 47 q 292 3 290 31 q 294 -56 293 -25 q 294 -111 294 -86 l 294 -333 l 97 -333 l 97 758 l 294 758 l 294 315 q 319 192 294 235 q 399 150 344 150 q 486 180 456 150 q 529 265 517 210 q 542 397 542 321 l 542 758 l 739 758 z "},"¶":{"ha":831,"x_min":71,"x_max":724,"o":"m 724 -176 l 617 -176 l 617 933 l 514 933 l 514 -176 l 407 -176 l 407 379 q 369 370 389 374 q 324 367 349 367 q 188 401 244 367 q 101 510 131 435 q 71 707 71 585 q 103 910 71 833 q 198 1021 136 986 q 344 1056 260 1056 l 724 1056 l 724 -176 z "},"·":{"ha":381,"x_min":76,"x_max":306,"o":"m 76 489 q 108 577 76 550 q 192 604 140 604 q 273 578 240 604 q 306 490 306 551 q 273 403 306 431 q 192 375 240 375 q 109 403 142 375 q 76 489 76 431 z "},"¸":{"ha":265,"x_min":-25,"x_max":271,"o":"m 271 -174 q 226 -291 271 -249 q 75 -333 182 -333 q 19 -330 44 -333 q -25 -321 -6 -326 l -25 -210 q 19 -219 -6 -215 q 63 -222 43 -222 q 101 -212 86 -222 q 117 -178 117 -201 q 92 -133 117 -151 q 10 -108 67 -115 l 61 0 l 176 0 l 157 -47 q 215 -72 189 -54 q 256 -114 240 -89 q 271 -174 271 -139 z "},"¹":{"ha":504,"x_min":57,"x_max":378,"o":"m 378 1172 l 378 578 l 226 578 l 226 875 q 226 923 226 896 q 228 976 226 950 q 231 1017 229 1001 q 209 993 222 1006 q 186 972 196 981 l 128 925 l 57 1013 l 256 1172 l 378 1172 z "},"º":{"ha":510,"x_min":38,"x_max":472,"o":"m 472 756 q 414 574 472 639 q 254 510 356 510 q 97 575 157 510 q 38 757 38 640 q 97 938 38 874 q 256 1003 156 1003 q 368 974 319 1003 q 444 891 417 946 q 472 756 472 836 m 172 756 q 192 653 172 688 q 256 619 211 619 q 318 653 299 619 q 338 756 338 688 q 317 859 338 825 q 256 893 297 893 q 192 860 213 893 q 172 756 172 826 z "},"»":{"ha":807,"x_min":51,"x_max":757,"o":"m 757 371 l 521 65 l 379 143 l 551 381 l 379 619 l 521 696 l 757 389 l 757 371 m 429 371 l 193 65 l 51 143 l 222 381 l 51 619 l 193 696 l 429 389 l 429 371 z "},"¼":{"ha":1136,"x_min":35,"x_max":1121,"o":"m 229 0 l 757 992 l 914 992 l 385 0 l 229 0 m 204 696 q 204 742 204 715 q 206 795 204 769 q 208 836 207 821 q 187 813 200 826 q 164 792 174 800 l 106 746 l 35 832 l 233 992 l 356 992 l 356 397 l 204 397 l 204 696 m 890 0 l 890 104 l 644 104 l 644 207 l 888 597 l 1042 597 l 1042 217 l 1121 217 l 1121 104 l 1042 104 l 1042 0 l 890 0 m 765 217 l 890 217 l 890 338 q 892 394 890 365 q 894 451 893 424 q 874 401 888 431 q 849 354 860 372 l 765 217 z "},"½":{"ha":1181,"x_min":35,"x_max":1129,"o":"m 222 0 l 750 992 l 907 992 l 378 0 l 222 0 m 204 696 q 204 729 204 710 q 205 769 204 749 q 206 807 206 789 q 208 836 207 825 q 187 813 200 826 q 164 792 174 800 l 106 746 l 35 832 l 233 992 l 356 992 l 356 397 l 204 397 l 204 696 m 715 0 l 715 115 l 857 261 q 919 329 897 301 q 951 380 942 357 q 961 428 961 403 q 944 469 961 454 q 900 483 928 483 q 846 469 874 483 q 786 424 818 456 l 710 522 q 800 584 747 560 q 921 608 853 608 q 1061 565 1010 608 q 1113 443 1113 521 q 1098 362 1113 399 q 1053 288 1083 325 q 976 207 1022 251 l 896 129 l 1129 129 l 1129 0 l 715 0 z "},"¾":{"ha":1153,"x_min":53,"x_max":1138,"o":"m 261 0 l 789 992 l 946 992 l 417 0 l 261 0 m 229 386 q 138 397 181 386 q 54 432 94 408 l 54 560 q 138 519 94 535 q 228 503 181 503 q 297 521 275 503 q 319 572 319 539 q 296 625 319 604 q 213 646 272 646 l 144 646 l 144 754 l 201 754 q 284 776 263 754 q 306 828 306 797 q 289 872 306 854 q 238 889 272 889 q 180 876 207 889 q 117 836 153 864 l 53 931 q 143 984 94 964 q 254 1004 192 1004 q 391 963 338 1004 q 444 851 444 922 q 419 767 444 801 q 338 713 393 732 l 338 704 q 432 651 401 690 q 463 561 463 613 q 403 433 463 479 q 229 386 343 386 m 907 0 l 907 104 l 661 104 l 661 207 l 903 597 l 1057 597 l 1057 217 l 1138 217 l 1138 104 l 1057 104 l 1057 0 l 907 0 m 781 217 l 907 217 l 907 338 q 908 394 907 365 q 911 451 910 424 q 889 401 903 431 q 865 354 875 372 l 781 217 z "},"¿":{"ha":607,"x_min":32,"x_max":606,"o":"m 439 367 q 428 285 439 321 q 392 219 417 250 q 325 153 367 188 q 265 99 288 122 q 231 51 242 75 q 221 -4 221 26 q 250 -72 221 -49 q 332 -96 279 -96 q 433 -78 383 -96 q 536 -31 482 -61 l 606 -176 q 470 -238 542 -215 q 317 -261 399 -261 q 106 -194 181 -261 q 32 -18 32 -126 q 49 83 32 40 q 98 162 65 125 q 181 239 131 199 q 238 292 218 271 q 263 333 257 313 q 269 381 269 353 l 269 418 l 439 418 l 439 367 m 464 647 q 432 559 464 586 q 349 532 400 532 q 267 559 300 532 q 235 647 235 586 q 268 733 235 706 q 349 761 301 761 q 431 733 399 761 q 464 647 464 706 z "},"À":{"ha":875,"x_min":0,"x_max":875,"o":"m 657 0 l 593 238 l 283 238 l 218 0 l 0 0 l 310 994 l 563 994 l 875 0 l 657 0 m 485 651 q 469 713 478 679 q 452 781 461 747 q 438 843 443 815 q 423 780 432 817 q 406 708 414 743 q 392 653 397 674 l 326 410 l 550 410 l 485 651 m 431 1297 q 474 1228 449 1267 q 527 1154 500 1190 q 574 1093 554 1118 l 574 1075 l 440 1075 q 384 1120 417 1093 q 318 1178 351 1147 q 256 1236 285 1208 q 208 1283 226 1264 l 208 1297 l 431 1297 z "},"Á":{"ha":875,"x_min":0,"x_max":875,"o":"m 657 0 l 593 238 l 283 238 l 218 0 l 0 0 l 310 994 l 563 994 l 875 0 l 657 0 m 485 651 q 469 713 478 679 q 452 781 461 747 q 438 843 443 815 q 423 780 432 817 q 406 708 414 743 q 392 653 397 674 l 326 410 l 550 410 l 485 651 m 707 1283 q 662 1237 690 1264 q 600 1179 633 1210 q 534 1122 567 1149 q 476 1075 501 1094 l 342 1075 l 342 1093 q 392 1159 365 1124 q 442 1231 418 1194 q 485 1297 467 1267 l 707 1297 l 707 1283 z "},"Â":{"ha":875,"x_min":0,"x_max":875,"o":"m 657 0 l 593 238 l 283 238 l 218 0 l 0 0 l 310 994 l 563 994 l 875 0 l 657 0 m 485 651 q 469 713 478 679 q 452 781 461 747 q 438 843 443 815 q 423 780 432 817 q 406 708 414 743 q 392 653 397 674 l 326 410 l 550 410 l 485 651 m 544 1297 q 590 1230 563 1267 q 647 1158 617 1193 q 701 1093 676 1122 l 701 1075 l 575 1075 q 506 1126 543 1097 q 436 1192 469 1156 q 367 1126 403 1156 q 300 1075 331 1097 l 172 1075 l 172 1093 q 227 1156 197 1119 q 285 1230 257 1192 q 331 1297 313 1268 l 544 1297 z "},"Ã":{"ha":875,"x_min":0,"x_max":875,"o":"m 657 0 l 593 238 l 283 238 l 218 0 l 0 0 l 310 994 l 563 994 l 875 0 l 657 0 m 485 651 q 469 713 478 679 q 452 781 461 747 q 438 843 443 815 q 423 780 432 817 q 406 708 414 743 q 392 653 397 674 l 326 410 l 550 410 l 485 651 m 176 1074 q 191 1158 179 1119 q 224 1224 203 1196 q 273 1267 244 1251 q 338 1282 301 1282 q 392 1272 365 1282 q 443 1247 418 1261 q 492 1222 468 1232 q 540 1211 515 1211 q 576 1230 560 1211 q 599 1283 592 1249 l 699 1283 q 647 1127 693 1179 q 538 1075 601 1075 q 484 1085 511 1075 q 431 1110 457 1096 q 382 1135 406 1125 q 336 1146 358 1146 q 301 1128 318 1146 q 276 1074 283 1110 l 176 1074 z "},"Ä":{"ha":875,"x_min":0,"x_max":875,"o":"m 657 0 l 593 238 l 283 238 l 218 0 l 0 0 l 310 994 l 563 994 l 875 0 l 657 0 m 485 651 q 469 713 478 679 q 452 781 461 747 q 438 843 443 815 q 423 780 432 817 q 406 708 414 743 q 392 653 397 674 l 326 410 l 550 410 l 485 651 m 213 1183 q 238 1254 213 1232 q 301 1276 264 1276 q 367 1253 340 1276 q 394 1185 394 1231 q 367 1116 394 1139 q 301 1093 340 1093 q 238 1116 264 1093 q 213 1183 213 1139 m 478 1183 q 503 1254 478 1232 q 568 1276 529 1276 q 635 1253 608 1276 q 661 1185 661 1231 q 635 1116 661 1139 q 569 1093 608 1093 q 504 1116 531 1093 q 478 1183 478 1139 z "},"Å":{"ha":875,"x_min":0,"x_max":875,"o":"m 657 0 l 593 238 l 283 238 l 218 0 l 0 0 l 310 994 l 563 994 l 875 0 l 657 0 m 485 651 q 469 713 478 679 q 452 781 461 747 q 438 843 443 815 q 423 780 432 817 q 406 708 414 743 q 392 653 397 674 l 326 410 l 550 410 l 485 651 m 436 899 q 317 942 363 899 q 271 1060 271 986 q 316 1176 271 1133 q 436 1219 361 1219 q 557 1176 508 1219 q 606 1061 606 1133 q 558 943 606 988 q 436 899 510 899 m 438 996 q 483 1013 465 996 q 501 1060 501 1031 q 483 1106 501 1089 q 438 1124 465 1124 q 391 1106 410 1124 q 372 1060 372 1089 q 389 1013 372 1031 q 438 996 406 996 z "},"Æ":{"ha":1190,"x_min":-1,"x_max":1117,"o":"m 1117 0 l 579 0 l 579 238 l 299 238 l 210 0 l -1 0 l 392 992 l 1117 992 l 1117 822 l 781 822 l 781 600 l 1094 600 l 1094 431 l 781 431 l 781 171 l 1117 171 l 1117 0 m 363 410 l 579 410 l 579 818 l 514 818 l 363 410 z "},"Ç":{"ha":807,"x_min":74,"x_max":764,"o":"m 503 835 q 408 810 450 835 q 338 741 367 786 q 296 633 310 696 q 282 493 282 569 q 306 311 282 386 q 381 197 331 236 q 507 157 431 157 q 616 172 563 157 q 729 210 669 186 l 729 36 q 614 -1 672 11 q 485 -14 556 -14 q 255 48 347 -14 q 118 224 163 110 q 74 494 74 338 q 101 700 74 607 q 183 862 129 793 q 317 968 238 931 q 499 1006 396 1006 q 634 988 567 1006 q 764 939 701 971 l 700 774 q 602 817 651 799 q 503 835 553 835 m 618 -174 q 574 -291 618 -249 q 422 -333 529 -333 q 367 -330 392 -333 q 322 -321 342 -326 l 322 -210 q 366 -219 342 -215 q 410 -222 390 -222 q 449 -212 433 -222 q 464 -178 464 -201 q 439 -133 464 -151 q 357 -108 414 -115 l 408 0 l 524 0 l 504 -47 q 562 -72 536 -54 q 603 -114 588 -89 q 618 -174 618 -139 z "},"È":{"ha":710,"x_min":111,"x_max":636,"o":"m 636 0 l 111 0 l 111 992 l 636 992 l 636 824 l 314 824 l 314 600 l 614 600 l 614 431 l 314 431 l 314 171 l 636 171 l 636 0 m 372 1297 q 416 1228 390 1267 q 469 1154 442 1190 q 515 1093 496 1118 l 515 1075 l 382 1075 q 326 1120 358 1093 q 260 1178 293 1147 q 197 1236 226 1208 q 150 1283 168 1264 l 150 1297 l 372 1297 z "},"É":{"ha":710,"x_min":111,"x_max":649,"o":"m 636 0 l 111 0 l 111 992 l 636 992 l 636 824 l 314 824 l 314 600 l 614 600 l 614 431 l 314 431 l 314 171 l 636 171 l 636 0 m 649 1283 q 603 1237 632 1264 q 542 1179 575 1210 q 476 1122 508 1149 q 418 1075 443 1094 l 283 1075 l 283 1093 q 333 1159 307 1124 q 384 1231 360 1194 q 426 1297 408 1267 l 649 1297 l 649 1283 z "},"Ê":{"ha":710,"x_min":111,"x_max":644,"o":"m 636 0 l 111 0 l 111 992 l 636 992 l 636 824 l 314 824 l 314 600 l 614 600 l 614 431 l 314 431 l 314 171 l 636 171 l 636 0 m 486 1297 q 531 1230 504 1267 q 588 1158 558 1193 q 643 1093 618 1122 l 643 1075 l 517 1075 q 448 1126 485 1097 q 378 1192 411 1156 q 308 1126 344 1156 q 242 1075 272 1097 l 114 1075 l 114 1093 q 169 1156 139 1119 q 226 1230 199 1192 q 272 1297 254 1268 l 486 1297 z "},"Ë":{"ha":710,"x_min":111,"x_max":636,"o":"m 636 0 l 111 0 l 111 992 l 636 992 l 636 824 l 314 824 l 314 600 l 614 600 l 614 431 l 314 431 l 314 171 l 636 171 l 636 0 m 154 1183 q 180 1254 154 1232 q 243 1276 206 1276 q 309 1253 282 1276 q 336 1185 336 1231 q 309 1116 336 1139 q 243 1093 282 1093 q 180 1116 206 1093 q 154 1183 154 1139 m 419 1183 q 445 1254 419 1232 q 510 1276 471 1276 q 576 1253 550 1276 q 603 1185 603 1231 q 576 1116 603 1139 q 511 1093 550 1093 q 446 1116 472 1093 q 419 1183 419 1139 z "},"Ì":{"ha":508,"x_min":26,"x_max":465,"o":"m 465 0 l 43 0 l 43 114 l 153 163 l 153 829 l 43 878 l 43 992 l 465 992 l 465 878 l 356 829 l 356 163 l 465 114 l 465 0 m 249 1297 q 292 1228 267 1267 q 345 1154 318 1190 q 392 1093 372 1118 l 392 1075 l 258 1075 q 202 1120 235 1093 q 136 1178 169 1147 q 74 1236 103 1208 q 26 1283 44 1264 l 26 1297 l 249 1297 z "},"Í":{"ha":508,"x_min":43,"x_max":525,"o":"m 465 0 l 43 0 l 43 114 l 153 163 l 153 829 l 43 878 l 43 992 l 465 992 l 465 878 l 356 829 l 356 163 l 465 114 l 465 0 m 524 1283 q 478 1237 507 1264 q 417 1179 450 1210 q 351 1122 383 1149 q 293 1075 318 1094 l 158 1075 l 158 1093 q 208 1159 182 1124 q 259 1231 235 1194 q 301 1297 283 1267 l 524 1297 l 524 1283 z "},"Î":{"ha":508,"x_min":-10,"x_max":519,"o":"m 465 0 l 43 0 l 43 114 l 153 163 l 153 829 l 43 878 l 43 992 l 465 992 l 465 878 l 356 829 l 356 163 l 465 114 l 465 0 m 363 1297 q 408 1230 381 1267 q 465 1158 435 1193 q 519 1093 494 1122 l 519 1075 l 393 1075 q 324 1126 361 1097 q 254 1192 288 1156 q 185 1126 221 1156 q 118 1075 149 1097 l -10 1075 l -10 1093 q 45 1156 15 1119 q 103 1230 75 1192 q 149 1297 131 1268 l 363 1297 z "},"Ï":{"ha":508,"x_min":29,"x_max":478,"o":"m 465 0 l 43 0 l 43 114 l 153 163 l 153 829 l 43 878 l 43 992 l 465 992 l 465 878 l 356 829 l 356 163 l 465 114 l 465 0 m 31 1183 q 56 1254 31 1232 q 119 1276 82 1276 q 185 1253 158 1276 q 213 1185 213 1231 q 185 1116 213 1139 q 119 1093 158 1093 q 56 1116 82 1093 q 31 1183 31 1139 m 296 1183 q 322 1254 296 1232 q 386 1276 347 1276 q 453 1253 426 1276 q 479 1185 479 1231 q 453 1116 479 1139 q 388 1093 426 1093 q 322 1116 349 1093 q 296 1183 296 1139 z "},"Ð":{"ha":936,"x_min":25,"x_max":863,"o":"m 399 992 q 647 936 543 992 q 806 774 750 881 q 863 508 863 667 q 806 228 863 342 q 640 58 749 115 q 375 0 531 0 l 111 0 l 111 418 l 25 418 l 25 579 l 111 579 l 111 992 l 399 992 m 404 822 l 314 822 l 314 579 l 457 579 l 457 418 l 314 418 l 314 171 l 386 171 q 587 253 521 171 q 653 503 653 336 q 624 683 653 613 q 540 788 594 754 q 404 822 485 822 z "},"Ñ":{"ha":1032,"x_min":111,"x_max":921,"o":"m 921 0 l 669 0 l 289 729 l 283 729 q 290 635 288 681 q 293 547 292 590 q 296 464 294 504 l 296 0 l 111 0 l 111 992 l 361 992 l 740 274 l 744 274 q 741 363 743 319 q 738 449 739 407 q 735 529 736 490 l 735 992 l 921 992 l 921 0 m 256 1074 q 270 1158 258 1119 q 303 1224 282 1196 q 352 1267 324 1251 q 417 1282 381 1282 q 471 1272 444 1282 q 522 1247 497 1261 q 571 1222 547 1232 q 619 1211 594 1211 q 655 1230 639 1211 q 678 1283 671 1249 l 778 1283 q 726 1127 772 1179 q 617 1075 681 1075 q 563 1085 590 1075 q 510 1110 536 1096 q 461 1135 485 1125 q 415 1146 438 1146 q 380 1128 397 1146 q 356 1074 363 1110 l 256 1074 z "},"Ò":{"ha":1003,"x_min":74,"x_max":929,"o":"m 929 497 q 903 287 929 381 q 825 126 878 193 q 692 22 772 58 q 501 -14 611 -14 q 311 22 392 -14 q 178 126 231 58 q 99 288 125 193 q 74 499 74 382 q 120 771 74 657 q 262 946 167 885 q 503 1007 357 1007 q 743 944 649 1007 q 883 767 838 882 q 929 497 929 653 m 285 497 q 308 314 285 389 q 380 199 332 239 q 501 160 428 160 q 625 199 578 160 q 694 313 672 238 q 717 497 717 389 q 666 748 717 660 q 503 836 615 836 q 380 796 428 836 q 308 681 332 756 q 285 497 285 606 m 494 1297 q 538 1228 513 1267 q 591 1154 564 1190 q 638 1093 618 1118 l 638 1075 l 504 1075 q 448 1120 481 1093 q 382 1178 415 1147 q 319 1236 349 1208 q 272 1283 290 1264 l 272 1297 l 494 1297 z "},"Ó":{"ha":1003,"x_min":74,"x_max":929,"o":"m 929 497 q 903 287 929 381 q 825 126 878 193 q 692 22 772 58 q 501 -14 611 -14 q 311 22 392 -14 q 178 126 231 58 q 99 288 125 193 q 74 499 74 382 q 120 771 74 657 q 262 946 167 885 q 503 1007 357 1007 q 743 944 649 1007 q 883 767 838 882 q 929 497 929 653 m 285 497 q 308 314 285 389 q 380 199 332 239 q 501 160 428 160 q 625 199 578 160 q 694 313 672 238 q 717 497 717 389 q 666 748 717 660 q 503 836 615 836 q 380 796 428 836 q 308 681 332 756 q 285 497 285 606 m 771 1283 q 726 1237 754 1264 q 664 1179 697 1210 q 598 1122 631 1149 q 540 1075 565 1094 l 406 1075 l 406 1093 q 456 1159 429 1124 q 506 1231 482 1194 q 549 1297 531 1267 l 771 1297 l 771 1283 z "},"Ô":{"ha":1003,"x_min":74,"x_max":929,"o":"m 929 497 q 903 287 929 381 q 825 126 878 193 q 692 22 772 58 q 501 -14 611 -14 q 311 22 392 -14 q 178 126 231 58 q 99 288 125 193 q 74 499 74 382 q 120 771 74 657 q 262 946 167 885 q 503 1007 357 1007 q 743 944 649 1007 q 883 767 838 882 q 929 497 929 653 m 285 497 q 308 314 285 389 q 380 199 332 239 q 501 160 428 160 q 625 199 578 160 q 694 313 672 238 q 717 497 717 389 q 666 748 717 660 q 503 836 615 836 q 380 796 428 836 q 308 681 332 756 q 285 497 285 606 m 608 1297 q 653 1230 626 1267 q 710 1158 681 1193 q 765 1093 740 1122 l 765 1075 l 639 1075 q 570 1126 607 1097 q 500 1192 533 1156 q 431 1126 467 1156 q 364 1075 394 1097 l 236 1075 l 236 1093 q 291 1156 261 1119 q 349 1230 321 1192 q 394 1297 376 1268 l 608 1297 z "},"Õ":{"ha":1003,"x_min":74,"x_max":929,"o":"m 929 497 q 903 287 929 381 q 825 126 878 193 q 692 22 772 58 q 501 -14 611 -14 q 311 22 392 -14 q 178 126 231 58 q 99 288 125 193 q 74 499 74 382 q 120 771 74 657 q 262 946 167 885 q 503 1007 357 1007 q 743 944 649 1007 q 883 767 838 882 q 929 497 929 653 m 285 497 q 308 314 285 389 q 380 199 332 239 q 501 160 428 160 q 625 199 578 160 q 694 313 672 238 q 717 497 717 389 q 666 748 717 660 q 503 836 615 836 q 380 796 428 836 q 308 681 332 756 q 285 497 285 606 m 240 1074 q 255 1158 243 1119 q 288 1224 267 1196 q 337 1267 308 1251 q 401 1282 365 1282 q 456 1272 429 1282 q 507 1247 482 1261 q 556 1222 532 1232 q 604 1211 579 1211 q 640 1230 624 1211 q 663 1283 656 1249 l 763 1283 q 711 1127 757 1179 q 601 1075 665 1075 q 548 1085 575 1075 q 495 1110 521 1096 q 446 1135 469 1125 q 400 1146 422 1146 q 365 1128 382 1146 q 340 1074 347 1110 l 240 1074 z "},"Ö":{"ha":1003,"x_min":74,"x_max":929,"o":"m 929 497 q 903 287 929 381 q 825 126 878 193 q 692 22 772 58 q 501 -14 611 -14 q 311 22 392 -14 q 178 126 231 58 q 99 288 125 193 q 74 499 74 382 q 120 771 74 657 q 262 946 167 885 q 503 1007 357 1007 q 743 944 649 1007 q 883 767 838 882 q 929 497 929 653 m 285 497 q 308 314 285 389 q 380 199 332 239 q 501 160 428 160 q 625 199 578 160 q 694 313 672 238 q 717 497 717 389 q 666 748 717 660 q 503 836 615 836 q 380 796 428 836 q 308 681 332 756 q 285 497 285 606 m 276 1183 q 302 1254 276 1232 q 365 1276 328 1276 q 431 1253 404 1276 q 458 1185 458 1231 q 431 1116 458 1139 q 365 1093 404 1093 q 302 1116 328 1093 q 276 1183 276 1139 m 542 1183 q 567 1254 542 1232 q 632 1276 593 1276 q 699 1253 672 1276 q 725 1185 725 1231 q 699 1116 725 1139 q 633 1093 672 1093 q 568 1116 594 1093 q 542 1183 542 1139 z "},"×":{"ha":744,"x_min":74,"x_max":669,"o":"m 567 789 l 669 688 l 474 490 l 667 294 l 565 193 l 369 386 l 175 193 l 74 296 l 265 490 l 74 685 l 175 788 l 369 596 l 567 789 z "},"Ø":{"ha":1003,"x_min":74,"x_max":929,"o":"m 929 497 q 903 284 929 378 q 824 124 876 190 q 690 22 771 57 q 501 -14 610 -14 q 390 -3 442 -14 q 296 31 339 8 l 239 -65 l 135 -1 l 196 103 q 103 274 132 175 q 74 499 74 374 q 120 771 74 657 q 262 946 167 885 q 503 1007 357 1007 q 617 994 564 1007 q 714 958 671 982 l 767 1046 l 869 985 l 810 885 q 899 720 869 818 q 929 497 929 622 m 719 497 q 692 688 719 611 l 390 189 q 440 165 413 174 q 501 157 468 157 q 626 197 578 157 q 697 313 674 236 q 719 497 719 389 m 283 497 q 291 385 283 436 q 314 296 299 335 l 619 799 q 567 828 596 818 q 503 838 538 838 q 378 797 426 838 q 306 681 329 757 q 283 497 283 606 z "},"Ù":{"ha":951,"x_min":106,"x_max":846,"o":"m 846 342 q 804 155 846 235 q 680 31 763 75 q 472 -14 597 -14 q 199 81 293 -14 q 106 342 106 175 l 106 992 l 308 992 l 308 364 q 351 206 308 253 q 476 160 393 160 q 572 181 535 160 q 626 249 608 203 q 644 365 644 294 l 644 992 l 846 992 l 846 342 m 469 1297 q 513 1228 488 1267 q 566 1154 539 1190 q 613 1093 593 1118 l 613 1075 l 479 1075 q 423 1120 456 1093 q 357 1178 390 1147 q 294 1236 324 1208 q 247 1283 265 1264 l 247 1297 l 469 1297 z "},"Ú":{"ha":951,"x_min":106,"x_max":846,"o":"m 846 342 q 804 155 846 235 q 680 31 763 75 q 472 -14 597 -14 q 199 81 293 -14 q 106 342 106 175 l 106 992 l 308 992 l 308 364 q 351 206 308 253 q 476 160 393 160 q 572 181 535 160 q 626 249 608 203 q 644 365 644 294 l 644 992 l 846 992 l 846 342 m 746 1283 q 701 1237 729 1264 q 639 1179 672 1210 q 573 1122 606 1149 q 515 1075 540 1094 l 381 1075 l 381 1093 q 431 1159 404 1124 q 481 1231 457 1194 q 524 1297 506 1267 l 746 1297 l 746 1283 z "},"Û":{"ha":951,"x_min":106,"x_max":846,"o":"m 846 342 q 804 155 846 235 q 680 31 763 75 q 472 -14 597 -14 q 199 81 293 -14 q 106 342 106 175 l 106 992 l 308 992 l 308 364 q 351 206 308 253 q 476 160 393 160 q 572 181 535 160 q 626 249 608 203 q 644 365 644 294 l 644 992 l 846 992 l 846 342 m 583 1297 q 628 1230 601 1267 q 685 1158 656 1193 q 740 1093 715 1122 l 740 1075 l 614 1075 q 545 1126 582 1097 q 475 1192 508 1156 q 406 1126 442 1156 q 339 1075 369 1097 l 211 1075 l 211 1093 q 266 1156 236 1119 q 324 1230 296 1192 q 369 1297 351 1268 l 583 1297 z "},"Ü":{"ha":951,"x_min":106,"x_max":846,"o":"m 846 342 q 804 155 846 235 q 680 31 763 75 q 472 -14 597 -14 q 199 81 293 -14 q 106 342 106 175 l 106 992 l 308 992 l 308 364 q 351 206 308 253 q 476 160 393 160 q 572 181 535 160 q 626 249 608 203 q 644 365 644 294 l 644 992 l 846 992 l 846 342 m 251 1183 q 277 1254 251 1232 q 340 1276 303 1276 q 406 1253 379 1276 q 433 1185 433 1231 q 406 1116 433 1139 q 340 1093 379 1093 q 277 1116 303 1093 q 251 1183 251 1139 m 517 1183 q 542 1254 517 1232 q 607 1276 568 1276 q 674 1253 647 1276 q 700 1185 700 1231 q 674 1116 700 1139 q 608 1093 647 1093 q 543 1116 569 1093 q 517 1183 517 1139 z "},"Ý":{"ha":790,"x_min":0,"x_max":790,"o":"m 396 585 l 575 992 l 790 992 l 496 385 l 496 0 l 294 0 l 294 378 l 0 992 l 217 992 l 396 585 m 665 1283 q 620 1237 649 1264 q 558 1179 592 1210 q 492 1122 525 1149 q 435 1075 460 1094 l 300 1075 l 300 1093 q 350 1159 324 1124 q 401 1231 376 1194 q 443 1297 425 1267 l 665 1297 l 665 1283 z "},"Þ":{"ha":794,"x_min":111,"x_max":743,"o":"m 743 526 q 724 399 743 458 q 666 295 706 340 q 560 224 626 250 q 400 197 494 197 l 314 197 l 314 0 l 111 0 l 111 992 l 314 992 l 314 836 l 413 836 q 663 753 583 836 q 743 526 743 671 m 371 364 q 465 381 428 364 q 522 433 503 397 q 540 525 540 468 q 503 633 540 599 q 386 668 465 668 l 314 668 l 314 364 l 371 364 z "},"ß":{"ha":899,"x_min":97,"x_max":854,"o":"m 772 838 q 755 750 772 786 q 712 687 738 714 q 660 639 686 660 q 617 600 635 618 q 600 563 600 582 q 612 531 600 546 q 649 497 624 515 q 717 449 675 478 q 792 386 761 418 q 838 315 822 354 q 854 222 854 276 q 822 93 854 146 q 726 13 789 40 q 571 -14 664 -14 q 467 -4 514 -14 q 382 28 421 6 l 382 194 q 433 166 404 179 q 494 145 463 153 q 553 138 525 138 q 626 158 601 138 q 651 217 651 178 q 643 258 651 240 q 610 296 635 275 q 539 346 586 317 q 456 412 486 382 q 415 473 426 442 q 403 539 403 504 q 419 610 403 581 q 462 663 436 640 q 513 706 488 685 q 554 751 538 726 q 571 810 571 776 q 535 878 571 853 q 439 904 499 904 q 363 888 396 904 q 313 840 331 872 q 294 758 294 808 l 294 0 l 97 0 l 97 769 q 141 931 97 865 q 263 1029 185 996 q 440 1063 340 1063 q 611 1036 536 1063 q 729 959 686 1010 q 772 838 772 908 z "},"à":{"ha":768,"x_min":51,"x_max":674,"o":"m 390 774 q 601 707 528 774 q 674 504 674 640 l 674 0 l 533 0 l 497 103 l 493 103 q 433 36 464 63 q 362 -2 401 10 q 265 -14 322 -14 q 152 15 200 -14 q 78 97 104 43 q 51 225 51 151 q 129 404 51 346 q 360 468 207 463 l 478 472 l 478 506 q 451 594 478 565 q 372 624 424 624 q 277 609 325 624 q 179 569 229 594 l 118 707 q 245 756 175 739 q 390 774 315 774 m 407 349 q 288 315 324 346 q 253 228 253 283 q 277 157 253 179 q 342 135 301 135 q 439 175 400 135 q 478 288 478 215 l 478 351 l 407 349 m 382 1064 q 426 995 400 1033 q 478 921 451 957 q 525 860 506 885 l 525 842 l 392 842 q 335 887 368 860 q 269 944 303 914 q 207 1003 236 975 q 160 1050 178 1031 l 160 1064 l 382 1064 z "},"á":{"ha":768,"x_min":51,"x_max":674,"o":"m 390 774 q 601 707 528 774 q 674 504 674 640 l 674 0 l 533 0 l 497 103 l 493 103 q 433 36 464 63 q 362 -2 401 10 q 265 -14 322 -14 q 152 15 200 -14 q 78 97 104 43 q 51 225 51 151 q 129 404 51 346 q 360 468 207 463 l 478 472 l 478 506 q 451 594 478 565 q 372 624 424 624 q 277 609 325 624 q 179 569 229 594 l 118 707 q 245 756 175 739 q 390 774 315 774 m 407 349 q 288 315 324 346 q 253 228 253 283 q 277 157 253 179 q 342 135 301 135 q 439 175 400 135 q 478 288 478 215 l 478 351 l 407 349 m 657 1050 q 612 1003 640 1031 q 550 946 583 976 q 484 888 517 915 q 426 842 451 861 l 292 842 l 292 860 q 342 926 315 890 q 392 997 368 961 q 435 1064 417 1033 l 657 1064 l 657 1050 z "},"â":{"ha":768,"x_min":51,"x_max":674,"o":"m 390 774 q 601 707 528 774 q 674 504 674 640 l 674 0 l 533 0 l 497 103 l 493 103 q 433 36 464 63 q 362 -2 401 10 q 265 -14 322 -14 q 152 15 200 -14 q 78 97 104 43 q 51 225 51 151 q 129 404 51 346 q 360 468 207 463 l 478 472 l 478 506 q 451 594 478 565 q 372 624 424 624 q 277 609 325 624 q 179 569 229 594 l 118 707 q 245 756 175 739 q 390 774 315 774 m 407 349 q 288 315 324 346 q 253 228 253 283 q 277 157 253 179 q 342 135 301 135 q 439 175 400 135 q 478 288 478 215 l 478 351 l 407 349 m 496 1064 q 541 997 514 1033 q 598 924 568 960 q 653 860 628 889 l 653 842 l 526 842 q 458 893 494 864 q 388 958 421 922 q 318 893 354 922 q 251 842 282 864 l 124 842 l 124 860 q 178 922 149 886 q 236 997 208 958 q 282 1064 264 1035 l 496 1064 z "},"ã":{"ha":768,"x_min":51,"x_max":674,"o":"m 390 774 q 601 707 528 774 q 674 504 674 640 l 674 0 l 533 0 l 497 103 l 493 103 q 433 36 464 63 q 362 -2 401 10 q 265 -14 322 -14 q 152 15 200 -14 q 78 97 104 43 q 51 225 51 151 q 129 404 51 346 q 360 468 207 463 l 478 472 l 478 506 q 451 594 478 565 q 372 624 424 624 q 277 609 325 624 q 179 569 229 594 l 118 707 q 245 756 175 739 q 390 774 315 774 m 407 349 q 288 315 324 346 q 253 228 253 283 q 277 157 253 179 q 342 135 301 135 q 439 175 400 135 q 478 288 478 215 l 478 351 l 407 349 m 128 840 q 142 924 131 886 q 175 990 154 963 q 224 1033 196 1018 q 289 1049 253 1049 q 343 1038 317 1049 q 394 1013 369 1028 q 443 988 419 999 q 492 978 467 978 q 527 997 511 978 q 550 1050 543 1015 l 650 1050 q 599 894 644 946 q 489 842 553 842 q 435 852 463 842 q 383 877 408 863 q 333 902 357 892 q 288 913 310 913 q 252 894 269 913 q 228 840 235 876 l 128 840 z "},"ä":{"ha":768,"x_min":51,"x_max":674,"o":"m 390 774 q 601 707 528 774 q 674 504 674 640 l 674 0 l 533 0 l 497 103 l 493 103 q 433 36 464 63 q 362 -2 401 10 q 265 -14 322 -14 q 152 15 200 -14 q 78 97 104 43 q 51 225 51 151 q 129 404 51 346 q 360 468 207 463 l 478 472 l 478 506 q 451 594 478 565 q 372 624 424 624 q 277 609 325 624 q 179 569 229 594 l 118 707 q 245 756 175 739 q 390 774 315 774 m 407 349 q 288 315 324 346 q 253 228 253 283 q 277 157 253 179 q 342 135 301 135 q 439 175 400 135 q 478 288 478 215 l 478 351 l 407 349 m 164 950 q 190 1021 164 999 q 253 1043 215 1043 q 319 1020 292 1043 q 346 951 346 997 q 319 883 346 906 q 253 860 292 860 q 190 883 215 860 q 164 950 164 906 m 429 950 q 455 1021 429 999 q 519 1043 481 1043 q 586 1020 560 1043 q 613 951 613 997 q 586 883 613 906 q 521 860 560 860 q 456 883 482 860 q 429 950 429 906 z "},"å":{"ha":768,"x_min":51,"x_max":674,"o":"m 390 774 q 601 707 528 774 q 674 504 674 640 l 674 0 l 533 0 l 497 103 l 493 103 q 433 36 464 63 q 362 -2 401 10 q 265 -14 322 -14 q 152 15 200 -14 q 78 97 104 43 q 51 225 51 151 q 129 404 51 346 q 360 468 207 463 l 478 472 l 478 506 q 451 594 478 565 q 372 624 424 624 q 277 609 325 624 q 179 569 229 594 l 118 707 q 245 756 175 739 q 390 774 315 774 m 407 349 q 288 315 324 346 q 253 228 253 283 q 277 157 253 179 q 342 135 301 135 q 439 175 400 135 q 478 288 478 215 l 478 351 l 407 349 m 386 840 q 267 884 313 840 q 221 1001 221 928 q 266 1118 221 1075 q 386 1161 311 1161 q 507 1118 458 1161 q 556 1003 556 1075 q 508 885 556 929 q 386 840 460 840 m 388 938 q 433 955 415 938 q 451 1001 451 972 q 433 1048 451 1031 q 388 1065 415 1065 q 341 1048 360 1065 q 322 1001 322 1031 q 339 955 322 972 q 388 938 356 938 z "},"æ":{"ha":1161,"x_min":51,"x_max":1106,"o":"m 806 772 q 965 731 897 772 q 1069 614 1033 690 q 1106 428 1106 538 l 1106 328 l 663 328 q 709 187 665 236 q 835 138 753 138 q 953 151 897 138 q 1065 196 1008 165 l 1065 40 q 957 -1 1014 13 q 821 -14 900 -14 q 712 1 764 -14 q 619 47 660 17 q 547 124 578 78 q 474 46 511 76 q 389 1 436 15 q 275 -14 342 -14 q 158 15 208 -14 q 80 97 108 43 q 51 225 51 151 q 85 358 51 306 q 187 438 119 411 q 351 468 254 465 l 468 472 l 468 519 q 442 598 468 572 q 367 624 415 624 q 274 610 321 624 q 179 571 228 596 l 118 707 q 241 756 174 739 q 381 774 308 774 q 503 752 451 774 q 588 688 554 731 q 681 751 628 731 q 806 772 733 772 m 401 349 q 287 315 321 346 q 253 228 253 283 q 276 157 253 179 q 338 135 299 135 q 405 153 376 135 q 451 205 433 171 q 468 288 468 239 l 468 351 l 401 349 m 803 626 q 707 587 743 626 q 665 463 671 547 l 921 463 q 907 548 921 511 q 867 606 893 585 q 803 626 840 626 z "},"ç":{"ha":656,"x_min":58,"x_max":617,"o":"m 386 -14 q 207 28 281 -14 q 96 156 133 69 q 58 375 58 242 q 99 594 58 506 q 217 727 140 682 q 399 772 293 772 q 522 758 469 772 q 617 722 575 744 l 560 568 q 480 599 518 588 q 404 610 442 610 q 324 583 356 610 q 275 506 292 557 q 258 376 258 454 q 276 249 258 300 q 326 174 293 199 q 406 150 358 150 q 507 166 461 150 q 596 211 553 182 l 596 43 q 503 -1 553 13 q 386 -14 454 -14 m 531 -174 q 486 -291 531 -249 q 335 -333 442 -333 q 279 -330 304 -333 q 235 -321 254 -326 l 235 -210 q 278 -219 254 -215 q 322 -222 303 -222 q 361 -212 346 -222 q 376 -178 376 -201 q 351 -133 376 -151 q 269 -108 326 -115 l 321 0 l 436 0 l 417 -47 q 474 -72 449 -54 q 515 -114 500 -89 q 531 -174 531 -139 z "},"è":{"ha":753,"x_min":58,"x_max":699,"o":"m 386 772 q 554 731 485 772 q 661 614 624 690 q 699 428 699 538 l 699 328 l 256 328 q 303 187 258 236 q 429 138 347 138 q 547 151 493 138 q 658 196 600 165 l 658 40 q 549 -1 607 13 q 414 -14 490 -14 q 223 31 303 -14 q 101 161 143 75 q 58 374 58 247 q 98 594 58 506 q 211 727 138 682 q 386 772 285 772 m 388 626 q 299 588 333 626 q 260 463 264 549 l 514 463 q 499 548 514 511 q 458 606 485 585 q 388 626 431 626 m 372 1064 q 416 995 390 1033 q 469 921 442 957 q 515 860 496 885 l 515 842 l 382 842 q 326 887 358 860 q 260 944 293 914 q 197 1003 226 975 q 150 1050 168 1031 l 150 1064 l 372 1064 z "},"é":{"ha":753,"x_min":58,"x_max":699,"o":"m 386 772 q 554 731 485 772 q 661 614 624 690 q 699 428 699 538 l 699 328 l 256 328 q 303 187 258 236 q 429 138 347 138 q 547 151 493 138 q 658 196 600 165 l 658 40 q 549 -1 607 13 q 414 -14 490 -14 q 223 31 303 -14 q 101 161 143 75 q 58 374 58 247 q 98 594 58 506 q 211 727 138 682 q 386 772 285 772 m 388 626 q 299 588 333 626 q 260 463 264 549 l 514 463 q 499 548 514 511 q 458 606 485 585 q 388 626 431 626 m 649 1050 q 603 1003 632 1031 q 542 946 575 976 q 476 888 508 915 q 418 842 443 861 l 283 842 l 283 860 q 333 926 307 890 q 384 997 360 961 q 426 1064 408 1033 l 649 1064 l 649 1050 z "},"ê":{"ha":753,"x_min":58,"x_max":699,"o":"m 386 772 q 554 731 485 772 q 661 614 624 690 q 699 428 699 538 l 699 328 l 256 328 q 303 187 258 236 q 429 138 347 138 q 547 151 493 138 q 658 196 600 165 l 658 40 q 549 -1 607 13 q 414 -14 490 -14 q 223 31 303 -14 q 101 161 143 75 q 58 374 58 247 q 98 594 58 506 q 211 727 138 682 q 386 772 285 772 m 388 626 q 299 588 333 626 q 260 463 264 549 l 514 463 q 499 548 514 511 q 458 606 485 585 q 388 626 431 626 m 486 1064 q 531 997 504 1033 q 588 924 558 960 q 643 860 618 889 l 643 842 l 517 842 q 448 893 485 864 q 378 958 411 922 q 308 893 344 922 q 242 842 272 864 l 114 842 l 114 860 q 169 922 139 886 q 226 997 199 958 q 272 1064 254 1035 l 486 1064 z "},"ë":{"ha":753,"x_min":58,"x_max":699,"o":"m 386 772 q 554 731 485 772 q 661 614 624 690 q 699 428 699 538 l 699 328 l 256 328 q 303 187 258 236 q 429 138 347 138 q 547 151 493 138 q 658 196 600 165 l 658 40 q 549 -1 607 13 q 414 -14 490 -14 q 223 31 303 -14 q 101 161 143 75 q 58 374 58 247 q 98 594 58 506 q 211 727 138 682 q 386 772 285 772 m 388 626 q 299 588 333 626 q 260 463 264 549 l 514 463 q 499 548 514 511 q 458 606 485 585 q 388 626 431 626 m 154 950 q 180 1021 154 999 q 243 1043 206 1043 q 309 1020 282 1043 q 336 951 336 997 q 309 883 336 906 q 243 860 282 860 q 180 883 206 860 q 154 950 154 906 m 419 950 q 445 1021 419 999 q 510 1043 471 1043 q 576 1020 550 1043 q 603 951 603 997 q 576 883 603 906 q 511 860 550 860 q 446 883 472 860 q 419 950 419 906 z "},"ì":{"ha":393,"x_min":-32,"x_max":333,"o":"m 294 0 l 97 0 l 97 758 l 294 758 l 294 0 m 190 1064 q 234 995 208 1033 q 287 921 260 957 q 333 860 314 885 l 333 842 l 200 842 q 144 887 176 860 q 78 944 111 914 q 15 1003 44 975 q -32 1050 -14 1031 l -32 1064 l 190 1064 z "},"í":{"ha":393,"x_min":97,"x_max":467,"o":"m 294 0 l 97 0 l 97 758 l 294 758 l 294 0 m 465 1050 q 420 1003 449 1031 q 358 946 392 976 q 292 888 325 915 q 235 842 260 861 l 100 842 l 100 860 q 150 926 124 890 q 201 997 176 961 q 243 1064 225 1033 l 465 1064 l 465 1050 z "},"î":{"ha":393,"x_min":-68,"x_max":461,"o":"m 294 0 l 97 0 l 97 758 l 294 758 l 294 0 m 304 1064 q 349 997 322 1033 q 406 924 376 960 q 461 860 436 889 l 461 842 l 335 842 q 266 893 303 864 q 196 958 229 922 q 126 893 163 922 q 60 842 90 864 l -68 842 l -68 860 q -13 922 -43 886 q 44 997 17 958 q 90 1064 72 1035 l 304 1064 z "},"ï":{"ha":393,"x_min":-29,"x_max":419,"o":"m 294 0 l 97 0 l 97 758 l 294 758 l 294 0 m -28 950 q -2 1021 -28 999 q 61 1043 24 1043 q 127 1020 100 1043 q 154 951 154 997 q 127 883 154 906 q 61 860 100 860 q -2 883 24 860 q -28 950 -28 906 m 238 950 q 263 1021 238 999 q 328 1043 289 1043 q 394 1020 368 1043 q 421 951 421 997 q 394 883 421 906 q 329 860 368 860 q 264 883 290 860 q 238 950 238 906 z "},"ð":{"ha":793,"x_min":58,"x_max":736,"o":"m 293 1063 q 372 1022 333 1044 q 444 975 410 1000 l 578 1063 l 646 964 l 540 896 q 647 758 604 833 q 713 591 690 683 q 736 383 736 499 q 695 169 736 258 q 578 33 654 79 q 394 -14 501 -14 q 219 28 296 -14 q 101 148 143 69 q 58 332 58 226 q 97 518 58 442 q 204 635 136 594 q 360 675 272 675 q 426 669 397 675 q 478 651 456 664 q 514 621 500 639 l 519 624 q 474 719 501 675 q 406 804 446 763 l 275 718 l 207 817 l 315 888 q 269 919 293 903 q 221 950 246 935 l 293 1063 m 397 522 q 318 501 349 522 q 273 437 288 479 q 258 331 258 394 q 273 231 258 274 q 318 163 288 188 q 397 139 349 139 q 503 192 471 139 q 535 351 535 246 q 526 419 535 388 q 501 473 518 450 q 459 509 485 496 q 397 522 433 522 z "},"ñ":{"ha":833,"x_min":97,"x_max":739,"o":"m 494 772 q 674 706 608 772 q 739 497 739 639 l 739 0 l 542 0 l 542 446 q 517 567 542 526 q 436 608 493 608 q 325 547 356 608 q 294 360 294 486 l 294 0 l 97 0 l 97 758 l 250 758 l 275 661 l 286 661 q 340 724 308 700 q 412 760 372 749 q 494 772 451 772 m 161 840 q 176 924 164 886 q 208 990 188 963 q 258 1033 229 1018 q 322 1049 286 1049 q 376 1038 350 1049 q 428 1013 403 1028 q 476 988 453 999 q 525 978 500 978 q 560 997 544 978 q 583 1050 576 1015 l 683 1050 q 632 894 678 946 q 522 842 586 842 q 469 852 496 842 q 416 877 442 863 q 367 902 390 892 q 321 913 343 913 q 285 894 303 913 q 261 840 268 876 l 161 840 z "},"ò":{"ha":793,"x_min":58,"x_max":735,"o":"m 735 381 q 713 219 735 292 q 648 94 690 147 q 542 14 606 42 q 396 -14 478 -14 q 256 14 318 -14 q 149 94 193 42 q 82 219 106 146 q 58 382 58 292 q 97 590 58 503 q 213 725 136 678 q 399 772 289 772 q 574 727 499 772 q 692 594 650 682 q 735 381 735 507 m 258 379 q 273 252 258 304 q 318 174 288 200 q 397 147 349 147 q 476 174 446 147 q 519 252 506 200 q 533 381 533 304 q 519 509 533 458 q 475 585 506 560 q 396 611 444 611 q 291 554 324 611 q 258 379 258 497 m 390 1064 q 434 995 408 1033 q 487 921 460 957 q 533 860 514 885 l 533 842 l 400 842 q 344 887 376 860 q 278 944 311 914 q 215 1003 244 975 q 168 1050 186 1031 l 168 1064 l 390 1064 z "},"ó":{"ha":793,"x_min":58,"x_max":735,"o":"m 735 381 q 713 219 735 292 q 648 94 690 147 q 542 14 606 42 q 396 -14 478 -14 q 256 14 318 -14 q 149 94 193 42 q 82 219 106 146 q 58 382 58 292 q 97 590 58 503 q 213 725 136 678 q 399 772 289 772 q 574 727 499 772 q 692 594 650 682 q 735 381 735 507 m 258 379 q 273 252 258 304 q 318 174 288 200 q 397 147 349 147 q 476 174 446 147 q 519 252 506 200 q 533 381 533 304 q 519 509 533 458 q 475 585 506 560 q 396 611 444 611 q 291 554 324 611 q 258 379 258 497 m 667 1050 q 622 1003 650 1031 q 560 946 593 976 q 494 888 526 915 q 436 842 461 861 l 301 842 l 301 860 q 351 926 325 890 q 402 997 378 961 q 444 1064 426 1033 l 667 1064 l 667 1050 z "},"ô":{"ha":793,"x_min":58,"x_max":735,"o":"m 735 381 q 713 219 735 292 q 648 94 690 147 q 542 14 606 42 q 396 -14 478 -14 q 256 14 318 -14 q 149 94 193 42 q 82 219 106 146 q 58 382 58 292 q 97 590 58 503 q 213 725 136 678 q 399 772 289 772 q 574 727 499 772 q 692 594 650 682 q 735 381 735 507 m 258 379 q 273 252 258 304 q 318 174 288 200 q 397 147 349 147 q 476 174 446 147 q 519 252 506 200 q 533 381 533 304 q 519 509 533 458 q 475 585 506 560 q 396 611 444 611 q 291 554 324 611 q 258 379 258 497 m 504 1064 q 549 997 522 1033 q 606 924 576 960 q 661 860 636 889 l 661 842 l 535 842 q 466 893 503 864 q 396 958 429 922 q 326 893 363 922 q 260 842 290 864 l 132 842 l 132 860 q 187 922 157 886 q 244 997 217 958 q 290 1064 272 1035 l 504 1064 z "},"õ":{"ha":793,"x_min":58,"x_max":735,"o":"m 735 381 q 713 219 735 292 q 648 94 690 147 q 542 14 606 42 q 396 -14 478 -14 q 256 14 318 -14 q 149 94 193 42 q 82 219 106 146 q 58 382 58 292 q 97 590 58 503 q 213 725 136 678 q 399 772 289 772 q 574 727 499 772 q 692 594 650 682 q 735 381 735 507 m 258 379 q 273 252 258 304 q 318 174 288 200 q 397 147 349 147 q 476 174 446 147 q 519 252 506 200 q 533 381 533 304 q 519 509 533 458 q 475 585 506 560 q 396 611 444 611 q 291 554 324 611 q 258 379 258 497 m 136 840 q 151 924 139 886 q 183 990 163 963 q 233 1033 204 1018 q 297 1049 261 1049 q 351 1038 325 1049 q 403 1013 378 1028 q 451 988 428 999 q 500 978 475 978 q 535 997 519 978 q 558 1050 551 1015 l 658 1050 q 607 894 653 946 q 497 842 561 842 q 444 852 471 842 q 391 877 417 863 q 342 902 365 892 q 296 913 318 913 q 260 894 278 913 q 236 840 243 876 l 136 840 z "},"ö":{"ha":793,"x_min":58,"x_max":735,"o":"m 735 381 q 713 219 735 292 q 648 94 690 147 q 542 14 606 42 q 396 -14 478 -14 q 256 14 318 -14 q 149 94 193 42 q 82 219 106 146 q 58 382 58 292 q 97 590 58 503 q 213 725 136 678 q 399 772 289 772 q 574 727 499 772 q 692 594 650 682 q 735 381 735 507 m 258 379 q 273 252 258 304 q 318 174 288 200 q 397 147 349 147 q 476 174 446 147 q 519 252 506 200 q 533 381 533 304 q 519 509 533 458 q 475 585 506 560 q 396 611 444 611 q 291 554 324 611 q 258 379 258 497 m 172 950 q 198 1021 172 999 q 261 1043 224 1043 q 327 1020 300 1043 q 354 951 354 997 q 327 883 354 906 q 261 860 300 860 q 198 883 224 860 q 172 950 172 906 m 438 950 q 463 1021 438 999 q 528 1043 489 1043 q 594 1020 568 1043 q 621 951 621 997 q 594 883 621 906 q 529 860 568 860 q 464 883 490 860 q 438 950 438 906 z "},"÷":{"ha":744,"x_min":54,"x_max":689,"o":"m 54 415 l 54 564 l 689 564 l 689 415 l 54 415 m 371 139 q 303 165 331 139 q 276 243 276 190 q 303 323 276 299 q 371 347 329 347 q 438 323 411 347 q 465 243 465 299 q 438 165 465 190 q 371 139 411 139 m 371 632 q 303 658 331 632 q 276 736 276 683 q 303 816 276 792 q 371 840 329 840 q 438 816 411 840 q 465 736 465 792 q 438 658 465 683 q 371 632 411 632 z "},"ø":{"ha":793,"x_min":58,"x_max":735,"o":"m 735 381 q 694 167 735 256 q 577 33 653 79 q 394 -14 501 -14 q 319 -6 354 -14 q 250 17 283 3 l 203 -64 l 103 -3 l 154 85 q 83 213 107 140 q 58 381 58 286 q 149 671 58 569 q 399 772 239 772 q 478 764 440 772 q 550 738 517 756 l 590 804 l 688 742 l 644 667 q 711 544 688 617 q 735 381 735 472 m 256 381 q 258 318 256 346 q 267 267 261 290 l 465 594 q 435 609 453 604 q 396 614 417 614 q 289 556 322 614 q 256 381 256 497 m 538 381 q 535 435 538 410 q 529 482 533 460 l 335 160 q 363 148 347 151 q 396 144 378 144 q 478 171 447 144 q 523 250 508 197 q 538 381 538 303 z "},"ù":{"ha":833,"x_min":94,"x_max":736,"o":"m 736 758 l 736 0 l 583 0 l 558 97 l 547 97 q 494 35 526 60 q 423 -2 463 10 q 339 -14 383 -14 q 208 17 263 -14 q 124 109 153 47 q 94 264 94 171 l 94 758 l 292 758 l 292 317 q 316 192 292 235 q 396 150 340 150 q 483 178 453 150 q 526 260 514 206 q 539 392 539 314 l 539 758 l 736 758 m 411 1064 q 455 995 429 1033 q 508 921 481 957 q 554 860 535 885 l 554 842 l 421 842 q 365 887 397 860 q 299 944 332 914 q 236 1003 265 975 q 189 1050 207 1031 l 189 1064 l 411 1064 z "},"ú":{"ha":833,"x_min":94,"x_max":736,"o":"m 736 758 l 736 0 l 583 0 l 558 97 l 547 97 q 494 35 526 60 q 423 -2 463 10 q 339 -14 383 -14 q 208 17 263 -14 q 124 109 153 47 q 94 264 94 171 l 94 758 l 292 758 l 292 317 q 316 192 292 235 q 396 150 340 150 q 483 178 453 150 q 526 260 514 206 q 539 392 539 314 l 539 758 l 736 758 m 688 1050 q 642 1003 671 1031 q 581 946 614 976 q 515 888 547 915 q 457 842 482 861 l 322 842 l 322 860 q 372 926 346 890 q 423 997 399 961 q 465 1064 447 1033 l 688 1064 l 688 1050 z "},"û":{"ha":833,"x_min":94,"x_max":736,"o":"m 736 758 l 736 0 l 583 0 l 558 97 l 547 97 q 494 35 526 60 q 423 -2 463 10 q 339 -14 383 -14 q 208 17 263 -14 q 124 109 153 47 q 94 264 94 171 l 94 758 l 292 758 l 292 317 q 316 192 292 235 q 396 150 340 150 q 483 178 453 150 q 526 260 514 206 q 539 392 539 314 l 539 758 l 736 758 m 525 1064 q 570 997 543 1033 q 627 924 597 960 q 682 860 657 889 l 682 842 l 556 842 q 487 893 524 864 q 417 958 450 922 q 347 893 383 922 q 281 842 311 864 l 153 842 l 153 860 q 208 922 178 886 q 265 997 238 958 q 311 1064 293 1035 l 525 1064 z "},"ü":{"ha":833,"x_min":94,"x_max":736,"o":"m 736 758 l 736 0 l 583 0 l 558 97 l 547 97 q 494 35 526 60 q 423 -2 463 10 q 339 -14 383 -14 q 208 17 263 -14 q 124 109 153 47 q 94 264 94 171 l 94 758 l 292 758 l 292 317 q 316 192 292 235 q 396 150 340 150 q 483 178 453 150 q 526 260 514 206 q 539 392 539 314 l 539 758 l 736 758 m 193 950 q 219 1021 193 999 q 282 1043 244 1043 q 348 1020 321 1043 q 375 951 375 997 q 348 883 375 906 q 282 860 321 860 q 219 883 244 860 q 193 950 193 906 m 458 950 q 484 1021 458 999 q 549 1043 510 1043 q 615 1020 589 1043 q 642 951 642 997 q 615 883 642 906 q 550 860 589 860 q 485 883 511 860 q 458 950 458 906 z "},"ý":{"ha":726,"x_min":1,"x_max":725,"o":"m 1 758 l 214 758 l 338 354 q 349 309 344 332 q 358 263 354 286 q 363 217 361 240 l 368 217 q 378 284 371 250 q 396 353 386 318 l 515 758 l 725 758 l 439 -89 q 369 -226 411 -172 q 272 -307 328 -281 q 147 -333 215 -333 q 92 -330 117 -333 q 49 -322 68 -326 l 49 -160 q 83 -165 64 -162 q 121 -168 101 -168 q 184 -153 158 -168 q 228 -107 210 -137 q 260 -33 247 -76 l 272 7 l 1 758 m 633 1050 q 588 1003 617 1031 q 526 946 560 976 q 460 888 493 915 q 403 842 428 861 l 268 842 l 268 860 q 318 926 292 890 q 369 997 344 961 q 411 1064 393 1033 l 633 1064 l 633 1050 z "},"þ":{"ha":811,"x_min":97,"x_max":754,"o":"m 754 379 q 722 165 754 253 q 630 31 689 76 q 493 -14 571 -14 q 408 -1 446 -14 q 342 34 371 11 q 294 86 314 57 l 286 86 q 291 46 289 67 q 294 6 293 25 q 294 -28 294 -12 l 294 -333 l 97 -333 l 97 1056 l 294 1056 l 294 793 q 292 723 294 760 q 286 660 289 686 l 294 660 q 343 722 315 696 q 408 760 371 747 q 490 772 444 772 q 683 672 611 772 q 754 379 754 572 m 553 381 q 522 555 553 497 q 428 613 492 613 q 326 561 356 613 q 294 403 296 510 l 294 375 q 324 207 294 264 q 429 150 354 150 q 499 178 472 150 q 540 257 526 206 q 553 381 553 308 z "},"ÿ":{"ha":726,"x_min":1,"x_max":725,"o":"m 1 758 l 214 758 l 338 354 q 349 309 344 332 q 358 263 354 286 q 363 217 361 240 l 368 217 q 378 284 371 250 q 396 353 386 318 l 515 758 l 725 758 l 439 -89 q 369 -226 411 -172 q 272 -307 328 -281 q 147 -333 215 -333 q 92 -330 117 -333 q 49 -322 68 -326 l 49 -160 q 83 -165 64 -162 q 121 -168 101 -168 q 184 -153 158 -168 q 228 -107 210 -137 q 260 -33 247 -76 l 272 7 l 1 758 m 139 950 q 165 1021 139 999 q 228 1043 190 1043 q 294 1020 267 1043 q 321 951 321 997 q 294 883 321 906 q 228 860 267 860 q 165 883 190 860 q 139 950 139 906 m 404 950 q 430 1021 404 999 q 494 1043 456 1043 q 561 1020 535 1043 q 588 951 588 997 q 561 883 588 906 q 496 860 535 860 q 431 883 457 860 q 404 950 404 906 z "},"Ā":{"ha":875,"x_min":0,"x_max":875,"o":"m 657 0 l 593 238 l 283 238 l 218 0 l 0 0 l 310 994 l 563 994 l 875 0 l 657 0 m 485 651 q 469 713 478 679 q 452 781 461 747 q 438 843 443 815 q 423 780 432 817 q 406 708 414 743 q 392 653 397 674 l 326 410 l 550 410 l 485 651 m 653 1219 l 653 1081 l 221 1081 l 221 1219 l 653 1219 z "},"ā":{"ha":768,"x_min":51,"x_max":674,"o":"m 390 774 q 601 707 528 774 q 674 504 674 640 l 674 0 l 533 0 l 497 103 l 493 103 q 433 36 464 63 q 362 -2 401 10 q 265 -14 322 -14 q 152 15 200 -14 q 78 97 104 43 q 51 225 51 151 q 129 404 51 346 q 360 468 207 463 l 478 472 l 478 506 q 451 594 478 565 q 372 624 424 624 q 277 609 325 624 q 179 569 229 594 l 118 707 q 245 756 175 739 q 390 774 315 774 m 407 349 q 288 315 324 346 q 253 228 253 283 q 277 157 253 179 q 342 135 301 135 q 439 175 400 135 q 478 288 478 215 l 478 351 l 407 349 m 604 986 l 604 847 l 172 847 l 172 986 l 604 986 z "},"Ă":{"ha":875,"x_min":0,"x_max":875,"o":"m 657 0 l 593 238 l 283 238 l 218 0 l 0 0 l 310 994 l 563 994 l 875 0 l 657 0 m 485 651 q 469 713 478 679 q 452 781 461 747 q 438 843 443 815 q 423 780 432 817 q 406 708 414 743 q 392 653 397 674 l 326 410 l 550 410 l 485 651 m 679 1303 q 644 1184 676 1236 q 559 1103 613 1132 q 435 1075 506 1075 q 263 1135 326 1075 q 194 1303 199 1196 l 308 1303 q 328 1247 311 1267 q 373 1221 344 1228 q 436 1214 401 1214 q 495 1222 467 1214 q 542 1249 524 1229 q 565 1303 561 1268 l 679 1303 z "},"ă":{"ha":768,"x_min":51,"x_max":674,"o":"m 390 774 q 601 707 528 774 q 674 504 674 640 l 674 0 l 533 0 l 497 103 l 493 103 q 433 36 464 63 q 362 -2 401 10 q 265 -14 322 -14 q 152 15 200 -14 q 78 97 104 43 q 51 225 51 151 q 129 404 51 346 q 360 468 207 463 l 478 472 l 478 506 q 451 594 478 565 q 372 624 424 624 q 277 609 325 624 q 179 569 229 594 l 118 707 q 245 756 175 739 q 390 774 315 774 m 407 349 q 288 315 324 346 q 253 228 253 283 q 277 157 253 179 q 342 135 301 135 q 439 175 400 135 q 478 288 478 215 l 478 351 l 407 349 m 631 1069 q 596 951 628 1003 q 510 870 564 899 q 386 842 457 842 q 214 902 278 842 q 146 1069 150 963 l 260 1069 q 279 1014 263 1033 q 324 988 296 994 q 388 981 353 981 q 447 988 418 981 q 494 1015 475 996 q 517 1069 513 1035 l 631 1069 z "},"Ą":{"ha":875,"x_min":0,"x_max":875,"o":"m 657 0 l 593 238 l 283 238 l 218 0 l 0 0 l 310 994 l 563 994 l 875 0 l 657 0 m 485 651 q 469 713 478 679 q 452 781 461 747 q 438 843 443 815 q 423 780 432 817 q 406 708 414 743 q 392 653 397 674 l 326 410 l 550 410 l 485 651 m 717 -150 q 732 -192 717 -176 q 772 -207 747 -207 q 810 -203 793 -207 q 840 -194 828 -200 l 840 -314 q 797 -325 821 -319 q 740 -331 772 -331 q 619 -289 663 -331 q 575 -179 575 -247 q 593 -105 575 -142 q 642 -36 611 -68 q 715 22 674 -4 l 808 0 q 739 -80 761 -46 q 717 -150 717 -114 z "},"ą":{"ha":768,"x_min":51,"x_max":689,"o":"m 390 774 q 601 707 528 774 q 674 504 674 640 l 674 0 l 533 0 l 497 103 l 493 103 q 433 36 464 63 q 362 -2 401 10 q 265 -14 322 -14 q 152 15 200 -14 q 78 97 104 43 q 51 225 51 151 q 129 404 51 346 q 360 468 207 463 l 478 472 l 478 506 q 451 594 478 565 q 372 624 424 624 q 277 609 325 624 q 179 569 229 594 l 118 707 q 245 756 175 739 q 390 774 315 774 m 407 349 q 288 315 324 346 q 253 228 253 283 q 277 157 253 179 q 342 135 301 135 q 439 175 400 135 q 478 288 478 215 l 478 351 l 407 349 m 565 -150 q 581 -192 565 -176 q 621 -207 596 -207 q 659 -203 642 -207 q 689 -194 676 -200 l 689 -314 q 645 -325 669 -319 q 589 -331 621 -331 q 467 -289 511 -331 q 424 -179 424 -247 q 442 -105 424 -142 q 491 -36 460 -68 q 564 22 522 -4 l 657 0 q 588 -80 610 -46 q 565 -150 565 -114 z "},"Ć":{"ha":807,"x_min":74,"x_max":764,"o":"m 503 835 q 408 810 450 835 q 338 741 367 786 q 296 633 310 696 q 282 493 282 569 q 306 311 282 386 q 381 197 331 236 q 507 157 431 157 q 616 172 563 157 q 729 210 669 186 l 729 36 q 614 -1 672 11 q 485 -14 556 -14 q 255 48 347 -14 q 118 224 163 110 q 74 494 74 338 q 101 700 74 607 q 183 862 129 793 q 317 968 238 931 q 499 1006 396 1006 q 634 988 567 1006 q 764 939 701 971 l 700 774 q 602 817 651 799 q 503 835 553 835 m 747 1283 q 702 1237 731 1264 q 640 1179 674 1210 q 574 1122 607 1149 q 517 1075 542 1094 l 382 1075 l 382 1093 q 432 1159 406 1124 q 483 1231 458 1194 q 525 1297 507 1267 l 747 1297 l 747 1283 z "},"ć":{"ha":656,"x_min":58,"x_max":640,"o":"m 386 -14 q 207 28 281 -14 q 96 156 133 69 q 58 375 58 242 q 99 594 58 506 q 217 727 140 682 q 399 772 293 772 q 522 758 469 772 q 617 722 575 744 l 560 568 q 480 599 518 588 q 404 610 442 610 q 324 583 356 610 q 275 506 292 557 q 258 376 258 454 q 276 249 258 300 q 326 174 293 199 q 406 150 358 150 q 507 166 461 150 q 596 211 553 182 l 596 43 q 503 -1 553 13 q 386 -14 454 -14 m 640 1050 q 595 1003 624 1031 q 533 946 567 976 q 467 888 500 915 q 410 842 435 861 l 275 842 l 275 860 q 325 926 299 890 q 376 997 351 961 q 418 1064 400 1033 l 640 1064 l 640 1050 z "},"Ĉ":{"ha":807,"x_min":74,"x_max":764,"o":"m 503 835 q 408 810 450 835 q 338 741 367 786 q 296 633 310 696 q 282 493 282 569 q 306 311 282 386 q 381 197 331 236 q 507 157 431 157 q 616 172 563 157 q 729 210 669 186 l 729 36 q 614 -1 672 11 q 485 -14 556 -14 q 255 48 347 -14 q 118 224 163 110 q 74 494 74 338 q 101 700 74 607 q 183 862 129 793 q 317 968 238 931 q 499 1006 396 1006 q 634 988 567 1006 q 764 939 701 971 l 700 774 q 602 817 651 799 q 503 835 553 835 m 585 1297 q 630 1230 603 1267 q 687 1158 657 1193 q 742 1093 717 1122 l 742 1075 l 615 1075 q 547 1126 583 1097 q 476 1192 510 1156 q 407 1126 443 1156 q 340 1075 371 1097 l 213 1075 l 213 1093 q 267 1156 238 1119 q 325 1230 297 1192 q 371 1297 353 1268 l 585 1297 z "},"ĉ":{"ha":656,"x_min":58,"x_max":636,"o":"m 386 -14 q 207 28 281 -14 q 96 156 133 69 q 58 375 58 242 q 99 594 58 506 q 217 727 140 682 q 399 772 293 772 q 522 758 469 772 q 617 722 575 744 l 560 568 q 480 599 518 588 q 404 610 442 610 q 324 583 356 610 q 275 506 292 557 q 258 376 258 454 q 276 249 258 300 q 326 174 293 199 q 406 150 358 150 q 507 166 461 150 q 596 211 553 182 l 596 43 q 503 -1 553 13 q 386 -14 454 -14 m 478 1064 q 523 997 496 1033 q 580 924 550 960 q 635 860 610 889 l 635 842 l 508 842 q 440 893 476 864 q 369 958 403 922 q 300 893 336 922 q 233 842 264 864 l 106 842 l 106 860 q 160 922 131 886 q 218 997 190 958 q 264 1064 246 1035 l 478 1064 z "},"Ċ":{"ha":807,"x_min":74,"x_max":764,"o":"m 503 835 q 408 810 450 835 q 338 741 367 786 q 296 633 310 696 q 282 493 282 569 q 306 311 282 386 q 381 197 331 236 q 507 157 431 157 q 616 172 563 157 q 729 210 669 186 l 729 36 q 614 -1 672 11 q 485 -14 556 -14 q 255 48 347 -14 q 118 224 163 110 q 74 494 74 338 q 101 700 74 607 q 183 862 129 793 q 317 968 238 931 q 499 1006 396 1006 q 634 988 567 1006 q 764 939 701 971 l 700 774 q 602 817 651 799 q 503 835 553 835 m 483 1290 q 562 1267 532 1290 q 592 1188 592 1243 q 561 1110 592 1133 q 483 1086 531 1086 q 406 1110 436 1086 q 376 1188 376 1133 q 406 1267 376 1244 q 483 1290 435 1290 z "},"ċ":{"ha":656,"x_min":58,"x_max":617,"o":"m 386 -14 q 207 28 281 -14 q 96 156 133 69 q 58 375 58 242 q 99 594 58 506 q 217 727 140 682 q 399 772 293 772 q 522 758 469 772 q 617 722 575 744 l 560 568 q 480 599 518 588 q 404 610 442 610 q 324 583 356 610 q 275 506 292 557 q 258 376 258 454 q 276 249 258 300 q 326 174 293 199 q 406 150 358 150 q 507 166 461 150 q 596 211 553 182 l 596 43 q 503 -1 553 13 q 386 -14 454 -14 m 376 1057 q 455 1033 425 1057 q 485 954 485 1010 q 454 876 485 900 q 376 853 424 853 q 299 876 329 853 q 269 954 269 900 q 299 1034 269 1011 q 376 1057 328 1057 z "},"Č":{"ha":807,"x_min":74,"x_max":764,"o":"m 503 835 q 408 810 450 835 q 338 741 367 786 q 296 633 310 696 q 282 493 282 569 q 306 311 282 386 q 381 197 331 236 q 507 157 431 157 q 616 172 563 157 q 729 210 669 186 l 729 36 q 614 -1 672 11 q 485 -14 556 -14 q 255 48 347 -14 q 118 224 163 110 q 74 494 74 338 q 101 700 74 607 q 183 862 129 793 q 317 968 238 931 q 499 1006 396 1006 q 634 988 567 1006 q 764 939 701 971 l 700 774 q 602 817 651 799 q 503 835 553 835 m 371 1075 q 325 1143 353 1106 q 267 1217 297 1181 q 213 1279 238 1254 l 213 1297 l 340 1297 q 407 1246 371 1275 q 476 1181 443 1217 q 547 1247 511 1218 q 615 1297 583 1275 l 742 1297 l 742 1279 q 689 1217 719 1254 q 631 1143 658 1181 q 585 1075 603 1106 l 371 1075 z "},"č":{"ha":656,"x_min":58,"x_max":636,"o":"m 386 -14 q 207 28 281 -14 q 96 156 133 69 q 58 375 58 242 q 99 594 58 506 q 217 727 140 682 q 399 772 293 772 q 522 758 469 772 q 617 722 575 744 l 560 568 q 480 599 518 588 q 404 610 442 610 q 324 583 356 610 q 275 506 292 557 q 258 376 258 454 q 276 249 258 300 q 326 174 293 199 q 406 150 358 150 q 507 166 461 150 q 596 211 553 182 l 596 43 q 503 -1 553 13 q 386 -14 454 -14 m 264 842 q 218 910 246 872 q 160 984 190 947 q 106 1046 131 1021 l 106 1064 l 233 1064 q 300 1013 264 1042 q 369 947 336 983 q 440 1013 404 985 q 508 1064 476 1042 l 635 1064 l 635 1046 q 582 984 613 1021 q 524 910 551 947 q 478 842 496 872 l 264 842 z "},"Ď":{"ha":936,"x_min":111,"x_max":863,"o":"m 863 508 q 806 228 863 342 q 640 58 749 115 q 375 0 531 0 l 111 0 l 111 992 l 400 992 q 647 936 543 992 q 806 774 750 881 q 863 508 863 667 m 653 501 q 625 683 653 613 q 542 788 597 754 q 406 822 486 822 l 314 822 l 314 171 l 388 171 q 588 253 522 171 q 653 501 653 336 m 360 1075 q 314 1143 342 1106 q 256 1217 286 1181 q 201 1279 226 1254 l 201 1297 l 329 1297 q 396 1246 360 1275 q 465 1181 432 1217 q 536 1247 500 1218 q 604 1297 572 1275 l 731 1297 l 731 1279 q 678 1217 708 1254 q 619 1143 647 1181 q 574 1075 592 1106 l 360 1075 z "},"ď":{"ha":811,"x_min":58,"x_max":985,"o":"m 985 1042 q 956 974 972 1010 q 922 903 940 939 q 882 833 903 868 l 763 833 l 763 851 q 772 897 767 871 q 783 951 778 922 q 792 1007 788 979 q 799 1056 796 1035 l 985 1056 l 985 1042 m 322 -14 q 130 88 201 -14 q 58 379 58 189 q 131 672 58 571 q 324 772 203 772 q 408 759 371 772 q 474 721 446 746 q 522 661 501 696 l 529 661 q 521 730 525 692 q 517 806 517 768 l 517 1056 l 714 1056 l 714 0 l 561 0 l 526 93 l 517 93 q 469 37 497 61 q 406 -1 442 13 q 322 -14 371 -14 m 388 146 q 493 197 461 146 q 526 356 525 249 l 526 385 q 495 553 526 497 q 386 608 464 608 q 292 549 325 608 q 258 378 258 490 q 292 204 258 263 q 388 146 325 146 z "},"Đ":{"ha":936,"x_min":25,"x_max":863,"o":"m 399 992 q 647 936 543 992 q 806 774 750 881 q 863 508 863 667 q 806 228 863 342 q 640 58 749 115 q 375 0 531 0 l 111 0 l 111 418 l 25 418 l 25 579 l 111 579 l 111 992 l 399 992 m 404 822 l 314 822 l 314 579 l 457 579 l 457 418 l 314 418 l 314 171 l 386 171 q 587 253 521 171 q 653 503 653 336 q 624 683 653 613 q 540 788 594 754 q 404 822 485 822 z "},"đ":{"ha":825,"x_min":58,"x_max":811,"o":"m 322 -14 q 130 83 201 -14 q 58 363 58 181 q 131 641 58 544 q 324 738 203 738 q 408 724 371 738 q 474 686 446 711 q 522 626 501 661 l 529 626 q 521 702 525 661 q 517 774 517 743 l 517 813 l 335 813 l 335 946 l 517 946 l 517 1056 l 714 1056 l 714 946 l 811 946 l 811 813 l 714 813 l 714 0 l 561 0 l 526 93 l 517 93 q 469 37 497 61 q 406 -1 442 13 q 322 -14 371 -14 m 388 146 q 493 194 461 146 q 526 342 525 242 l 526 367 q 495 522 526 469 q 386 574 464 574 q 292 519 325 574 q 258 360 258 465 q 292 199 258 253 q 388 146 325 146 z "},"Ē":{"ha":710,"x_min":111,"x_max":636,"o":"m 636 0 l 111 0 l 111 992 l 636 992 l 636 824 l 314 824 l 314 600 l 614 600 l 614 431 l 314 431 l 314 171 l 636 171 l 636 0 m 594 1219 l 594 1081 l 163 1081 l 163 1219 l 594 1219 z "},"ē":{"ha":753,"x_min":58,"x_max":699,"o":"m 386 772 q 554 731 485 772 q 661 614 624 690 q 699 428 699 538 l 699 328 l 256 328 q 303 187 258 236 q 429 138 347 138 q 547 151 493 138 q 658 196 600 165 l 658 40 q 549 -1 607 13 q 414 -14 490 -14 q 223 31 303 -14 q 101 161 143 75 q 58 374 58 247 q 98 594 58 506 q 211 727 138 682 q 386 772 285 772 m 388 626 q 299 588 333 626 q 260 463 264 549 l 514 463 q 499 548 514 511 q 458 606 485 585 q 388 626 431 626 m 594 986 l 594 847 l 163 847 l 163 986 l 594 986 z "},"Ĕ":{"ha":710,"x_min":111,"x_max":636,"o":"m 636 0 l 111 0 l 111 992 l 636 992 l 636 824 l 314 824 l 314 600 l 614 600 l 614 431 l 314 431 l 314 171 l 636 171 l 636 0 m 621 1303 q 586 1184 618 1236 q 501 1103 554 1132 q 376 1075 447 1075 q 204 1135 268 1075 q 136 1303 140 1196 l 250 1303 q 269 1247 253 1267 q 315 1221 286 1228 q 378 1214 343 1214 q 437 1222 408 1214 q 484 1249 465 1229 q 507 1303 503 1268 l 621 1303 z "},"ĕ":{"ha":753,"x_min":58,"x_max":699,"o":"m 386 772 q 554 731 485 772 q 661 614 624 690 q 699 428 699 538 l 699 328 l 256 328 q 303 187 258 236 q 429 138 347 138 q 547 151 493 138 q 658 196 600 165 l 658 40 q 549 -1 607 13 q 414 -14 490 -14 q 223 31 303 -14 q 101 161 143 75 q 58 374 58 247 q 98 594 58 506 q 211 727 138 682 q 386 772 285 772 m 388 626 q 299 588 333 626 q 260 463 264 549 l 514 463 q 499 548 514 511 q 458 606 485 585 q 388 626 431 626 m 621 1069 q 586 951 618 1003 q 501 870 554 899 q 376 842 447 842 q 204 902 268 842 q 136 1069 140 963 l 250 1069 q 269 1014 253 1033 q 315 988 286 994 q 378 981 343 981 q 437 988 408 981 q 484 1015 465 996 q 507 1069 503 1035 l 621 1069 z "},"Ė":{"ha":710,"x_min":111,"x_max":636,"o":"m 636 0 l 111 0 l 111 992 l 636 992 l 636 824 l 314 824 l 314 600 l 614 600 l 614 431 l 314 431 l 314 171 l 636 171 l 636 0 m 383 1290 q 462 1267 432 1290 q 492 1188 492 1243 q 461 1110 492 1133 q 383 1086 431 1086 q 306 1110 336 1086 q 276 1188 276 1133 q 306 1267 276 1244 q 383 1290 335 1290 z "},"ė":{"ha":753,"x_min":58,"x_max":699,"o":"m 386 772 q 554 731 485 772 q 661 614 624 690 q 699 428 699 538 l 699 328 l 256 328 q 303 187 258 236 q 429 138 347 138 q 547 151 493 138 q 658 196 600 165 l 658 40 q 549 -1 607 13 q 414 -14 490 -14 q 223 31 303 -14 q 101 161 143 75 q 58 374 58 247 q 98 594 58 506 q 211 727 138 682 q 386 772 285 772 m 388 626 q 299 588 333 626 q 260 463 264 549 l 514 463 q 499 548 514 511 q 458 606 485 585 q 388 626 431 626 m 385 1057 q 463 1033 433 1057 q 493 954 493 1010 q 463 876 493 900 q 385 853 432 853 q 308 876 338 853 q 278 954 278 900 q 307 1034 278 1011 q 385 1057 336 1057 z "},"Ę":{"ha":710,"x_min":111,"x_max":638,"o":"m 636 0 l 111 0 l 111 992 l 636 992 l 636 824 l 314 824 l 314 600 l 614 600 l 614 431 l 314 431 l 314 171 l 636 171 l 636 0 m 514 -150 q 529 -192 514 -176 q 569 -207 544 -207 q 608 -203 590 -207 q 638 -194 625 -200 l 638 -314 q 594 -325 618 -319 q 538 -331 569 -331 q 416 -289 460 -331 q 372 -179 372 -247 q 390 -105 372 -142 q 440 -36 408 -68 q 513 22 471 -4 l 606 0 q 536 -80 558 -46 q 514 -150 514 -114 z "},"ę":{"ha":753,"x_min":58,"x_max":699,"o":"m 528 -151 q 543 -192 528 -178 q 581 -206 558 -206 q 620 -201 600 -206 q 653 -193 640 -197 l 653 -314 q 604 -325 631 -321 q 549 -329 578 -329 q 428 -287 471 -329 q 385 -178 385 -246 q 403 -105 385 -140 q 451 -40 421 -69 q 521 15 482 -10 l 658 40 q 580 -40 608 -6 q 540 -101 551 -75 q 528 -151 528 -128 m 386 772 q 554 731 485 772 q 661 614 624 690 q 699 428 699 538 l 699 328 l 256 328 q 303 187 258 236 q 429 138 347 138 q 547 151 493 138 q 658 196 600 165 l 658 40 q 549 -1 607 13 q 414 -14 490 -14 q 223 31 303 -14 q 101 161 143 75 q 58 374 58 247 q 98 594 58 506 q 211 727 138 682 q 386 772 285 772 m 388 626 q 299 588 333 626 q 260 463 264 549 l 514 463 q 499 548 514 511 q 458 606 485 585 q 388 626 431 626 z "},"Ě":{"ha":710,"x_min":111,"x_max":644,"o":"m 636 0 l 111 0 l 111 992 l 636 992 l 636 824 l 314 824 l 314 600 l 614 600 l 614 431 l 314 431 l 314 171 l 636 171 l 636 0 m 272 1075 q 226 1143 254 1106 q 169 1217 199 1181 q 114 1279 139 1254 l 114 1297 l 242 1297 q 308 1246 272 1275 q 378 1181 344 1217 q 449 1247 413 1218 q 517 1297 485 1275 l 643 1297 l 643 1279 q 590 1217 621 1254 q 532 1143 560 1181 q 486 1075 504 1106 l 272 1075 z "},"ě":{"ha":753,"x_min":58,"x_max":699,"o":"m 386 772 q 554 731 485 772 q 661 614 624 690 q 699 428 699 538 l 699 328 l 256 328 q 303 187 258 236 q 429 138 347 138 q 547 151 493 138 q 658 196 600 165 l 658 40 q 549 -1 607 13 q 414 -14 490 -14 q 223 31 303 -14 q 101 161 143 75 q 58 374 58 247 q 98 594 58 506 q 211 727 138 682 q 386 772 285 772 m 388 626 q 299 588 333 626 q 260 463 264 549 l 514 463 q 499 548 514 511 q 458 606 485 585 q 388 626 431 626 m 272 842 q 226 910 254 872 q 169 984 199 947 q 114 1046 139 1021 l 114 1064 l 242 1064 q 308 1013 272 1042 q 378 947 344 983 q 449 1013 413 985 q 517 1064 485 1042 l 643 1064 l 643 1046 q 590 984 621 1021 q 532 910 560 947 q 486 842 504 872 l 272 842 z "},"Ĝ":{"ha":929,"x_min":74,"x_max":833,"o":"m 471 557 l 833 557 l 833 43 q 677 1 757 15 q 501 -14 597 -14 q 267 46 363 -14 q 122 220 171 106 q 74 497 74 335 q 129 767 74 653 q 291 943 185 881 q 550 1006 397 1006 q 698 989 626 1006 q 826 944 769 972 l 763 781 q 664 820 718 806 q 551 835 610 835 q 408 794 468 835 q 315 676 347 753 q 282 493 282 600 q 306 317 282 393 q 382 199 331 242 q 514 157 433 157 q 581 161 553 157 q 635 172 610 165 l 635 388 l 471 388 l 471 557 m 622 1297 q 667 1230 640 1267 q 724 1158 694 1193 q 779 1093 754 1122 l 779 1075 l 653 1075 q 584 1126 621 1097 q 514 1192 547 1156 q 444 1126 481 1156 q 378 1075 408 1097 l 250 1075 l 250 1093 q 305 1156 275 1119 q 363 1230 335 1192 q 408 1297 390 1268 l 622 1297 z "},"ĝ":{"ha":811,"x_min":58,"x_max":714,"o":"m 325 772 q 438 746 389 772 q 522 661 488 719 l 531 661 l 546 758 l 714 758 l 714 14 q 675 -176 714 -99 q 556 -293 636 -253 q 356 -333 476 -333 q 220 -322 282 -333 q 100 -286 158 -311 l 100 -122 q 229 -167 164 -153 q 361 -181 294 -181 q 477 -140 438 -181 q 517 -15 517 -100 l 517 0 q 519 51 517 24 q 524 100 521 78 l 517 100 q 432 13 481 40 q 319 -14 383 -14 q 128 89 197 -14 q 58 376 58 192 q 129 668 58 564 q 325 772 200 772 m 386 608 q 315 583 344 608 q 272 505 286 557 q 258 374 258 453 q 290 203 258 258 q 389 147 322 147 q 449 158 424 147 q 492 194 475 169 q 517 257 508 218 q 526 351 526 296 l 526 381 q 512 513 526 463 q 466 585 497 563 q 386 608 435 608 m 515 1064 q 560 997 533 1033 q 617 924 588 960 q 672 860 647 889 l 672 842 l 546 842 q 477 893 514 864 q 407 958 440 922 q 338 893 374 922 q 271 842 301 864 l 143 842 l 143 860 q 198 922 168 886 q 256 997 228 958 q 301 1064 283 1035 l 515 1064 z "},"Ğ":{"ha":929,"x_min":74,"x_max":833,"o":"m 471 557 l 833 557 l 833 43 q 677 1 757 15 q 501 -14 597 -14 q 267 46 363 -14 q 122 220 171 106 q 74 497 74 335 q 129 767 74 653 q 291 943 185 881 q 550 1006 397 1006 q 698 989 626 1006 q 826 944 769 972 l 763 781 q 664 820 718 806 q 551 835 610 835 q 408 794 468 835 q 315 676 347 753 q 282 493 282 600 q 306 317 282 393 q 382 199 331 242 q 514 157 433 157 q 581 161 553 157 q 635 172 610 165 l 635 388 l 471 388 l 471 557 m 757 1303 q 722 1184 754 1236 q 637 1103 690 1132 q 513 1075 583 1075 q 340 1135 404 1075 q 272 1303 276 1196 l 386 1303 q 406 1247 389 1267 q 451 1221 422 1228 q 514 1214 479 1214 q 573 1222 544 1214 q 620 1249 601 1229 q 643 1303 639 1268 l 757 1303 z "},"ğ":{"ha":811,"x_min":58,"x_max":714,"o":"m 325 772 q 438 746 389 772 q 522 661 488 719 l 531 661 l 546 758 l 714 758 l 714 14 q 675 -176 714 -99 q 556 -293 636 -253 q 356 -333 476 -333 q 220 -322 282 -333 q 100 -286 158 -311 l 100 -122 q 229 -167 164 -153 q 361 -181 294 -181 q 477 -140 438 -181 q 517 -15 517 -100 l 517 0 q 519 51 517 24 q 524 100 521 78 l 517 100 q 432 13 481 40 q 319 -14 383 -14 q 128 89 197 -14 q 58 376 58 192 q 129 668 58 564 q 325 772 200 772 m 386 608 q 315 583 344 608 q 272 505 286 557 q 258 374 258 453 q 290 203 258 258 q 389 147 322 147 q 449 158 424 147 q 492 194 475 169 q 517 257 508 218 q 526 351 526 296 l 526 381 q 512 513 526 463 q 466 585 497 563 q 386 608 435 608 m 650 1069 q 615 951 647 1003 q 530 870 583 899 q 406 842 476 842 q 233 902 297 842 q 165 1069 169 963 l 279 1069 q 299 1014 282 1033 q 344 988 315 994 q 407 981 372 981 q 466 988 438 981 q 513 1015 494 996 q 536 1069 532 1035 l 650 1069 z "},"Ġ":{"ha":929,"x_min":74,"x_max":833,"o":"m 471 557 l 833 557 l 833 43 q 677 1 757 15 q 501 -14 597 -14 q 267 46 363 -14 q 122 220 171 106 q 74 497 74 335 q 129 767 74 653 q 291 943 185 881 q 550 1006 397 1006 q 698 989 626 1006 q 826 944 769 972 l 763 781 q 664 820 718 806 q 551 835 610 835 q 408 794 468 835 q 315 676 347 753 q 282 493 282 600 q 306 317 282 393 q 382 199 331 242 q 514 157 433 157 q 581 161 553 157 q 635 172 610 165 l 635 388 l 471 388 l 471 557 m 521 1290 q 599 1267 569 1290 q 629 1188 629 1243 q 599 1110 629 1133 q 521 1086 568 1086 q 444 1110 474 1086 q 414 1188 414 1133 q 443 1267 414 1244 q 521 1290 472 1290 z "},"ġ":{"ha":811,"x_min":58,"x_max":714,"o":"m 325 772 q 438 746 389 772 q 522 661 488 719 l 531 661 l 546 758 l 714 758 l 714 14 q 675 -176 714 -99 q 556 -293 636 -253 q 356 -333 476 -333 q 220 -322 282 -333 q 100 -286 158 -311 l 100 -122 q 229 -167 164 -153 q 361 -181 294 -181 q 477 -140 438 -181 q 517 -15 517 -100 l 517 0 q 519 51 517 24 q 524 100 521 78 l 517 100 q 432 13 481 40 q 319 -14 383 -14 q 128 89 197 -14 q 58 376 58 192 q 129 668 58 564 q 325 772 200 772 m 386 608 q 315 583 344 608 q 272 505 286 557 q 258 374 258 453 q 290 203 258 258 q 389 147 322 147 q 449 158 424 147 q 492 194 475 169 q 517 257 508 218 q 526 351 526 296 l 526 381 q 512 513 526 463 q 466 585 497 563 q 386 608 435 608 m 413 1057 q 491 1033 461 1057 q 521 954 521 1010 q 490 876 521 900 q 413 853 460 853 q 335 876 365 853 q 306 954 306 900 q 335 1034 306 1011 q 413 1057 364 1057 z "},"Ģ":{"ha":929,"x_min":74,"x_max":833,"o":"m 471 557 l 833 557 l 833 43 q 677 1 757 15 q 501 -14 597 -14 q 267 46 363 -14 q 122 220 171 106 q 74 497 74 335 q 129 767 74 653 q 291 943 185 881 q 550 1006 397 1006 q 698 989 626 1006 q 826 944 769 972 l 763 781 q 664 820 718 806 q 551 835 610 835 q 408 794 468 835 q 315 676 347 753 q 282 493 282 600 q 306 317 282 393 q 382 199 331 242 q 514 157 433 157 q 581 161 553 157 q 635 172 610 165 l 635 388 l 471 388 l 471 557 m 617 -99 q 588 -166 604 -131 q 553 -237 572 -201 q 513 -307 535 -272 l 393 -307 l 393 -289 q 408 -226 400 -262 q 422 -151 415 -189 q 431 -85 429 -114 l 617 -85 l 617 -99 z "},"ģ":{"ha":811,"x_min":58,"x_max":714,"o":"m 511 1046 q 495 979 503 1017 q 481 906 488 942 q 471 842 475 871 l 286 842 l 286 856 q 314 922 299 888 q 349 993 329 957 q 392 1064 368 1029 l 511 1064 l 511 1046 m 325 772 q 438 746 389 772 q 522 661 488 719 l 531 661 l 546 758 l 714 758 l 714 14 q 675 -176 714 -99 q 556 -293 636 -253 q 356 -333 476 -333 q 220 -322 282 -333 q 100 -286 158 -311 l 100 -122 q 229 -167 164 -153 q 361 -181 294 -181 q 477 -140 438 -181 q 517 -15 517 -100 l 517 0 q 519 51 517 24 q 524 100 521 78 l 517 100 q 432 13 481 40 q 319 -14 383 -14 q 128 89 197 -14 q 58 376 58 192 q 129 668 58 564 q 325 772 200 772 m 386 608 q 315 583 344 608 q 272 505 286 557 q 258 374 258 453 q 290 203 258 258 q 389 147 322 147 q 449 158 424 147 q 492 194 475 169 q 517 257 508 218 q 526 351 526 296 l 526 381 q 512 513 526 463 q 466 585 497 563 q 386 608 435 608 z "},"Ĥ":{"ha":968,"x_min":111,"x_max":856,"o":"m 856 0 l 653 0 l 653 429 l 314 429 l 314 0 l 111 0 l 111 992 l 314 992 l 314 601 l 653 601 l 653 992 l 856 992 l 856 0 m 592 1297 q 637 1230 610 1267 q 694 1158 664 1193 q 749 1093 724 1122 l 749 1075 l 622 1075 q 553 1126 590 1097 q 483 1192 517 1156 q 414 1126 450 1156 q 347 1075 378 1097 l 219 1075 l 219 1093 q 274 1156 244 1119 q 332 1230 304 1192 q 378 1297 360 1268 l 592 1297 z "},"ĥ":{"ha":833,"x_min":-67,"x_max":739,"o":"m 294 833 q 291 736 294 783 q 283 661 288 689 l 294 661 q 345 724 315 700 q 413 760 375 749 q 493 772 450 772 q 624 742 569 772 q 709 652 679 713 q 739 497 739 592 l 739 0 l 542 0 l 542 446 q 517 569 542 529 q 438 608 492 608 q 352 581 383 608 q 308 497 321 553 q 294 360 294 442 l 294 0 l 97 0 l 97 1056 l 294 1056 l 294 833 m 306 1361 q 351 1294 324 1331 q 408 1222 378 1257 q 463 1157 438 1186 l 463 1139 l 336 1139 q 267 1190 304 1161 q 197 1256 231 1219 q 128 1190 164 1219 q 61 1139 92 1161 l -67 1139 l -67 1157 q -12 1219 -42 1183 q 46 1294 18 1256 q 92 1361 74 1332 l 306 1361 z "},"Ħ":{"ha":968,"x_min":-1,"x_max":969,"o":"m 113 0 l 113 726 l -1 726 l -1 860 l 113 860 l 113 992 l 314 992 l 314 860 l 654 860 l 654 992 l 857 992 l 857 860 l 969 860 l 969 726 l 857 726 l 857 0 l 654 0 l 654 429 l 314 429 l 314 0 l 113 0 m 314 601 l 654 601 l 654 726 l 314 726 l 314 601 z "},"ħ":{"ha":833,"x_min":1,"x_max":739,"o":"m 294 1056 l 294 946 l 481 946 l 481 813 l 294 813 l 294 788 q 291 699 294 743 q 283 626 288 654 l 294 626 q 346 690 317 665 q 413 726 375 714 q 493 738 450 738 q 625 708 569 738 q 710 617 681 678 q 739 463 739 556 l 739 0 l 542 0 l 542 411 q 517 533 542 493 q 438 574 492 574 q 352 547 383 574 q 308 465 321 519 q 294 325 294 410 l 294 0 l 97 0 l 97 813 l 1 813 l 1 946 l 97 946 l 97 1056 l 294 1056 z "},"Ĩ":{"ha":508,"x_min":-6,"x_max":517,"o":"m 465 0 l 43 0 l 43 114 l 153 163 l 153 829 l 43 878 l 43 992 l 465 992 l 465 878 l 356 829 l 356 163 l 465 114 l 465 0 m -6 1074 q 9 1158 -3 1119 q 42 1224 21 1196 q 91 1267 63 1251 q 156 1282 119 1282 q 210 1272 183 1282 q 261 1247 236 1261 q 310 1222 286 1232 q 358 1211 333 1211 q 394 1230 378 1211 q 417 1283 410 1249 l 517 1283 q 465 1127 511 1179 q 356 1075 419 1075 q 302 1085 329 1075 q 249 1110 275 1096 q 200 1135 224 1125 q 154 1146 176 1146 q 119 1128 136 1146 q 94 1074 101 1110 l -6 1074 z "},"ĩ":{"ha":393,"x_min":-64,"x_max":458,"o":"m 294 0 l 97 0 l 97 758 l 294 758 l 294 0 m -64 840 q -49 924 -61 886 q -17 990 -37 963 q 33 1033 4 1018 q 97 1049 61 1049 q 151 1038 125 1049 q 203 1013 178 1028 q 251 988 228 999 q 300 978 275 978 q 335 997 319 978 q 358 1050 351 1015 l 458 1050 q 407 894 453 946 q 297 842 361 842 q 244 852 271 842 q 191 877 217 863 q 142 902 165 892 q 96 913 118 913 q 60 894 78 913 q 36 840 43 876 l -64 840 z "},"Ī":{"ha":508,"x_min":39,"x_max":469,"o":"m 465 0 l 43 0 l 43 114 l 153 163 l 153 829 l 43 878 l 43 992 l 465 992 l 465 878 l 356 829 l 356 163 l 465 114 l 465 0 m 471 1219 l 471 1081 l 39 1081 l 39 1219 l 471 1219 z "},"ī":{"ha":393,"x_min":-19,"x_max":411,"o":"m 294 0 l 97 0 l 97 758 l 294 758 l 294 0 m 413 986 l 413 847 l -19 847 l -19 986 l 413 986 z "},"Ĭ":{"ha":508,"x_min":11,"x_max":497,"o":"m 465 0 l 43 0 l 43 114 l 153 163 l 153 829 l 43 878 l 43 992 l 465 992 l 465 878 l 356 829 l 356 163 l 465 114 l 465 0 m 496 1303 q 461 1184 493 1236 q 376 1103 429 1132 q 251 1075 322 1075 q 79 1135 143 1075 q 11 1303 15 1196 l 125 1303 q 144 1247 128 1267 q 190 1221 161 1228 q 253 1214 218 1214 q 312 1222 283 1214 q 359 1249 340 1229 q 382 1303 378 1268 l 496 1303 z "},"ĭ":{"ha":393,"x_min":-47,"x_max":439,"o":"m 294 0 l 97 0 l 97 758 l 294 758 l 294 0 m 438 1069 q 403 951 435 1003 q 317 870 371 899 q 193 842 264 842 q 21 902 85 842 q -47 1069 -43 963 l 67 1069 q 86 1014 69 1033 q 131 988 103 994 q 194 981 160 981 q 253 988 225 981 q 301 1015 282 996 q 324 1069 319 1035 l 438 1069 z "},"Į":{"ha":508,"x_min":43,"x_max":465,"o":"m 465 0 l 43 0 l 43 114 l 153 163 l 153 829 l 43 878 l 43 992 l 465 992 l 465 878 l 356 829 l 356 163 l 465 114 l 465 0 m 335 -150 q 350 -192 335 -176 q 390 -207 365 -207 q 428 -203 411 -207 q 458 -194 446 -200 l 458 -314 q 415 -325 439 -319 q 358 -331 390 -331 q 237 -289 281 -331 q 193 -179 193 -247 q 211 -105 193 -142 q 260 -36 229 -68 q 333 22 292 -4 l 426 0 q 357 -80 379 -46 q 335 -150 335 -114 z "},"į":{"ha":393,"x_min":43,"x_max":308,"o":"m 294 758 l 294 0 l 97 0 l 97 758 l 294 758 m 197 1057 q 274 1033 244 1057 q 304 954 304 1010 q 274 876 304 900 q 197 853 243 853 q 119 876 149 853 q 89 954 89 900 q 118 1034 89 1011 q 197 1057 147 1057 m 185 -150 q 200 -192 185 -176 q 240 -207 215 -207 q 278 -203 261 -207 q 308 -194 296 -200 l 308 -314 q 265 -325 289 -319 q 208 -331 240 -331 q 87 -289 131 -331 q 43 -179 43 -247 q 61 -105 43 -142 q 110 -36 79 -68 q 183 22 142 -4 l 276 0 q 207 -80 229 -46 q 185 -150 185 -114 z "},"İ":{"ha":508,"x_min":43,"x_max":465,"o":"m 465 0 l 43 0 l 43 114 l 153 163 l 153 829 l 43 878 l 43 992 l 465 992 l 465 878 l 356 829 l 356 163 l 465 114 l 465 0 m 260 1290 q 338 1267 308 1290 q 368 1188 368 1243 q 338 1110 368 1133 q 260 1086 307 1086 q 183 1110 213 1086 q 153 1188 153 1133 q 182 1267 153 1244 q 260 1290 211 1290 z "},"Ĳ":{"ha":931,"x_min":43,"x_max":819,"o":"m 465 0 l 43 0 l 43 114 l 153 163 l 153 829 l 43 878 l 43 992 l 465 992 l 465 878 l 356 829 l 356 163 l 465 114 l 465 0 m 526 -293 q 463 -288 492 -293 q 411 -278 433 -283 l 411 -107 q 453 -117 431 -112 q 501 -121 475 -121 q 563 -106 536 -121 q 603 -53 589 -92 q 617 56 617 -14 l 617 992 l 818 992 l 818 57 q 783 -148 818 -71 q 682 -259 747 -225 q 526 -293 617 -293 z "},"ĳ":{"ha":785,"x_min":89,"x_max":697,"o":"m 294 758 l 294 0 l 97 0 l 97 758 l 294 758 m 197 1057 q 274 1033 244 1057 q 304 954 304 1010 q 274 876 304 900 q 197 853 243 853 q 119 876 149 853 q 89 954 89 900 q 118 1034 89 1011 q 197 1057 147 1057 m 444 -333 q 380 -329 413 -333 q 322 -317 347 -325 l 322 -157 q 363 -166 344 -162 q 406 -169 382 -169 q 467 -145 443 -169 q 490 -58 490 -121 l 490 758 l 688 758 l 688 -82 q 663 -214 688 -157 q 583 -302 638 -271 q 444 -333 529 -333 m 482 954 q 512 1034 482 1011 q 590 1057 542 1057 q 667 1033 638 1057 q 697 954 697 1010 q 667 876 697 900 q 590 853 636 853 q 513 876 543 853 q 482 954 482 900 z "},"Ĵ":{"ha":425,"x_min":-93,"x_max":479,"o":"m 22 -293 q -42 -288 -12 -293 q -93 -278 -71 -283 l -93 -107 q -51 -117 -74 -112 q -3 -121 -29 -121 q 58 -106 32 -121 q 99 -53 85 -92 q 113 56 113 -14 l 113 992 l 314 992 l 314 57 q 278 -148 314 -71 q 178 -259 243 -225 q 22 -293 113 -293 m 321 1297 q 366 1230 339 1267 q 423 1158 393 1193 q 478 1093 453 1122 l 478 1075 l 351 1075 q 283 1126 319 1097 q 213 1192 246 1156 q 143 1126 179 1156 q 76 1075 107 1097 l -51 1075 l -51 1093 q 3 1156 -26 1119 q 61 1230 33 1192 q 107 1297 89 1268 l 321 1297 z "},"ĵ":{"ha":393,"x_min":-71,"x_max":461,"o":"m 51 -333 q -14 -328 21 -333 q -71 -317 -49 -324 l -71 -157 q -30 -166 -49 -162 q 13 -169 -11 -169 q 74 -146 50 -169 q 97 -61 97 -122 l 97 758 l 294 758 l 294 -82 q 269 -212 294 -156 q 191 -301 244 -268 q 51 -333 138 -333 m 304 1064 q 349 997 322 1033 q 406 924 376 960 q 461 860 436 889 l 461 842 l 335 842 q 266 893 303 864 q 196 958 229 922 q 126 893 163 922 q 60 842 90 864 l -68 842 l -68 860 q -13 922 -43 886 q 44 997 17 958 q 90 1064 72 1035 l 304 1064 z "},"Ķ":{"ha":844,"x_min":111,"x_max":847,"o":"m 847 0 l 619 0 l 393 413 l 314 353 l 314 0 l 111 0 l 111 992 l 314 992 l 314 536 q 349 595 331 565 q 389 660 368 625 l 622 992 l 844 992 l 538 551 l 847 0 m 561 -99 q 533 -166 549 -131 q 498 -237 517 -201 q 457 -307 479 -272 l 338 -307 l 338 -289 q 352 -226 344 -262 q 367 -151 360 -189 q 375 -85 374 -114 l 561 -85 l 561 -99 z "},"ķ":{"ha":786,"x_min":97,"x_max":788,"o":"m 294 588 q 292 499 294 543 q 285 413 289 456 l 288 413 q 313 451 300 432 q 338 488 325 469 q 365 522 351 506 l 553 758 l 772 758 l 510 436 l 788 0 l 564 0 l 376 310 l 294 239 l 294 0 l 97 0 l 97 1056 l 294 1056 l 294 588 m 513 -99 q 484 -166 500 -131 q 449 -237 468 -201 q 408 -307 431 -272 l 289 -307 l 289 -289 q 303 -226 296 -262 q 318 -151 311 -189 q 326 -85 325 -114 l 513 -85 l 513 -99 z "},"ĸ":{"ha":786,"x_min":97,"x_max":788,"o":"m 772 758 l 511 425 l 788 0 l 565 0 l 382 299 l 294 233 l 294 0 l 97 0 l 97 758 l 294 758 l 294 574 q 293 485 293 529 q 289 400 293 442 l 293 400 q 332 456 313 429 q 372 508 351 483 l 561 758 l 772 758 z "},"Ĺ":{"ha":704,"x_min":111,"x_max":667,"o":"m 111 0 l 111 992 l 314 992 l 314 171 l 667 171 l 667 0 l 111 0 m 482 1283 q 437 1237 465 1264 q 375 1179 408 1210 q 309 1122 342 1149 q 251 1075 276 1094 l 117 1075 l 117 1093 q 167 1159 140 1124 q 217 1231 193 1194 q 260 1297 242 1267 l 482 1297 l 482 1283 z "},"ĺ":{"ha":392,"x_min":97,"x_max":467,"o":"m 294 0 l 97 0 l 97 1056 l 294 1056 l 294 0 m 467 1347 q 422 1301 450 1328 q 360 1243 393 1274 q 294 1185 326 1213 q 236 1139 261 1158 l 101 1139 l 101 1157 q 151 1223 125 1188 q 202 1294 178 1258 q 244 1361 226 1331 l 467 1361 l 467 1347 z "},"Ļ":{"ha":704,"x_min":111,"x_max":667,"o":"m 111 0 l 111 992 l 314 992 l 314 171 l 667 171 l 667 0 l 111 0 m 500 -99 q 472 -166 488 -131 q 437 -237 456 -201 q 396 -307 418 -272 l 276 -307 l 276 -289 q 291 -226 283 -262 q 306 -151 299 -189 q 314 -85 313 -114 l 500 -85 l 500 -99 z "},"ļ":{"ha":392,"x_min":85,"x_max":308,"o":"m 294 0 l 97 0 l 97 1056 l 294 1056 l 294 0 m 308 -99 q 280 -166 296 -131 q 245 -237 264 -201 q 204 -307 226 -272 l 85 -307 l 85 -289 q 99 -226 92 -262 q 114 -151 107 -189 q 122 -85 121 -114 l 308 -85 l 308 -99 z "},"Ľ":{"ha":704,"x_min":111,"x_max":713,"o":"m 713 976 q 684 910 700 946 q 649 839 668 875 q 608 769 631 803 l 490 769 l 490 788 q 500 832 494 806 q 510 887 506 858 q 519 942 515 915 q 526 992 524 969 l 713 992 l 713 976 m 111 0 l 111 992 l 314 992 l 314 171 l 667 171 l 667 0 l 111 0 z "},"ľ":{"ha":392,"x_min":97,"x_max":558,"o":"m 558 1042 q 530 974 546 1010 q 495 903 514 939 q 454 833 476 868 l 336 833 l 336 851 q 346 897 340 871 q 356 951 351 922 q 365 1007 361 979 q 372 1056 369 1035 l 558 1056 l 558 1042 m 294 0 l 97 0 l 97 1056 l 294 1056 l 294 0 z "},"Ŀ":{"ha":704,"x_min":111,"x_max":669,"o":"m 111 0 l 111 992 l 314 992 l 314 171 l 667 171 l 667 0 l 111 0 m 563 646 q 641 622 611 646 q 671 543 671 599 q 640 465 671 489 q 563 442 610 442 q 485 465 515 442 q 456 543 456 489 q 485 623 456 600 q 563 646 514 646 z "},"ŀ":{"ha":492,"x_min":97,"x_max":549,"o":"m 294 0 l 97 0 l 97 1056 l 294 1056 l 294 0 m 442 633 q 520 610 490 633 q 550 531 550 586 q 519 453 550 476 q 442 429 489 429 q 365 453 394 429 q 335 531 335 476 q 364 610 335 588 q 442 633 393 633 z "},"Ł":{"ha":713,"x_min":-8,"x_max":675,"o":"m 121 0 l 121 333 l 72 303 l -8 428 l 121 515 l 121 992 l 324 992 l 324 646 l 426 714 l 508 588 l 324 465 l 324 171 l 675 171 l 675 0 l 121 0 z "},"ł":{"ha":414,"x_min":-24,"x_max":438,"o":"m 108 0 l 108 338 l 58 304 l -24 429 l 108 519 l 108 1056 l 306 1056 l 306 649 l 356 682 l 438 557 l 306 467 l 306 0 l 108 0 z "},"Ń":{"ha":1032,"x_min":111,"x_max":921,"o":"m 921 0 l 669 0 l 289 729 l 283 729 q 290 635 288 681 q 293 547 292 590 q 296 464 294 504 l 296 0 l 111 0 l 111 992 l 361 992 l 740 274 l 744 274 q 741 363 743 319 q 738 449 739 407 q 735 529 736 490 l 735 992 l 921 992 l 921 0 m 786 1283 q 741 1237 769 1264 q 679 1179 713 1210 q 613 1122 646 1149 q 556 1075 581 1094 l 421 1075 l 421 1093 q 471 1159 444 1124 q 522 1231 497 1194 q 564 1297 546 1267 l 786 1297 l 786 1283 z "},"ń":{"ha":833,"x_min":97,"x_max":739,"o":"m 494 772 q 674 706 608 772 q 739 497 739 639 l 739 0 l 542 0 l 542 446 q 517 567 542 526 q 436 608 493 608 q 325 547 356 608 q 294 360 294 486 l 294 0 l 97 0 l 97 758 l 250 758 l 275 661 l 286 661 q 340 724 308 700 q 412 760 372 749 q 494 772 451 772 m 692 1050 q 647 1003 675 1031 q 585 946 618 976 q 519 888 551 915 q 461 842 486 861 l 326 842 l 326 860 q 376 926 350 890 q 427 997 403 961 q 469 1064 451 1033 l 692 1064 l 692 1050 z "},"Ņ":{"ha":1032,"x_min":111,"x_max":921,"o":"m 921 0 l 669 0 l 289 729 l 283 729 q 290 635 288 681 q 293 547 292 590 q 296 464 294 504 l 296 0 l 111 0 l 111 992 l 361 992 l 740 274 l 744 274 q 741 363 743 319 q 738 449 739 407 q 735 529 736 490 l 735 992 l 921 992 l 921 0 m 628 -99 q 599 -166 615 -131 q 565 -237 583 -201 q 524 -307 546 -272 l 404 -307 l 404 -289 q 419 -226 411 -262 q 433 -151 426 -189 q 442 -85 440 -114 l 628 -85 l 628 -99 z "},"ņ":{"ha":833,"x_min":97,"x_max":739,"o":"m 494 772 q 674 706 608 772 q 739 497 739 639 l 739 0 l 542 0 l 542 446 q 517 567 542 526 q 436 608 493 608 q 325 547 356 608 q 294 360 294 486 l 294 0 l 97 0 l 97 758 l 250 758 l 275 661 l 286 661 q 340 724 308 700 q 412 760 372 749 q 494 772 451 772 m 529 -99 q 501 -166 517 -131 q 466 -237 485 -201 q 425 -307 447 -272 l 306 -307 l 306 -289 q 320 -226 313 -262 q 335 -151 328 -189 q 343 -85 342 -114 l 529 -85 l 529 -99 z "},"Ň":{"ha":1032,"x_min":111,"x_max":921,"o":"m 921 0 l 669 0 l 289 729 l 283 729 q 290 635 288 681 q 293 547 292 590 q 296 464 294 504 l 296 0 l 111 0 l 111 992 l 361 992 l 740 274 l 744 274 q 741 363 743 319 q 738 449 739 407 q 735 529 736 490 l 735 992 l 921 992 l 921 0 m 410 1075 q 364 1143 392 1106 q 306 1217 336 1181 q 251 1279 276 1254 l 251 1297 l 379 1297 q 446 1246 410 1275 q 515 1181 482 1217 q 586 1247 550 1218 q 654 1297 622 1275 l 781 1297 l 781 1279 q 728 1217 758 1254 q 669 1143 697 1181 q 624 1075 642 1106 l 410 1075 z "},"ň":{"ha":833,"x_min":97,"x_max":739,"o":"m 494 772 q 674 706 608 772 q 739 497 739 639 l 739 0 l 542 0 l 542 446 q 517 567 542 526 q 436 608 493 608 q 325 547 356 608 q 294 360 294 486 l 294 0 l 97 0 l 97 758 l 250 758 l 275 661 l 286 661 q 340 724 308 700 q 412 760 372 749 q 494 772 451 772 m 315 842 q 269 910 297 872 q 212 984 242 947 q 157 1046 182 1021 l 157 1064 l 285 1064 q 351 1013 315 1042 q 421 947 388 983 q 492 1013 456 985 q 560 1064 528 1042 l 686 1064 l 686 1046 q 633 984 664 1021 q 575 910 603 947 q 529 842 547 872 l 315 842 z "},"ŉ":{"ha":992,"x_min":3,"x_max":899,"o":"m 653 772 q 832 706 767 772 q 897 497 897 639 l 897 0 l 700 0 l 700 446 q 676 567 700 526 q 594 608 651 608 q 483 547 514 608 q 453 360 453 486 l 453 0 l 256 0 l 256 758 l 408 758 l 433 661 l 444 661 q 499 724 467 700 q 570 760 531 749 q 653 772 610 772 m 263 976 q 233 862 250 921 q 194 747 215 803 q 151 639 174 690 l 3 639 q 22 726 13 679 q 40 820 32 772 q 56 912 49 868 q 67 992 63 956 l 253 992 l 263 976 z "},"Ŋ":{"ha":1032,"x_min":111,"x_max":921,"o":"m 632 -293 q 564 -288 594 -293 q 508 -278 533 -283 l 508 -114 q 556 -124 531 -119 q 608 -128 581 -128 q 681 -114 653 -128 q 724 -71 710 -100 q 739 4 738 -42 l 289 738 l 283 738 q 290 647 288 696 q 294 553 292 599 q 296 474 296 508 l 296 0 l 111 0 l 111 992 l 361 992 l 740 381 l 744 381 q 740 468 742 421 q 736 560 738 515 q 735 636 735 604 l 735 992 l 921 992 l 921 13 q 886 -159 921 -92 q 787 -260 851 -226 q 632 -293 722 -293 z "},"ŋ":{"ha":833,"x_min":97,"x_max":739,"o":"m 510 -333 q 449 -329 481 -333 q 394 -317 418 -325 l 394 -157 q 431 -166 414 -162 q 467 -169 449 -169 q 521 -145 500 -169 q 542 -58 542 -121 l 542 456 q 516 569 542 531 q 438 608 490 608 q 353 582 385 608 q 308 501 322 556 q 294 360 294 447 l 294 0 l 97 0 l 97 758 l 250 758 l 275 661 l 286 661 q 340 724 308 700 q 412 760 372 749 q 494 772 451 772 q 626 742 572 772 q 710 649 681 711 q 739 494 739 588 l 739 -82 q 716 -208 739 -151 q 642 -299 693 -265 q 510 -333 592 -333 z "},"Ō":{"ha":1003,"x_min":74,"x_max":929,"o":"m 929 497 q 903 287 929 381 q 825 126 878 193 q 692 22 772 58 q 501 -14 611 -14 q 311 22 392 -14 q 178 126 231 58 q 99 288 125 193 q 74 499 74 382 q 120 771 74 657 q 262 946 167 885 q 503 1007 357 1007 q 743 944 649 1007 q 883 767 838 882 q 929 497 929 653 m 285 497 q 308 314 285 389 q 380 199 332 239 q 501 160 428 160 q 625 199 578 160 q 694 313 672 238 q 717 497 717 389 q 666 748 717 660 q 503 836 615 836 q 380 796 428 836 q 308 681 332 756 q 285 497 285 606 m 717 1219 l 717 1081 l 285 1081 l 285 1219 l 717 1219 z "},"ō":{"ha":793,"x_min":58,"x_max":735,"o":"m 735 381 q 713 219 735 292 q 648 94 690 147 q 542 14 606 42 q 396 -14 478 -14 q 256 14 318 -14 q 149 94 193 42 q 82 219 106 146 q 58 382 58 292 q 97 590 58 503 q 213 725 136 678 q 399 772 289 772 q 574 727 499 772 q 692 594 650 682 q 735 381 735 507 m 258 379 q 273 252 258 304 q 318 174 288 200 q 397 147 349 147 q 476 174 446 147 q 519 252 506 200 q 533 381 533 304 q 519 509 533 458 q 475 585 506 560 q 396 611 444 611 q 291 554 324 611 q 258 379 258 497 m 613 986 l 613 847 l 181 847 l 181 986 l 613 986 z "},"Ŏ":{"ha":1003,"x_min":74,"x_max":929,"o":"m 929 497 q 903 287 929 381 q 825 126 878 193 q 692 22 772 58 q 501 -14 611 -14 q 311 22 392 -14 q 178 126 231 58 q 99 288 125 193 q 74 499 74 382 q 120 771 74 657 q 262 946 167 885 q 503 1007 357 1007 q 743 944 649 1007 q 883 767 838 882 q 929 497 929 653 m 285 497 q 308 314 285 389 q 380 199 332 239 q 501 160 428 160 q 625 199 578 160 q 694 313 672 238 q 717 497 717 389 q 666 748 717 660 q 503 836 615 836 q 380 796 428 836 q 308 681 332 756 q 285 497 285 606 m 743 1303 q 708 1184 740 1236 q 623 1103 676 1132 q 499 1075 569 1075 q 326 1135 390 1075 q 258 1303 263 1196 l 372 1303 q 392 1247 375 1267 q 437 1221 408 1228 q 500 1214 465 1214 q 559 1222 531 1214 q 606 1249 588 1229 q 629 1303 625 1268 l 743 1303 z "},"ŏ":{"ha":793,"x_min":58,"x_max":735,"o":"m 735 381 q 713 219 735 292 q 648 94 690 147 q 542 14 606 42 q 396 -14 478 -14 q 256 14 318 -14 q 149 94 193 42 q 82 219 106 146 q 58 382 58 292 q 97 590 58 503 q 213 725 136 678 q 399 772 289 772 q 574 727 499 772 q 692 594 650 682 q 735 381 735 507 m 258 379 q 273 252 258 304 q 318 174 288 200 q 397 147 349 147 q 476 174 446 147 q 519 252 506 200 q 533 381 533 304 q 519 509 533 458 q 475 585 506 560 q 396 611 444 611 q 291 554 324 611 q 258 379 258 497 m 639 1069 q 604 951 636 1003 q 519 870 572 899 q 394 842 465 842 q 222 902 286 842 q 154 1069 158 963 l 268 1069 q 288 1014 271 1033 q 333 988 304 994 q 396 981 361 981 q 455 988 426 981 q 502 1015 483 996 q 525 1069 521 1035 l 639 1069 z "},"Ő":{"ha":1003,"x_min":74,"x_max":929,"o":"m 929 497 q 903 287 929 381 q 825 126 878 193 q 692 22 772 58 q 501 -14 611 -14 q 311 22 392 -14 q 178 126 231 58 q 99 288 125 193 q 74 499 74 382 q 120 771 74 657 q 262 946 167 885 q 503 1007 357 1007 q 743 944 649 1007 q 883 767 838 882 q 929 497 929 653 m 285 497 q 308 314 285 389 q 380 199 332 239 q 501 160 428 160 q 625 199 578 160 q 694 313 672 238 q 717 497 717 389 q 666 748 717 660 q 503 836 615 836 q 380 796 428 836 q 308 681 332 756 q 285 497 285 606 m 785 1283 q 749 1238 774 1265 q 694 1179 725 1210 q 631 1122 663 1149 q 576 1075 600 1094 l 472 1075 l 472 1093 q 517 1163 493 1125 q 561 1235 540 1200 q 593 1297 582 1271 l 785 1297 l 785 1283 m 531 1283 q 495 1237 519 1264 q 440 1180 471 1210 q 378 1123 410 1150 q 319 1075 346 1096 l 218 1075 l 218 1093 q 262 1164 239 1126 q 306 1236 285 1201 q 339 1297 326 1271 l 531 1297 l 531 1283 z "},"ő":{"ha":793,"x_min":58,"x_max":735,"o":"m 735 381 q 713 219 735 292 q 648 94 690 147 q 542 14 606 42 q 396 -14 478 -14 q 256 14 318 -14 q 149 94 193 42 q 82 219 106 146 q 58 382 58 292 q 97 590 58 503 q 213 725 136 678 q 399 772 289 772 q 574 727 499 772 q 692 594 650 682 q 735 381 735 507 m 258 379 q 273 252 258 304 q 318 174 288 200 q 397 147 349 147 q 476 174 446 147 q 519 252 506 200 q 533 381 533 304 q 519 509 533 458 q 475 585 506 560 q 396 611 444 611 q 291 554 324 611 q 258 379 258 497 m 681 1050 q 645 1004 669 1032 q 590 946 621 976 q 527 888 558 915 q 472 842 496 861 l 368 842 l 368 860 q 413 929 389 892 q 457 1002 436 967 q 489 1064 478 1038 l 681 1064 l 681 1050 m 426 1050 q 391 1003 415 1031 q 336 947 367 976 q 274 890 306 917 q 215 842 242 863 l 114 842 l 114 860 q 158 931 135 893 q 201 1003 181 968 q 235 1064 222 1038 l 426 1064 l 426 1050 z "},"Œ":{"ha":1217,"x_min":74,"x_max":1143,"o":"m 483 1006 q 553 1002 517 1006 q 617 992 590 999 l 1143 992 l 1143 824 l 808 824 l 808 600 l 1121 600 l 1121 431 l 808 431 l 808 171 l 1143 171 l 1143 0 l 615 0 q 553 -9 589 -6 q 485 -12 517 -12 q 252 51 343 -12 q 117 231 161 115 q 74 499 74 346 q 118 767 74 653 q 253 943 163 881 q 483 1006 343 1006 m 489 835 q 395 812 435 835 q 331 745 356 789 q 295 639 307 701 q 283 497 283 576 q 305 317 283 392 q 372 201 326 242 q 489 161 418 161 q 553 166 521 161 q 607 179 586 171 l 607 811 q 554 829 588 824 q 489 835 521 835 z "},"œ":{"ha":1236,"x_min":58,"x_max":1182,"o":"m 864 772 q 1035 731 964 772 q 1144 614 1107 690 q 1182 428 1182 538 l 1182 328 l 729 328 q 777 186 732 235 q 906 138 822 138 q 1027 151 972 138 q 1142 196 1082 165 l 1142 40 q 1030 -1 1088 13 q 893 -14 972 -14 q 747 12 813 -14 q 636 92 682 38 q 533 13 594 39 q 396 -14 472 -14 q 217 34 293 -14 q 100 170 142 82 q 58 381 58 258 q 97 592 58 504 q 211 726 135 679 q 397 772 288 772 q 528 747 468 772 q 631 668 589 721 q 695 726 660 704 q 773 760 731 749 q 864 772 815 772 m 396 611 q 291 554 324 611 q 258 381 258 497 q 273 252 258 304 q 318 174 288 200 q 397 147 349 147 q 476 174 446 147 q 519 252 506 200 q 533 381 533 304 q 519 509 533 458 q 475 585 506 560 q 396 611 444 611 m 867 626 q 774 587 810 626 q 732 463 738 547 l 997 463 q 982 548 997 511 q 938 606 967 585 q 867 626 910 626 z "},"Ŕ":{"ha":842,"x_min":111,"x_max":840,"o":"m 379 992 q 587 959 504 992 q 710 862 669 926 q 750 699 750 797 q 728 582 750 632 q 667 495 706 532 q 581 433 629 458 l 840 0 l 615 0 l 407 383 l 314 383 l 314 0 l 111 0 l 111 992 l 379 992 m 369 824 l 314 824 l 314 547 l 374 547 q 503 583 463 547 q 544 690 544 619 q 525 767 544 739 q 467 810 506 796 q 369 824 429 824 m 700 1283 q 655 1237 683 1264 q 593 1179 626 1210 q 527 1122 560 1149 q 469 1075 494 1094 l 335 1075 l 335 1093 q 385 1159 358 1124 q 435 1231 411 1194 q 478 1297 460 1267 l 700 1297 l 700 1283 z "},"ŕ":{"ha":576,"x_min":97,"x_max":593,"o":"m 486 772 q 520 771 501 772 q 554 765 539 769 l 538 572 q 509 577 526 575 q 475 579 492 579 q 406 568 439 579 q 349 533 374 557 q 309 474 324 510 q 294 386 294 438 l 294 0 l 97 0 l 97 758 l 249 758 l 276 632 l 286 632 q 335 701 306 669 q 403 753 364 733 q 486 772 442 772 m 592 1050 q 547 1003 575 1031 q 485 946 518 976 q 419 888 451 915 q 361 842 386 861 l 226 842 l 226 860 q 276 926 250 890 q 327 997 303 961 q 369 1064 351 1033 l 592 1064 l 592 1050 z "},"Ŗ":{"ha":842,"x_min":111,"x_max":840,"o":"m 379 992 q 587 959 504 992 q 710 862 669 926 q 750 699 750 797 q 728 582 750 632 q 667 495 706 532 q 581 433 629 458 l 840 0 l 615 0 l 407 383 l 314 383 l 314 0 l 111 0 l 111 992 l 379 992 m 369 824 l 314 824 l 314 547 l 374 547 q 503 583 463 547 q 544 690 544 619 q 525 767 544 739 q 467 810 506 796 q 369 824 429 824 m 563 -99 q 534 -166 550 -131 q 499 -237 518 -201 q 458 -307 481 -272 l 339 -307 l 339 -289 q 353 -226 346 -262 q 368 -151 361 -189 q 376 -85 375 -114 l 563 -85 l 563 -99 z "},"ŗ":{"ha":576,"x_min":90,"x_max":554,"o":"m 486 772 q 520 771 501 772 q 554 765 539 769 l 538 572 q 509 577 526 575 q 475 579 492 579 q 406 568 439 579 q 349 533 374 557 q 309 474 324 510 q 294 386 294 438 l 294 0 l 97 0 l 97 758 l 249 758 l 276 632 l 286 632 q 335 701 306 669 q 403 753 364 733 q 486 772 442 772 m 314 -99 q 285 -166 301 -131 q 251 -237 269 -201 q 210 -307 232 -272 l 90 -307 l 90 -289 q 105 -226 97 -262 q 119 -151 113 -189 q 128 -85 126 -114 l 314 -85 l 314 -99 z "},"Ř":{"ha":842,"x_min":111,"x_max":840,"o":"m 379 992 q 587 959 504 992 q 710 862 669 926 q 750 699 750 797 q 728 582 750 632 q 667 495 706 532 q 581 433 629 458 l 840 0 l 615 0 l 407 383 l 314 383 l 314 0 l 111 0 l 111 992 l 379 992 m 369 824 l 314 824 l 314 547 l 374 547 q 503 583 463 547 q 544 690 544 619 q 525 767 544 739 q 467 810 506 796 q 369 824 429 824 m 324 1075 q 278 1143 306 1106 q 220 1217 250 1181 q 165 1279 190 1254 l 165 1297 l 293 1297 q 360 1246 324 1275 q 429 1181 396 1217 q 500 1247 464 1218 q 568 1297 536 1275 l 694 1297 l 694 1279 q 642 1217 672 1254 q 583 1143 611 1181 q 538 1075 556 1106 l 324 1075 z "},"ř":{"ha":576,"x_min":57,"x_max":588,"o":"m 486 772 q 520 771 501 772 q 554 765 539 769 l 538 572 q 509 577 526 575 q 475 579 492 579 q 406 568 439 579 q 349 533 374 557 q 309 474 324 510 q 294 386 294 438 l 294 0 l 97 0 l 97 758 l 249 758 l 276 632 l 286 632 q 335 701 306 669 q 403 753 364 733 q 486 772 442 772 m 215 842 q 169 910 197 872 q 112 984 142 947 q 57 1046 82 1021 l 57 1064 l 185 1064 q 251 1013 215 1042 q 321 947 288 983 q 392 1013 356 985 q 460 1064 428 1042 l 586 1064 l 586 1046 q 533 984 564 1021 q 475 910 503 947 q 429 842 447 872 l 215 842 z "},"Ś":{"ha":708,"x_min":57,"x_max":657,"o":"m 657 281 q 617 126 657 193 q 501 23 576 60 q 319 -14 425 -14 q 226 -8 271 -14 q 138 11 181 -1 q 57 44 96 24 l 57 239 q 190 184 121 207 q 326 161 260 161 q 401 175 372 161 q 443 213 429 189 q 457 267 457 236 q 437 328 457 303 q 378 378 417 354 q 285 431 340 401 q 209 475 247 450 q 138 533 171 500 q 86 613 106 567 q 67 725 67 660 q 105 875 67 813 q 214 972 143 938 q 382 1006 285 1006 q 519 988 454 1006 q 654 939 585 971 l 592 774 q 481 816 531 801 q 381 831 431 831 q 319 818 344 831 q 280 784 293 806 q 267 732 267 763 q 284 673 267 697 q 338 626 301 649 q 436 572 375 604 q 556 497 507 536 q 631 406 606 457 q 657 281 657 354 m 638 1283 q 592 1237 621 1264 q 531 1179 564 1210 q 465 1122 497 1149 q 407 1075 432 1094 l 272 1075 l 272 1093 q 322 1159 296 1124 q 373 1231 349 1194 q 415 1297 397 1267 l 638 1297 l 638 1283 z "},"ś":{"ha":628,"x_min":54,"x_max":588,"o":"m 581 224 q 547 94 581 147 q 448 14 514 42 q 286 -14 382 -14 q 161 -3 215 -14 q 56 31 107 7 l 56 203 q 169 157 107 175 q 285 139 232 139 q 361 157 338 139 q 385 207 385 175 q 375 242 385 226 q 335 276 365 257 q 239 324 304 296 q 136 383 178 353 q 74 457 94 414 q 54 560 54 500 q 129 718 54 664 q 329 772 204 772 q 453 758 394 772 q 572 713 511 744 l 514 568 q 422 607 467 592 q 331 622 378 622 q 269 608 290 622 q 249 568 249 594 q 259 535 249 550 q 299 504 269 521 q 389 460 329 488 q 490 403 447 433 q 557 331 533 374 q 581 224 581 289 m 588 1050 q 542 1003 571 1031 q 481 946 514 976 q 415 888 447 915 q 357 842 382 861 l 222 842 l 222 860 q 272 926 246 890 q 323 997 299 961 q 365 1064 347 1033 l 588 1064 l 588 1050 z "},"Ŝ":{"ha":708,"x_min":57,"x_max":657,"o":"m 657 281 q 617 126 657 193 q 501 23 576 60 q 319 -14 425 -14 q 226 -8 271 -14 q 138 11 181 -1 q 57 44 96 24 l 57 239 q 190 184 121 207 q 326 161 260 161 q 401 175 372 161 q 443 213 429 189 q 457 267 457 236 q 437 328 457 303 q 378 378 417 354 q 285 431 340 401 q 209 475 247 450 q 138 533 171 500 q 86 613 106 567 q 67 725 67 660 q 105 875 67 813 q 214 972 143 938 q 382 1006 285 1006 q 519 988 454 1006 q 654 939 585 971 l 592 774 q 481 816 531 801 q 381 831 431 831 q 319 818 344 831 q 280 784 293 806 q 267 732 267 763 q 284 673 267 697 q 338 626 301 649 q 436 572 375 604 q 556 497 507 536 q 631 406 606 457 q 657 281 657 354 m 475 1297 q 520 1230 493 1267 q 577 1158 547 1193 q 632 1093 607 1122 l 632 1075 l 506 1075 q 437 1126 474 1097 q 367 1192 400 1156 q 297 1126 333 1156 q 231 1075 261 1097 l 103 1075 l 103 1093 q 158 1156 128 1119 q 215 1230 188 1192 q 261 1297 243 1268 l 475 1297 z "},"ŝ":{"ha":628,"x_min":53,"x_max":583,"o":"m 581 224 q 547 94 581 147 q 448 14 514 42 q 286 -14 382 -14 q 161 -3 215 -14 q 56 31 107 7 l 56 203 q 169 157 107 175 q 285 139 232 139 q 361 157 338 139 q 385 207 385 175 q 375 242 385 226 q 335 276 365 257 q 239 324 304 296 q 136 383 178 353 q 74 457 94 414 q 54 560 54 500 q 129 718 54 664 q 329 772 204 772 q 453 758 394 772 q 572 713 511 744 l 514 568 q 422 607 467 592 q 331 622 378 622 q 269 608 290 622 q 249 568 249 594 q 259 535 249 550 q 299 504 269 521 q 389 460 329 488 q 490 403 447 433 q 557 331 533 374 q 581 224 581 289 m 425 1064 q 470 997 443 1033 q 527 924 497 960 q 582 860 557 889 l 582 842 l 456 842 q 387 893 424 864 q 317 958 350 922 q 247 893 283 922 q 181 842 211 864 l 53 842 l 53 860 q 108 922 78 886 q 165 997 138 958 q 211 1064 193 1035 l 425 1064 z "},"Ş":{"ha":708,"x_min":57,"x_max":657,"o":"m 657 281 q 617 126 657 193 q 501 23 576 60 q 319 -14 425 -14 q 226 -8 271 -14 q 138 11 181 -1 q 57 44 96 24 l 57 239 q 190 184 121 207 q 326 161 260 161 q 401 175 372 161 q 443 213 429 189 q 457 267 457 236 q 437 328 457 303 q 378 378 417 354 q 285 431 340 401 q 209 475 247 450 q 138 533 171 500 q 86 613 106 567 q 67 725 67 660 q 105 875 67 813 q 214 972 143 938 q 382 1006 285 1006 q 519 988 454 1006 q 654 939 585 971 l 592 774 q 481 816 531 801 q 381 831 431 831 q 319 818 344 831 q 280 784 293 806 q 267 732 267 763 q 284 673 267 697 q 338 626 301 649 q 436 572 375 604 q 556 497 507 536 q 631 406 606 457 q 657 281 657 354 m 489 -174 q 444 -291 489 -249 q 293 -333 400 -333 q 238 -330 263 -333 q 193 -321 213 -326 l 193 -210 q 237 -219 213 -215 q 281 -222 261 -222 q 319 -212 304 -222 q 335 -178 335 -201 q 310 -133 335 -151 q 228 -108 285 -115 l 279 0 l 394 0 l 375 -47 q 433 -72 407 -54 q 474 -114 458 -89 q 489 -174 489 -139 z "},"ş":{"ha":628,"x_min":54,"x_max":581,"o":"m 581 224 q 547 94 581 147 q 448 14 514 42 q 286 -14 382 -14 q 161 -3 215 -14 q 56 31 107 7 l 56 203 q 169 157 107 175 q 285 139 232 139 q 361 157 338 139 q 385 207 385 175 q 375 242 385 226 q 335 276 365 257 q 239 324 304 296 q 136 383 178 353 q 74 457 94 414 q 54 560 54 500 q 129 718 54 664 q 329 772 204 772 q 453 758 394 772 q 572 713 511 744 l 514 568 q 422 607 467 592 q 331 622 378 622 q 269 608 290 622 q 249 568 249 594 q 259 535 249 550 q 299 504 269 521 q 389 460 329 488 q 490 403 447 433 q 557 331 533 374 q 581 224 581 289 m 456 -174 q 411 -291 456 -249 q 260 -333 367 -333 q 204 -330 229 -333 q 160 -321 179 -326 l 160 -210 q 203 -219 179 -215 q 247 -222 228 -222 q 286 -212 271 -222 q 301 -178 301 -201 q 276 -133 301 -151 q 194 -108 251 -115 l 246 0 l 361 0 l 342 -47 q 399 -72 374 -54 q 440 -114 425 -89 q 456 -174 456 -139 z "},"Š":{"ha":708,"x_min":57,"x_max":657,"o":"m 657 281 q 617 126 657 193 q 501 23 576 60 q 319 -14 425 -14 q 226 -8 271 -14 q 138 11 181 -1 q 57 44 96 24 l 57 239 q 190 184 121 207 q 326 161 260 161 q 401 175 372 161 q 443 213 429 189 q 457 267 457 236 q 437 328 457 303 q 378 378 417 354 q 285 431 340 401 q 209 475 247 450 q 138 533 171 500 q 86 613 106 567 q 67 725 67 660 q 105 875 67 813 q 214 972 143 938 q 382 1006 285 1006 q 519 988 454 1006 q 654 939 585 971 l 592 774 q 481 816 531 801 q 381 831 431 831 q 319 818 344 831 q 280 784 293 806 q 267 732 267 763 q 284 673 267 697 q 338 626 301 649 q 436 572 375 604 q 556 497 507 536 q 631 406 606 457 q 657 281 657 354 m 261 1075 q 215 1143 243 1106 q 158 1217 188 1181 q 103 1279 128 1254 l 103 1297 l 231 1297 q 297 1246 261 1275 q 367 1181 333 1217 q 438 1247 401 1218 q 506 1297 474 1275 l 632 1297 l 632 1279 q 579 1217 610 1254 q 521 1143 549 1181 q 475 1075 493 1106 l 261 1075 z "},"š":{"ha":628,"x_min":53,"x_max":583,"o":"m 581 224 q 547 94 581 147 q 448 14 514 42 q 286 -14 382 -14 q 161 -3 215 -14 q 56 31 107 7 l 56 203 q 169 157 107 175 q 285 139 232 139 q 361 157 338 139 q 385 207 385 175 q 375 242 385 226 q 335 276 365 257 q 239 324 304 296 q 136 383 178 353 q 74 457 94 414 q 54 560 54 500 q 129 718 54 664 q 329 772 204 772 q 453 758 394 772 q 572 713 511 744 l 514 568 q 422 607 467 592 q 331 622 378 622 q 269 608 290 622 q 249 568 249 594 q 259 535 249 550 q 299 504 269 521 q 389 460 329 488 q 490 403 447 433 q 557 331 533 374 q 581 224 581 289 m 211 842 q 165 910 193 872 q 108 984 138 947 q 53 1046 78 1021 l 53 1064 l 181 1064 q 247 1013 211 1042 q 317 947 283 983 q 388 1013 351 985 q 456 1064 424 1042 l 582 1064 l 582 1046 q 529 984 560 1021 q 471 910 499 947 q 425 842 443 872 l 211 842 z "},"Ț":{"ha":728,"x_min":25,"x_max":703,"o":"m 465 0 l 263 0 l 263 821 l 25 821 l 25 992 l 703 992 l 703 821 l 465 821 l 465 0 m 476 -99 q 448 -166 464 -131 q 413 -237 432 -201 q 372 -307 394 -272 l 253 -307 l 253 -289 q 267 -226 260 -262 q 282 -151 275 -189 q 290 -85 289 -114 l 476 -85 l 476 -99 z "},"ț":{"ha":543,"x_min":26,"x_max":507,"o":"m 393 149 q 450 155 422 149 q 507 171 478 161 l 507 21 q 430 -4 474 6 q 333 -14 386 -14 q 218 10 267 -14 q 142 88 169 33 q 115 233 115 142 l 115 606 l 26 606 l 26 696 l 131 758 l 185 919 l 313 919 l 313 758 l 497 758 l 497 606 l 313 606 l 313 236 q 334 171 313 193 q 393 149 356 149 m 419 -99 q 391 -166 407 -131 q 356 -237 375 -201 q 315 -307 338 -272 l 196 -307 l 196 -289 q 210 -226 203 -262 q 225 -151 218 -189 q 233 -85 232 -114 l 419 -85 l 419 -99 z "},"Ť":{"ha":728,"x_min":25,"x_max":703,"o":"m 465 0 l 263 0 l 263 821 l 25 821 l 25 992 l 703 992 l 703 821 l 465 821 l 465 0 m 258 1075 q 213 1143 240 1106 q 155 1217 185 1181 q 100 1279 125 1254 l 100 1297 l 228 1297 q 294 1246 258 1275 q 364 1181 331 1217 q 435 1247 399 1218 q 503 1297 471 1275 l 629 1297 l 629 1279 q 576 1217 607 1254 q 518 1143 546 1181 q 472 1075 490 1106 l 258 1075 z "},"ť":{"ha":543,"x_min":26,"x_max":731,"o":"m 731 1042 q 702 974 718 1010 q 667 903 686 939 q 628 833 649 868 l 508 833 l 508 851 q 518 897 513 871 q 529 951 524 922 q 538 1007 535 979 q 544 1056 542 1035 l 731 1056 l 731 1042 m 393 149 q 450 155 422 149 q 507 171 478 161 l 507 21 q 430 -4 474 6 q 333 -14 386 -14 q 218 10 267 -14 q 142 88 169 33 q 115 233 115 142 l 115 606 l 26 606 l 26 696 l 131 758 l 185 919 l 313 919 l 313 758 l 497 758 l 497 606 l 313 606 l 313 236 q 334 171 313 193 q 393 149 356 149 z "},"Ŧ":{"ha":728,"x_min":25,"x_max":703,"o":"m 263 0 l 263 408 l 111 408 l 111 571 l 263 571 l 263 819 l 25 819 l 25 992 l 703 992 l 703 819 l 465 819 l 465 571 l 617 571 l 617 408 l 465 408 l 465 0 l 263 0 z "},"ŧ":{"ha":543,"x_min":26,"x_max":507,"o":"m 36 336 l 36 469 l 479 469 l 479 336 l 36 336 m 393 149 q 450 155 422 149 q 507 171 478 161 l 507 21 q 430 -4 474 6 q 333 -14 386 -14 q 218 10 267 -14 q 142 88 169 33 q 115 233 115 142 l 115 606 l 26 606 l 26 696 l 131 758 l 185 919 l 313 919 l 313 758 l 497 758 l 497 606 l 313 606 l 313 236 q 334 171 313 193 q 393 149 356 149 z "},"Ũ":{"ha":951,"x_min":106,"x_max":846,"o":"m 846 342 q 804 155 846 235 q 680 31 763 75 q 472 -14 597 -14 q 199 81 293 -14 q 106 342 106 175 l 106 992 l 308 992 l 308 364 q 351 206 308 253 q 476 160 393 160 q 572 181 535 160 q 626 249 608 203 q 644 365 644 294 l 644 992 l 846 992 l 846 342 m 215 1074 q 230 1158 218 1119 q 263 1224 242 1196 q 312 1267 283 1251 q 376 1282 340 1282 q 431 1272 404 1282 q 482 1247 457 1261 q 531 1222 507 1232 q 579 1211 554 1211 q 615 1230 599 1211 q 638 1283 631 1249 l 738 1283 q 686 1127 732 1179 q 576 1075 640 1075 q 523 1085 550 1075 q 470 1110 496 1096 q 421 1135 444 1125 q 375 1146 397 1146 q 340 1128 357 1146 q 315 1074 322 1110 l 215 1074 z "},"ũ":{"ha":833,"x_min":94,"x_max":736,"o":"m 736 758 l 736 0 l 583 0 l 558 97 l 547 97 q 494 35 526 60 q 423 -2 463 10 q 339 -14 383 -14 q 208 17 263 -14 q 124 109 153 47 q 94 264 94 171 l 94 758 l 292 758 l 292 317 q 316 192 292 235 q 396 150 340 150 q 483 178 453 150 q 526 260 514 206 q 539 392 539 314 l 539 758 l 736 758 m 157 840 q 172 924 160 886 q 204 990 183 963 q 253 1033 225 1018 q 318 1049 282 1049 q 372 1038 346 1049 q 424 1013 399 1028 q 472 988 449 999 q 521 978 496 978 q 556 997 540 978 q 579 1050 572 1015 l 679 1050 q 628 894 674 946 q 518 842 582 842 q 465 852 492 842 q 412 877 438 863 q 363 902 386 892 q 317 913 339 913 q 281 894 299 913 q 257 840 264 876 l 157 840 z "},"Ū":{"ha":951,"x_min":106,"x_max":846,"o":"m 846 342 q 804 155 846 235 q 680 31 763 75 q 472 -14 597 -14 q 199 81 293 -14 q 106 342 106 175 l 106 992 l 308 992 l 308 364 q 351 206 308 253 q 476 160 393 160 q 572 181 535 160 q 626 249 608 203 q 644 365 644 294 l 644 992 l 846 992 l 846 342 m 692 1219 l 692 1081 l 260 1081 l 260 1219 l 692 1219 z "},"ū":{"ha":833,"x_min":94,"x_max":736,"o":"m 736 758 l 736 0 l 583 0 l 558 97 l 547 97 q 494 35 526 60 q 423 -2 463 10 q 339 -14 383 -14 q 208 17 263 -14 q 124 109 153 47 q 94 264 94 171 l 94 758 l 292 758 l 292 317 q 316 192 292 235 q 396 150 340 150 q 483 178 453 150 q 526 260 514 206 q 539 392 539 314 l 539 758 l 736 758 m 633 986 l 633 847 l 201 847 l 201 986 l 633 986 z "},"Ŭ":{"ha":951,"x_min":106,"x_max":846,"o":"m 846 342 q 804 155 846 235 q 680 31 763 75 q 472 -14 597 -14 q 199 81 293 -14 q 106 342 106 175 l 106 992 l 308 992 l 308 364 q 351 206 308 253 q 476 160 393 160 q 572 181 535 160 q 626 249 608 203 q 644 365 644 294 l 644 992 l 846 992 l 846 342 m 718 1303 q 683 1184 715 1236 q 598 1103 651 1132 q 474 1075 544 1075 q 301 1135 365 1075 q 233 1303 238 1196 l 347 1303 q 367 1247 350 1267 q 412 1221 383 1228 q 475 1214 440 1214 q 534 1222 506 1214 q 581 1249 563 1229 q 604 1303 600 1268 l 718 1303 z "},"ŭ":{"ha":833,"x_min":94,"x_max":736,"o":"m 736 758 l 736 0 l 583 0 l 558 97 l 547 97 q 494 35 526 60 q 423 -2 463 10 q 339 -14 383 -14 q 208 17 263 -14 q 124 109 153 47 q 94 264 94 171 l 94 758 l 292 758 l 292 317 q 316 192 292 235 q 396 150 340 150 q 483 178 453 150 q 526 260 514 206 q 539 392 539 314 l 539 758 l 736 758 m 660 1069 q 625 951 657 1003 q 540 870 593 899 q 415 842 486 842 q 243 902 307 842 q 175 1069 179 963 l 289 1069 q 308 1014 292 1033 q 353 988 325 994 q 417 981 382 981 q 476 988 447 981 q 523 1015 504 996 q 546 1069 542 1035 l 660 1069 z "},"Ů":{"ha":951,"x_min":106,"x_max":846,"o":"m 846 342 q 804 155 846 235 q 680 31 763 75 q 472 -14 597 -14 q 199 81 293 -14 q 106 342 106 175 l 106 992 l 308 992 l 308 364 q 351 206 308 253 q 476 160 393 160 q 572 181 535 160 q 626 249 608 203 q 644 365 644 294 l 644 992 l 846 992 l 846 342 m 474 1074 q 354 1117 400 1074 q 308 1235 308 1161 q 353 1351 308 1308 q 474 1394 399 1394 q 594 1351 546 1394 q 643 1236 643 1308 q 595 1118 643 1163 q 474 1074 547 1074 m 475 1171 q 521 1188 503 1171 q 539 1235 539 1206 q 521 1281 539 1264 q 475 1299 503 1299 q 428 1281 447 1299 q 410 1235 410 1264 q 426 1188 410 1206 q 475 1171 443 1171 z "},"ů":{"ha":833,"x_min":94,"x_max":736,"o":"m 736 758 l 736 0 l 583 0 l 558 97 l 547 97 q 494 35 526 60 q 423 -2 463 10 q 339 -14 383 -14 q 208 17 263 -14 q 124 109 153 47 q 94 264 94 171 l 94 758 l 292 758 l 292 317 q 316 192 292 235 q 396 150 340 150 q 483 178 453 150 q 526 260 514 206 q 539 392 539 314 l 539 758 l 736 758 m 415 840 q 296 884 342 840 q 250 1001 250 928 q 295 1118 250 1075 q 415 1161 340 1161 q 536 1118 488 1161 q 585 1003 585 1075 q 537 885 585 929 q 415 840 489 840 m 417 938 q 463 955 444 938 q 481 1001 481 972 q 463 1048 481 1031 q 417 1065 444 1065 q 370 1048 389 1065 q 351 1001 351 1031 q 368 955 351 972 q 417 938 385 938 z "},"Ű":{"ha":951,"x_min":106,"x_max":846,"o":"m 846 342 q 804 155 846 235 q 680 31 763 75 q 472 -14 597 -14 q 199 81 293 -14 q 106 342 106 175 l 106 992 l 308 992 l 308 364 q 351 206 308 253 q 476 160 393 160 q 572 181 535 160 q 626 249 608 203 q 644 365 644 294 l 644 992 l 846 992 l 846 342 m 758 1283 q 723 1238 747 1265 q 667 1179 699 1210 q 605 1122 636 1149 q 550 1075 574 1094 l 446 1075 l 446 1093 q 490 1163 467 1125 q 535 1235 514 1200 q 567 1297 556 1271 l 758 1297 l 758 1283 m 504 1283 q 469 1237 493 1264 q 414 1180 444 1210 q 351 1123 383 1150 q 293 1075 319 1096 l 192 1075 l 192 1093 q 235 1164 213 1126 q 279 1236 258 1201 q 313 1297 300 1271 l 504 1297 l 504 1283 z "},"ű":{"ha":833,"x_min":94,"x_max":736,"o":"m 736 758 l 736 0 l 583 0 l 558 97 l 547 97 q 494 35 526 60 q 423 -2 463 10 q 339 -14 383 -14 q 208 17 263 -14 q 124 109 153 47 q 94 264 94 171 l 94 758 l 292 758 l 292 317 q 316 192 292 235 q 396 150 340 150 q 483 178 453 150 q 526 260 514 206 q 539 392 539 314 l 539 758 l 736 758 m 700 1050 q 665 1004 689 1032 q 609 946 640 976 q 547 888 578 915 q 492 842 515 861 l 388 842 l 388 860 q 432 929 408 892 q 476 1002 456 967 q 508 1064 497 1038 l 700 1064 l 700 1050 m 446 1050 q 410 1003 435 1031 q 356 947 386 976 q 293 890 325 917 q 235 842 261 863 l 133 842 l 133 860 q 177 931 154 893 q 221 1003 200 968 q 254 1064 242 1038 l 446 1064 l 446 1050 z "},"Ų":{"ha":951,"x_min":106,"x_max":846,"o":"m 600 -142 q 616 -190 600 -174 q 656 -206 632 -206 q 694 -201 675 -206 q 725 -193 713 -197 l 725 -315 q 677 -326 703 -321 q 622 -331 651 -331 q 501 -287 543 -331 q 458 -172 458 -244 q 476 -91 458 -129 q 524 -20 493 -53 q 593 38 554 13 l 738 72 q 658 -12 689 26 q 614 -81 628 -50 q 600 -142 600 -112 m 846 342 q 804 155 846 235 q 680 31 763 75 q 472 -14 597 -14 q 199 81 293 -14 q 106 342 106 175 l 106 992 l 308 992 l 308 364 q 351 206 308 253 q 476 160 393 160 q 572 181 535 160 q 626 249 608 203 q 644 365 644 294 l 644 992 l 846 992 l 846 342 z "},"ų":{"ha":833,"x_min":94,"x_max":736,"o":"m 736 758 l 736 0 l 583 0 l 558 97 l 547 97 q 494 35 526 60 q 423 -2 463 10 q 339 -14 383 -14 q 208 17 263 -14 q 124 109 153 47 q 94 264 94 171 l 94 758 l 292 758 l 292 317 q 316 192 292 235 q 396 150 340 150 q 483 178 453 150 q 526 260 514 206 q 539 392 539 314 l 539 758 l 736 758 m 607 -150 q 622 -192 607 -176 q 663 -207 638 -207 q 701 -203 683 -207 q 731 -194 718 -200 l 731 -314 q 687 -325 711 -319 q 631 -331 663 -331 q 509 -289 553 -331 q 465 -179 465 -247 q 483 -105 465 -142 q 533 -36 501 -68 q 606 22 564 -4 l 699 0 q 629 -80 651 -46 q 607 -150 607 -114 z "},"Ŵ":{"ha":1246,"x_min":0,"x_max":1244,"o":"m 1244 992 l 1013 0 l 782 0 l 663 503 q 653 551 658 522 q 641 615 647 581 q 630 681 635 649 q 622 739 625 714 q 615 686 619 718 q 603 620 610 654 q 592 555 597 586 q 581 503 586 524 l 463 0 l 232 0 l 0 992 l 200 992 l 313 465 q 324 405 318 439 q 338 335 331 371 q 349 264 344 299 q 357 201 354 229 q 367 266 361 231 q 378 337 372 301 q 391 403 385 372 q 401 456 397 435 l 531 992 l 715 992 l 840 456 q 852 403 846 435 q 865 335 858 371 q 876 265 871 299 q 885 201 882 231 q 897 286 889 239 q 913 381 904 333 q 929 465 922 429 l 1043 992 l 1244 992 m 731 1297 q 776 1230 749 1267 q 833 1158 803 1193 q 888 1093 863 1122 l 888 1075 l 761 1075 q 692 1126 729 1097 q 622 1192 656 1156 q 553 1126 589 1156 q 486 1075 517 1097 l 358 1075 l 358 1093 q 413 1156 383 1119 q 471 1230 443 1192 q 517 1297 499 1268 l 731 1297 z "},"ŵ":{"ha":1101,"x_min":13,"x_max":1089,"o":"m 611 308 q 598 371 606 332 q 581 453 590 410 q 564 534 572 496 q 551 593 556 572 l 547 593 q 535 533 543 571 q 519 451 528 494 q 501 369 510 407 q 488 307 493 331 l 422 0 l 207 0 l 13 758 l 208 758 l 283 439 q 299 356 292 403 q 313 265 307 310 q 322 188 319 221 l 326 188 q 333 241 329 210 q 342 305 336 272 q 352 368 347 338 q 361 417 357 399 l 442 758 l 663 758 l 739 415 q 751 347 744 389 q 765 261 758 304 q 772 188 771 218 l 778 188 q 786 258 781 215 q 799 346 792 300 q 815 428 807 392 l 896 758 l 1089 758 l 892 0 l 672 0 l 611 308 m 658 1064 q 703 997 676 1033 q 760 924 731 960 q 815 860 790 889 l 815 842 l 689 842 q 620 893 657 864 q 550 958 583 922 q 481 893 517 922 q 414 842 444 864 l 286 842 l 286 860 q 341 922 311 886 q 399 997 371 958 q 444 1064 426 1035 l 658 1064 z "},"Ŷ":{"ha":790,"x_min":0,"x_max":790,"o":"m 396 585 l 575 992 l 790 992 l 496 385 l 496 0 l 294 0 l 294 378 l 0 992 l 217 992 l 396 585 m 503 1297 q 548 1230 521 1267 q 605 1158 575 1193 q 660 1093 635 1122 l 660 1075 l 533 1075 q 465 1126 501 1097 q 394 1192 428 1156 q 325 1126 361 1156 q 258 1075 289 1097 l 131 1075 l 131 1093 q 185 1156 156 1119 q 243 1230 215 1192 q 289 1297 271 1268 l 503 1297 z "},"ŷ":{"ha":726,"x_min":1,"x_max":725,"o":"m 1 758 l 214 758 l 338 354 q 349 309 344 332 q 358 263 354 286 q 363 217 361 240 l 368 217 q 378 284 371 250 q 396 353 386 318 l 515 758 l 725 758 l 439 -89 q 369 -226 411 -172 q 272 -307 328 -281 q 147 -333 215 -333 q 92 -330 117 -333 q 49 -322 68 -326 l 49 -160 q 83 -165 64 -162 q 121 -168 101 -168 q 184 -153 158 -168 q 228 -107 210 -137 q 260 -33 247 -76 l 272 7 l 1 758 m 471 1064 q 516 997 489 1033 q 573 924 543 960 q 628 860 603 889 l 628 842 l 501 842 q 433 893 469 864 q 363 958 396 922 q 293 893 329 922 q 226 842 257 864 l 99 842 l 99 860 q 153 922 124 886 q 211 997 183 958 q 257 1064 239 1035 l 471 1064 z "},"Ÿ":{"ha":790,"x_min":0,"x_max":790,"o":"m 396 585 l 575 992 l 790 992 l 496 385 l 496 0 l 294 0 l 294 378 l 0 992 l 217 992 l 396 585 m 171 1183 q 197 1254 171 1232 q 260 1276 222 1276 q 326 1253 299 1276 q 353 1185 353 1231 q 326 1116 353 1139 q 260 1093 299 1093 q 197 1116 222 1093 q 171 1183 171 1139 m 436 1183 q 462 1254 436 1232 q 526 1276 488 1276 q 593 1253 567 1276 q 619 1185 619 1231 q 593 1116 619 1139 q 528 1093 567 1093 q 463 1116 489 1093 q 436 1183 436 1139 z "},"Ź":{"ha":728,"x_min":33,"x_max":696,"o":"m 696 0 l 33 0 l 33 136 l 451 822 l 43 822 l 43 992 l 685 992 l 685 856 l 267 171 l 696 171 l 696 0 m 639 1283 q 594 1237 622 1264 q 532 1179 565 1210 q 466 1122 499 1149 q 408 1075 433 1094 l 274 1075 l 274 1093 q 324 1159 297 1124 q 374 1231 350 1194 q 417 1297 399 1267 l 639 1297 l 639 1283 z "},"ź":{"ha":613,"x_min":33,"x_max":579,"o":"m 576 0 l 33 0 l 33 118 l 343 603 l 53 603 l 53 758 l 565 758 l 565 629 l 265 156 l 576 156 l 576 0 m 579 1050 q 534 1003 563 1031 q 472 946 506 976 q 406 888 439 915 q 349 842 374 861 l 214 842 l 214 860 q 264 926 238 890 q 315 997 290 961 q 357 1064 339 1033 l 579 1064 l 579 1050 z "},"Ż":{"ha":728,"x_min":33,"x_max":696,"o":"m 696 0 l 33 0 l 33 136 l 451 822 l 43 822 l 43 992 l 685 992 l 685 856 l 267 171 l 696 171 l 696 0 m 374 1290 q 452 1267 422 1290 q 482 1188 482 1243 q 451 1110 482 1133 q 374 1086 421 1086 q 297 1110 326 1086 q 267 1188 267 1133 q 296 1267 267 1244 q 374 1290 325 1290 z "},"ż":{"ha":613,"x_min":33,"x_max":576,"o":"m 576 0 l 33 0 l 33 118 l 343 603 l 53 603 l 53 758 l 565 758 l 565 629 l 265 156 l 576 156 l 576 0 m 314 1057 q 392 1033 363 1057 q 422 954 422 1010 q 392 876 422 900 q 314 853 361 853 q 237 876 267 853 q 207 954 207 900 q 236 1034 207 1011 q 314 1057 265 1057 z "},"Ž":{"ha":728,"x_min":33,"x_max":696,"o":"m 696 0 l 33 0 l 33 136 l 451 822 l 43 822 l 43 992 l 685 992 l 685 856 l 267 171 l 696 171 l 696 0 m 263 1075 q 217 1143 244 1106 q 159 1217 189 1181 q 104 1279 129 1254 l 104 1297 l 232 1297 q 299 1246 263 1275 q 368 1181 335 1217 q 439 1247 403 1218 q 507 1297 475 1275 l 633 1297 l 633 1279 q 581 1217 611 1254 q 522 1143 550 1181 q 476 1075 494 1106 l 263 1075 z "},"ž":{"ha":613,"x_min":33,"x_max":576,"o":"m 576 0 l 33 0 l 33 118 l 343 603 l 53 603 l 53 758 l 565 758 l 565 629 l 265 156 l 576 156 l 576 0 m 203 842 q 157 910 185 872 q 99 984 129 947 q 44 1046 69 1021 l 44 1064 l 172 1064 q 239 1013 203 1042 q 308 947 275 983 q 379 1013 343 985 q 447 1064 415 1042 l 574 1064 l 574 1046 q 521 984 551 1021 q 463 910 490 947 q 417 842 435 872 l 203 842 z "},"ſ":{"ha":481,"x_min":103,"x_max":518,"o":"m 375 903 q 317 876 333 903 q 300 801 301 850 l 300 0 l 103 0 l 103 803 q 131 956 103 900 q 213 1038 158 1013 q 344 1063 268 1063 q 442 1053 401 1063 q 518 1031 483 1044 l 474 885 q 428 897 451 892 q 375 903 404 903 z "},"ƒ":{"ha":661,"x_min":-1,"x_max":713,"o":"m 242 -336 q 60 -274 121 -336 q -1 -110 -1 -211 q 6 -49 -1 -75 q 19 -3 13 -22 l 178 -50 q 170 -79 172 -65 q 168 -108 168 -93 q 185 -164 168 -144 q 229 -183 203 -183 q 278 -159 260 -183 q 296 -89 296 -135 l 296 606 l 192 606 l 192 704 l 296 758 l 296 803 q 324 956 296 900 q 406 1038 351 1013 q 538 1063 460 1063 q 633 1053 590 1063 q 713 1031 676 1044 l 664 885 q 619 897 643 892 q 565 903 594 903 q 510 876 528 903 q 493 801 493 850 l 493 758 l 651 758 l 651 606 l 493 606 l 493 -76 q 462 -219 493 -161 q 374 -306 431 -276 q 242 -336 317 -336 z "},"Ǻ":{"ha":875,"x_min":0,"x_max":875,"o":"m 301 897 q 278 938 288 915 q 269 989 269 961 q 315 1106 269 1063 q 436 1150 361 1150 q 556 1106 508 1150 q 604 990 604 1063 q 596 938 604 961 q 572 897 588 915 l 875 0 l 657 0 l 594 222 l 282 222 l 218 0 l 0 0 l 301 897 m 322 394 l 554 394 l 490 610 q 473 673 485 635 q 451 747 461 711 q 438 804 442 783 q 426 763 433 789 q 412 708 419 736 q 397 654 404 679 q 386 615 390 629 l 322 394 m 436 926 q 484 943 467 926 q 501 990 501 960 q 483 1037 501 1019 q 436 1054 464 1054 q 389 1037 407 1054 q 371 990 371 1019 q 388 944 371 961 q 436 926 406 926 m 349 1201 q 396 1251 375 1229 q 433 1294 417 1274 q 461 1332 449 1315 l 688 1332 l 688 1324 q 652 1293 676 1311 q 598 1256 628 1275 q 540 1219 568 1236 q 489 1189 511 1201 l 349 1189 l 349 1201 z "},"ǻ":{"ha":768,"x_min":51,"x_max":674,"o":"m 392 774 q 601 707 528 774 q 674 504 674 640 l 674 0 l 533 0 l 497 103 l 493 103 q 433 36 464 63 q 361 -2 401 10 q 265 -14 321 -14 q 152 15 200 -14 q 78 97 104 43 q 51 225 51 151 q 129 404 51 346 q 360 468 207 463 l 478 472 l 478 506 q 451 594 478 565 q 372 624 424 624 q 277 609 325 624 q 179 569 229 594 l 118 707 q 245 756 175 739 q 392 774 315 774 m 407 349 q 288 315 324 346 q 253 228 253 283 q 277 157 253 179 q 342 135 301 135 q 439 175 400 135 q 478 288 478 215 l 478 351 l 407 349 m 390 1039 q 344 1022 363 1039 q 325 975 325 1004 q 342 928 325 946 q 390 910 358 910 q 436 928 418 910 q 454 975 454 946 q 436 1022 454 1004 q 390 1039 418 1039 m 389 1135 q 476 1115 438 1135 q 538 1060 515 1096 q 560 976 560 1025 q 511 859 560 903 q 389 815 463 815 q 269 859 315 815 q 224 975 224 903 q 269 1092 224 1049 q 389 1135 315 1135 m 629 1324 q 578 1278 615 1307 q 499 1224 540 1250 q 432 1182 458 1199 l 290 1182 l 290 1194 q 337 1246 317 1222 q 374 1291 357 1269 q 403 1332 390 1313 l 629 1332 l 629 1324 z "},"Ǽ":{"ha":1190,"x_min":-1,"x_max":1117,"o":"m 1117 0 l 579 0 l 579 238 l 299 238 l 210 0 l -1 0 l 392 992 l 1117 992 l 1117 822 l 781 822 l 781 600 l 1094 600 l 1094 431 l 781 431 l 781 171 l 1117 171 l 1117 0 m 363 410 l 579 410 l 579 818 l 514 818 l 363 410 m 893 1283 q 848 1237 876 1264 q 786 1179 819 1210 q 720 1122 753 1149 q 663 1075 688 1094 l 528 1075 l 528 1093 q 578 1159 551 1124 q 628 1231 604 1194 q 671 1297 653 1267 l 893 1297 l 893 1283 z "},"ǽ":{"ha":1161,"x_min":51,"x_max":1106,"o":"m 806 772 q 965 731 897 772 q 1069 614 1033 690 q 1106 428 1106 538 l 1106 328 l 663 328 q 709 187 665 236 q 835 138 753 138 q 953 151 897 138 q 1065 196 1008 165 l 1065 40 q 957 -1 1014 13 q 821 -14 900 -14 q 712 1 764 -14 q 619 47 660 17 q 547 124 578 78 q 474 46 511 76 q 389 1 436 15 q 275 -14 342 -14 q 158 15 208 -14 q 80 97 108 43 q 51 225 51 151 q 85 358 51 306 q 187 438 119 411 q 351 468 254 465 l 468 472 l 468 519 q 442 598 468 572 q 367 624 415 624 q 274 610 321 624 q 179 571 228 596 l 118 707 q 241 756 174 739 q 381 774 308 774 q 503 752 451 774 q 588 688 554 731 q 681 751 628 731 q 806 772 733 772 m 401 349 q 287 315 321 346 q 253 228 253 283 q 276 157 253 179 q 338 135 299 135 q 405 153 376 135 q 451 205 433 171 q 468 288 468 239 l 468 351 l 401 349 m 803 626 q 707 587 743 626 q 665 463 671 547 l 921 463 q 907 548 921 511 q 867 606 893 585 q 803 626 840 626 m 860 1050 q 815 1003 843 1031 q 753 946 786 976 q 687 888 719 915 q 629 842 654 861 l 494 842 l 494 860 q 544 926 518 890 q 595 997 571 961 q 638 1064 619 1033 l 860 1064 l 860 1050 z "},"Ǿ":{"ha":1003,"x_min":74,"x_max":929,"o":"m 929 497 q 903 284 929 378 q 824 124 876 190 q 690 22 771 57 q 501 -14 610 -14 q 390 -3 442 -14 q 296 31 339 8 l 239 -65 l 135 -1 l 196 103 q 103 274 132 175 q 74 499 74 374 q 120 771 74 657 q 262 946 167 885 q 503 1007 357 1007 q 617 994 564 1007 q 714 958 671 982 l 767 1046 l 869 985 l 810 885 q 899 720 869 818 q 929 497 929 622 m 719 497 q 692 688 719 611 l 390 189 q 440 165 413 174 q 501 157 468 157 q 626 197 578 157 q 697 313 674 236 q 719 497 719 389 m 283 497 q 291 385 283 436 q 314 296 299 335 l 619 799 q 567 828 596 818 q 503 838 538 838 q 378 797 426 838 q 306 681 329 757 q 283 497 283 606 m 775 1283 q 730 1237 758 1264 q 668 1179 701 1210 q 602 1122 635 1149 q 544 1075 569 1094 l 410 1075 l 410 1093 q 460 1159 433 1124 q 510 1231 486 1194 q 553 1297 535 1267 l 775 1297 l 775 1283 z "},"ǿ":{"ha":793,"x_min":58,"x_max":735,"o":"m 735 381 q 694 167 735 256 q 577 33 653 79 q 394 -14 501 -14 q 319 -6 354 -14 q 250 17 283 3 l 203 -64 l 103 -3 l 154 85 q 83 213 107 140 q 58 381 58 286 q 149 671 58 569 q 399 772 239 772 q 478 764 440 772 q 550 738 517 756 l 590 804 l 688 742 l 644 667 q 711 544 688 617 q 735 381 735 472 m 256 381 q 258 318 256 346 q 267 267 261 290 l 465 594 q 435 609 453 604 q 396 614 417 614 q 289 556 322 614 q 256 381 256 497 m 538 381 q 535 435 538 410 q 529 482 533 460 l 335 160 q 363 148 347 151 q 396 144 378 144 q 478 171 447 144 q 523 250 508 197 q 538 381 538 303 m 668 1050 q 623 1003 651 1031 q 561 946 594 976 q 495 888 528 915 q 438 842 463 861 l 303 842 l 303 860 q 353 926 326 890 q 403 997 379 961 q 446 1064 428 1033 l 668 1064 l 668 1050 z "},"Ș":{"ha":708,"x_min":57,"x_max":657,"o":"m 657 281 q 617 126 657 193 q 501 23 576 60 q 319 -14 425 -14 q 226 -8 271 -14 q 138 11 181 -1 q 57 44 96 24 l 57 239 q 190 184 121 207 q 326 161 260 161 q 401 175 372 161 q 443 213 429 189 q 457 267 457 236 q 437 328 457 303 q 378 378 417 354 q 285 431 340 401 q 209 475 247 450 q 138 533 171 500 q 86 613 106 567 q 67 725 67 660 q 105 875 67 813 q 214 972 143 938 q 382 1006 285 1006 q 519 988 454 1006 q 654 939 585 971 l 592 774 q 481 816 531 801 q 381 831 431 831 q 319 818 344 831 q 280 784 293 806 q 267 732 267 763 q 284 673 267 697 q 338 626 301 649 q 436 572 375 604 q 556 497 507 536 q 631 406 606 457 q 657 281 657 354 m 453 -99 q 424 -166 440 -131 q 390 -237 408 -201 q 349 -307 371 -272 l 229 -307 l 229 -289 q 244 -226 236 -262 q 258 -151 251 -189 q 267 -85 265 -114 l 453 -85 l 453 -99 z "},"ș":{"ha":628,"x_min":54,"x_max":581,"o":"m 581 224 q 547 94 581 147 q 448 14 514 42 q 286 -14 382 -14 q 161 -3 215 -14 q 56 31 107 7 l 56 203 q 169 157 107 175 q 285 139 232 139 q 361 157 338 139 q 385 207 385 175 q 375 242 385 226 q 335 276 365 257 q 239 324 304 296 q 136 383 178 353 q 74 457 94 414 q 54 560 54 500 q 129 718 54 664 q 329 772 204 772 q 453 758 394 772 q 572 713 511 744 l 514 568 q 422 607 467 592 q 331 622 378 622 q 269 608 290 622 q 249 568 249 594 q 259 535 249 550 q 299 504 269 521 q 389 460 329 488 q 490 403 447 433 q 557 331 533 374 q 581 224 581 289 m 419 -99 q 391 -166 407 -131 q 356 -237 375 -201 q 315 -307 338 -272 l 196 -307 l 196 -289 q 210 -226 203 -262 q 225 -151 218 -189 q 233 -85 232 -114 l 419 -85 l 419 -99 z "},"ˆ":{"ha":640,"x_min":56,"x_max":585,"o":"m 428 1064 q 473 997 446 1033 q 530 924 500 960 q 585 860 560 889 l 585 842 l 458 842 q 390 893 426 864 q 319 958 353 922 q 250 893 286 922 q 183 842 214 864 l 56 842 l 56 860 q 110 922 81 886 q 168 997 140 958 q 214 1064 196 1035 l 428 1064 z "},"ˇ":{"ha":640,"x_min":56,"x_max":585,"o":"m 214 842 q 168 910 196 872 q 110 984 140 947 q 56 1046 81 1021 l 56 1064 l 183 1064 q 250 1013 214 1042 q 319 947 286 983 q 390 1013 354 985 q 458 1064 426 1042 l 585 1064 l 585 1046 q 532 984 563 1021 q 474 910 501 947 q 428 842 446 872 l 214 842 z "},"ˉ":{"ha":543,"x_min":56,"x_max":488,"o":"m 488 986 l 488 847 l 56 847 l 56 986 l 488 986 z "},"˘":{"ha":596,"x_min":56,"x_max":540,"o":"m 540 1069 q 506 951 538 1003 q 420 870 474 899 q 296 842 367 842 q 124 902 188 842 q 56 1069 60 963 l 169 1069 q 189 1014 172 1033 q 234 988 206 994 q 297 981 263 981 q 356 988 328 981 q 403 1015 385 996 q 426 1069 422 1035 l 540 1069 z "},"˙":{"ha":326,"x_min":56,"x_max":271,"o":"m 163 1057 q 241 1033 211 1057 q 271 954 271 1010 q 240 876 271 900 q 163 853 210 853 q 85 876 115 853 q 56 954 56 900 q 85 1034 56 1011 q 163 1057 114 1057 z "},"˚":{"ha":446,"x_min":56,"x_max":390,"o":"m 221 840 q 101 884 147 840 q 56 1001 56 928 q 101 1118 56 1075 q 221 1161 146 1161 q 342 1118 293 1161 q 390 1003 390 1075 q 342 885 390 929 q 221 840 294 840 m 222 938 q 268 955 250 938 q 286 1001 286 972 q 268 1048 286 1031 q 222 1065 250 1065 q 176 1048 194 1065 q 157 1001 157 1031 q 174 955 157 972 q 222 938 190 938 z "},"˛":{"ha":376,"x_min":56,"x_max":321,"o":"m 197 -150 q 213 -192 197 -176 q 253 -207 228 -207 q 291 -203 274 -207 q 321 -194 308 -200 l 321 -314 q 277 -325 301 -319 q 221 -331 253 -331 q 99 -289 143 -331 q 56 -179 56 -247 q 74 -105 56 -142 q 123 -36 92 -68 q 196 22 154 -4 l 289 0 q 219 -80 242 -46 q 197 -150 197 -114 z "},"˜":{"ha":633,"x_min":56,"x_max":578,"o":"m 56 840 q 70 924 58 886 q 103 990 82 963 q 152 1033 124 1018 q 217 1049 181 1049 q 271 1038 244 1049 q 322 1013 297 1028 q 371 988 347 999 q 419 978 394 978 q 455 997 439 978 q 478 1050 471 1015 l 578 1050 q 526 894 572 946 q 417 842 481 842 q 363 852 390 842 q 310 877 336 863 q 261 902 285 892 q 215 913 238 913 q 180 894 197 913 q 156 840 163 876 l 56 840 z "},"˝":{"ha":678,"x_min":56,"x_max":622,"o":"m 622 1050 q 587 1004 611 1032 q 531 946 563 976 q 469 888 500 915 q 414 842 438 861 l 310 842 l 310 860 q 354 929 331 892 q 399 1002 378 967 q 431 1064 419 1038 l 622 1064 l 622 1050 m 368 1050 q 333 1003 357 1031 q 278 947 308 976 q 215 890 247 917 q 157 842 183 863 l 56 842 l 56 860 q 99 931 76 893 q 143 1003 122 968 q 176 1064 164 1038 l 368 1064 l 368 1050 z "},"΄":{"ha":399,"x_min":56,"x_max":343,"o":"m 56 842 l 56 860 l 121 1078 l 343 1078 l 343 1064 l 190 842 l 56 842 z "},"΅":{"ha":1014,"x_min":167,"x_max":847,"o":"m 386 842 l 386 860 l 438 1078 l 660 1078 l 660 1064 l 521 842 l 386 842 m 256 860 q 192 883 218 860 q 167 950 167 906 q 192 1021 167 999 q 256 1043 218 1043 q 322 1020 294 1043 q 349 951 349 997 q 322 883 349 906 q 256 860 294 860 m 756 860 q 690 883 717 860 q 664 950 664 906 q 690 1021 664 999 q 756 1043 717 1043 q 821 1020 794 1043 q 847 951 847 997 q 821 883 847 906 q 756 860 794 860 z "},"Ά":{"ha":1024,"x_min":14,"x_max":1024,"o":"m 806 0 l 742 238 l 432 238 l 367 0 l 149 0 l 458 994 l 711 994 l 1024 0 l 806 0 m 633 651 q 618 713 626 679 q 601 781 610 747 q 586 843 592 815 q 572 780 581 817 q 554 708 563 743 q 540 653 546 674 l 475 410 l 699 410 l 633 651 m 14 756 l 14 774 l 79 992 l 301 992 l 301 978 l 149 756 l 14 756 z "},"·":{"ha":381,"x_min":76,"x_max":306,"o":"m 76 654 q 108 742 76 715 q 192 769 140 769 q 273 743 240 769 q 306 656 306 717 q 273 568 306 596 q 192 540 240 540 q 109 568 142 540 q 76 654 76 596 z "},"Έ":{"ha":1013,"x_min":14,"x_max":939,"o":"m 938 0 l 413 0 l 413 992 l 938 992 l 938 824 l 615 824 l 615 600 l 915 600 l 915 431 l 615 431 l 615 171 l 938 171 l 938 0 m 14 756 l 14 774 l 79 992 l 301 992 l 301 978 l 149 756 l 14 756 z "},"Ή":{"ha":1269,"x_min":14,"x_max":1158,"o":"m 1157 0 l 954 0 l 954 429 l 615 429 l 615 0 l 413 0 l 413 992 l 615 992 l 615 601 l 954 601 l 954 992 l 1157 992 l 1157 0 m 14 756 l 14 774 l 79 992 l 301 992 l 301 978 l 149 756 l 14 756 z "},"Ί":{"ha":838,"x_min":14,"x_max":796,"o":"m 794 0 l 372 0 l 372 114 l 482 163 l 482 829 l 372 878 l 372 992 l 794 992 l 794 878 l 685 829 l 685 163 l 794 114 l 794 0 m 14 756 l 14 774 l 79 992 l 301 992 l 301 978 l 149 756 l 14 756 z "},"Ό":{"ha":1235,"x_min":14,"x_max":1161,"o":"m 1161 497 q 1135 287 1161 381 q 1057 126 1110 193 q 924 22 1004 58 q 733 -14 843 -14 q 543 22 624 -14 q 410 126 463 58 q 331 288 357 193 q 306 499 306 382 q 352 771 306 657 q 494 946 399 885 q 735 1007 589 1007 q 975 944 881 1007 q 1115 767 1069 882 q 1161 497 1161 653 m 517 497 q 540 314 517 389 q 612 199 564 239 q 733 160 660 160 q 857 199 810 160 q 926 313 904 238 q 949 497 949 389 q 898 748 949 660 q 735 836 847 836 q 612 796 660 836 q 540 681 564 756 q 517 497 517 606 m 14 756 l 14 774 l 79 992 l 301 992 l 301 978 l 149 756 l 14 756 z "},"Ύ":{"ha":1161,"x_min":14,"x_max":1161,"o":"m 767 585 l 946 992 l 1161 992 l 867 385 l 867 0 l 665 0 l 665 378 l 371 992 l 588 992 l 767 585 m 14 756 l 14 774 l 79 992 l 301 992 l 301 978 l 149 756 l 14 756 z "},"Ώ":{"ha":1190,"x_min":14,"x_max":1153,"o":"m 283 0 l 283 172 l 475 172 q 372 269 413 211 q 310 401 331 328 q 290 558 290 474 q 342 791 290 690 q 490 949 393 892 q 718 1007 586 1007 q 946 949 850 1007 q 1094 790 1042 892 q 1146 557 1146 689 q 1126 400 1146 472 q 1064 270 1106 328 q 958 172 1022 213 l 1153 172 l 1153 0 l 781 0 l 781 185 q 878 277 844 222 q 926 400 913 332 q 939 540 939 468 q 913 700 939 635 q 838 801 886 765 q 718 836 789 836 q 599 801 649 836 q 523 701 549 767 q 497 539 497 635 q 511 399 497 467 q 559 277 525 332 q 653 185 593 222 l 653 0 l 283 0 m 14 756 l 14 774 l 79 992 l 301 992 l 301 978 l 149 756 l 14 756 z "},"ΐ":{"ha":500,"x_min":-76,"x_max":606,"o":"m 340 -14 q 201 17 256 -14 q 122 106 147 49 q 97 238 97 163 l 97 758 l 294 758 l 294 261 q 319 174 294 199 q 381 150 343 150 q 422 153 403 150 q 463 163 442 157 l 463 3 q 406 -10 439 -6 q 340 -14 372 -14 m 144 842 l 144 860 l 196 1078 l 418 1078 l 418 1064 l 279 842 l 144 842 m 14 860 q -49 883 -24 860 q -75 950 -75 906 q -49 1021 -75 999 q 14 1043 -24 1043 q 80 1020 53 1043 q 107 951 107 997 q 80 883 107 906 q 14 860 53 860 m 514 860 q 449 883 475 860 q 422 950 422 906 q 449 1021 422 999 q 514 1043 475 1043 q 579 1020 553 1043 q 606 951 606 997 q 579 883 606 906 q 514 860 553 860 z "},"Α":{"ha":875,"x_min":0,"x_max":875,"o":"m 657 0 l 593 238 l 283 238 l 218 0 l 0 0 l 310 994 l 563 994 l 875 0 l 657 0 m 485 651 q 469 713 478 679 q 452 781 461 747 q 438 843 443 815 q 423 780 432 817 q 406 708 414 743 q 392 653 397 674 l 326 410 l 550 410 l 485 651 z "},"Β":{"ha":860,"x_min":111,"x_max":792,"o":"m 403 992 q 677 934 585 992 q 769 743 769 876 q 752 640 769 686 q 702 565 735 594 q 624 526 669 536 l 624 519 q 713 481 675 508 q 771 407 750 454 q 792 288 792 360 q 751 134 792 199 q 634 35 710 69 q 454 0 558 0 l 111 0 l 111 992 l 403 992 m 418 596 q 530 626 497 596 q 563 715 563 657 q 526 799 563 772 q 410 825 489 825 l 314 825 l 314 596 l 418 596 m 314 435 l 314 168 l 433 168 q 548 205 514 168 q 582 307 582 242 q 567 374 582 346 q 517 419 551 403 q 426 435 482 435 l 314 435 z "},"Γ":{"ha":671,"x_min":111,"x_max":611,"o":"m 111 0 l 111 992 l 611 992 l 611 824 l 313 824 l 313 0 l 111 0 z "},"Δ":{"ha":858,"x_min":14,"x_max":844,"o":"m 14 0 l 14 113 l 301 994 l 554 994 l 844 108 l 844 0 l 14 0 m 244 172 l 613 172 l 479 651 q 463 713 472 679 q 444 781 453 747 q 429 843 435 815 q 414 780 424 817 q 394 708 404 743 q 379 653 385 674 l 244 172 z "},"Ε":{"ha":710,"x_min":111,"x_max":636,"o":"m 636 0 l 111 0 l 111 992 l 636 992 l 636 824 l 314 824 l 314 600 l 614 600 l 614 431 l 314 431 l 314 171 l 636 171 l 636 0 z "},"Ζ":{"ha":728,"x_min":33,"x_max":696,"o":"m 696 0 l 33 0 l 33 136 l 451 822 l 43 822 l 43 992 l 685 992 l 685 856 l 267 171 l 696 171 l 696 0 z "},"Η":{"ha":968,"x_min":111,"x_max":856,"o":"m 856 0 l 653 0 l 653 429 l 314 429 l 314 0 l 111 0 l 111 992 l 314 992 l 314 601 l 653 601 l 653 992 l 856 992 l 856 0 z "},"Θ":{"ha":1003,"x_min":74,"x_max":929,"o":"m 351 422 l 351 586 l 650 586 l 650 422 l 351 422 m 929 497 q 903 287 929 381 q 825 126 878 193 q 692 22 772 58 q 501 -14 611 -14 q 311 22 392 -14 q 177 126 231 58 q 99 288 124 193 q 74 499 74 382 q 120 771 74 657 q 262 946 167 885 q 503 1007 357 1007 q 743 944 649 1007 q 883 767 838 882 q 929 497 929 653 m 285 497 q 308 314 285 389 q 380 199 332 239 q 501 160 428 160 q 625 199 578 160 q 694 313 672 238 q 717 497 717 389 q 666 748 717 660 q 503 836 615 836 q 380 797 428 836 q 308 681 332 757 q 285 497 285 606 z "},"Ι":{"ha":508,"x_min":43,"x_max":465,"o":"m 465 0 l 43 0 l 43 114 l 153 163 l 153 829 l 43 878 l 43 992 l 465 992 l 465 878 l 356 829 l 356 163 l 465 114 l 465 0 z "},"Κ":{"ha":844,"x_min":111,"x_max":847,"o":"m 847 0 l 619 0 l 393 413 l 314 353 l 314 0 l 111 0 l 111 992 l 314 992 l 314 536 q 349 595 331 565 q 389 660 368 625 l 622 992 l 844 992 l 538 551 l 847 0 z "},"Λ":{"ha":857,"x_min":0,"x_max":857,"o":"m 0 0 l 301 994 l 554 994 l 857 0 l 639 0 l 472 651 q 458 713 465 679 q 442 781 450 747 q 429 843 435 815 q 415 780 424 817 q 399 708 407 743 q 386 653 392 674 l 218 0 l 0 0 z "},"Μ":{"ha":1222,"x_min":111,"x_max":1111,"o":"m 513 0 l 290 761 l 285 761 q 289 676 286 726 q 294 574 292 626 q 296 479 296 522 l 296 0 l 111 0 l 111 992 l 389 992 l 606 263 l 610 263 l 833 992 l 1111 992 l 1111 0 l 921 0 l 921 485 q 922 578 921 526 q 926 678 924 629 q 929 760 928 726 l 924 760 l 690 0 l 513 0 z "},"Ν":{"ha":1032,"x_min":111,"x_max":921,"o":"m 921 0 l 669 0 l 289 729 l 283 729 q 290 635 288 681 q 293 547 292 590 q 296 464 294 504 l 296 0 l 111 0 l 111 992 l 361 992 l 740 274 l 744 274 q 741 363 743 319 q 738 449 739 407 q 735 529 736 490 l 735 992 l 921 992 l 921 0 z "},"Ξ":{"ha":797,"x_min":74,"x_max":724,"o":"m 74 0 l 74 171 l 724 171 l 724 0 l 74 0 m 147 432 l 147 604 l 650 604 l 650 432 l 147 432 m 99 821 l 99 992 l 700 992 l 700 821 l 99 821 z "},"Ο":{"ha":1003,"x_min":74,"x_max":929,"o":"m 929 497 q 903 287 929 381 q 825 126 878 193 q 692 22 772 58 q 501 -14 611 -14 q 311 22 392 -14 q 178 126 231 58 q 99 288 125 193 q 74 499 74 382 q 120 771 74 657 q 262 946 167 885 q 503 1007 357 1007 q 743 944 649 1007 q 883 767 838 882 q 929 497 929 653 m 285 497 q 308 314 285 389 q 380 199 332 239 q 501 160 428 160 q 625 199 578 160 q 694 313 672 238 q 717 497 717 389 q 666 748 717 660 q 503 836 615 836 q 380 796 428 836 q 308 681 332 756 q 285 497 285 606 z "},"Π":{"ha":958,"x_min":111,"x_max":847,"o":"m 111 0 l 111 992 l 847 992 l 847 0 l 644 0 l 644 821 l 314 821 l 314 0 l 111 0 z "},"Ρ":{"ha":801,"x_min":111,"x_max":747,"o":"m 404 992 q 665 910 582 992 q 747 683 747 829 q 728 554 747 614 q 666 449 708 494 q 556 378 624 403 q 390 353 488 353 l 314 353 l 314 0 l 111 0 l 111 992 l 404 992 m 393 824 l 314 824 l 314 521 l 371 521 q 464 537 425 521 q 523 588 503 553 q 543 678 543 622 q 506 788 543 753 q 393 824 469 824 z "},"Σ":{"ha":726,"x_min":33,"x_max":694,"o":"m 33 0 l 33 161 l 301 519 l 43 838 l 43 992 l 685 992 l 685 824 l 408 824 q 346 825 378 824 q 282 829 314 826 l 503 553 l 503 504 l 244 163 q 323 169 286 167 q 400 171 360 171 l 694 171 l 694 0 l 33 0 z "},"Τ":{"ha":728,"x_min":25,"x_max":703,"o":"m 465 0 l 263 0 l 263 821 l 25 821 l 25 992 l 703 992 l 703 821 l 465 821 l 465 0 z "},"Υ":{"ha":790,"x_min":0,"x_max":790,"o":"m 396 585 l 575 992 l 790 992 l 496 385 l 496 0 l 294 0 l 294 378 l 0 992 l 217 992 l 396 585 z "},"Φ":{"ha":1171,"x_min":60,"x_max":1111,"o":"m 492 -14 l 492 125 q 282 160 365 126 q 149 251 199 194 q 80 376 100 307 q 60 514 60 444 q 81 658 60 590 q 151 780 101 726 q 285 865 201 833 q 492 897 368 896 l 492 1006 l 679 1006 l 679 897 q 883 864 800 896 q 1017 778 967 832 q 1089 657 1067 725 q 1111 514 1111 589 q 1090 374 1111 443 q 1019 250 1068 306 q 887 160 971 194 q 679 125 803 126 l 679 -14 l 492 -14 m 492 286 l 492 735 q 345 703 397 733 q 273 626 293 674 q 253 515 253 578 q 274 397 253 447 q 348 317 296 346 q 492 286 400 289 m 678 286 q 822 318 769 289 q 897 398 875 347 q 918 515 918 449 q 897 625 918 576 q 825 703 876 674 q 678 735 774 733 l 678 286 z "},"Χ":{"ha":828,"x_min":0,"x_max":828,"o":"m 828 0 l 600 0 l 410 360 l 215 0 l 0 0 l 289 508 l 21 992 l 239 992 l 415 651 l 586 992 l 804 992 l 533 501 l 828 0 z "},"Ψ":{"ha":1126,"x_min":106,"x_max":1021,"o":"m 469 0 l 469 249 q 310 276 379 250 q 197 351 242 303 q 128 466 151 399 q 106 619 106 533 l 106 992 l 300 992 l 300 610 q 319 499 300 542 q 377 437 339 457 q 469 417 415 417 l 469 992 l 657 992 l 657 417 q 748 435 710 417 q 806 497 786 454 q 826 607 826 539 l 826 992 l 1021 992 l 1021 625 q 979 425 1021 508 q 856 296 938 342 q 657 249 775 250 l 657 0 l 469 0 z "},"Ω":{"ha":944,"x_min":38,"x_max":907,"o":"m 38 0 l 38 172 l 229 172 q 126 269 167 211 q 65 401 85 328 q 44 558 44 474 q 96 791 44 690 q 244 949 147 892 q 472 1007 340 1007 q 700 949 604 1007 q 848 790 796 892 q 900 557 900 689 q 880 400 900 472 q 818 270 860 328 q 713 172 776 213 l 907 172 l 907 0 l 535 0 l 535 185 q 633 277 599 222 q 680 400 667 332 q 693 540 693 468 q 667 700 693 635 q 592 801 640 765 q 472 836 543 836 q 353 801 403 836 q 277 701 303 767 q 251 539 251 635 q 265 399 251 467 q 313 277 279 332 q 407 185 347 222 l 407 0 l 38 0 z "},"Ϊ":{"ha":508,"x_min":29,"x_max":478,"o":"m 465 0 l 43 0 l 43 114 l 153 163 l 153 829 l 43 878 l 43 992 l 465 992 l 465 878 l 356 829 l 356 163 l 465 114 l 465 0 m 31 1183 q 56 1254 31 1232 q 119 1276 82 1276 q 185 1253 158 1276 q 213 1185 213 1231 q 185 1116 213 1139 q 119 1093 158 1093 q 56 1116 82 1093 q 31 1183 31 1139 m 296 1183 q 322 1254 296 1232 q 386 1276 347 1276 q 453 1253 426 1276 q 479 1185 479 1231 q 453 1116 479 1139 q 388 1093 426 1093 q 322 1116 349 1093 q 296 1183 296 1139 z "},"Ϋ":{"ha":790,"x_min":0,"x_max":790,"o":"m 396 585 l 575 992 l 790 992 l 496 385 l 496 0 l 294 0 l 294 378 l 0 992 l 217 992 l 396 585 m 171 1183 q 197 1254 171 1232 q 260 1276 222 1276 q 326 1253 299 1276 q 353 1185 353 1231 q 326 1116 353 1139 q 260 1093 299 1093 q 197 1116 222 1093 q 171 1183 171 1139 m 436 1183 q 462 1254 436 1232 q 526 1276 488 1276 q 593 1253 567 1276 q 619 1185 619 1231 q 593 1116 619 1139 q 528 1093 567 1093 q 463 1116 489 1093 q 436 1183 436 1139 z "},"ά":{"ha":844,"x_min":58,"x_max":807,"o":"m 318 -14 q 178 33 238 -14 q 89 167 119 79 q 58 376 58 256 q 130 671 58 569 q 326 772 201 772 q 413 758 376 772 q 475 719 449 744 q 522 661 501 694 l 529 661 l 546 758 l 714 758 l 714 236 q 730 172 714 192 q 768 153 746 153 q 790 156 778 153 q 807 160 801 158 l 807 4 q 785 -4 801 0 q 751 -11 769 -8 q 719 -14 733 -14 q 607 12 650 -14 q 542 100 564 38 l 529 100 q 478 42 508 68 q 408 1 447 15 q 318 -14 368 -14 m 389 147 q 467 169 438 147 q 512 241 497 192 q 526 365 526 290 l 526 378 q 496 551 526 493 q 386 608 465 608 q 290 549 322 608 q 258 375 258 489 q 290 204 258 261 q 389 147 322 147 m 319 842 l 319 860 l 385 1078 l 607 1078 l 607 1064 l 454 842 l 319 842 z "},"έ":{"ha":636,"x_min":44,"x_max":597,"o":"m 351 -14 q 121 47 197 -14 q 44 210 44 108 q 65 303 44 267 q 122 362 86 340 q 204 392 158 383 l 204 399 q 108 460 139 417 q 78 564 78 503 q 109 674 78 626 q 203 747 140 721 q 357 772 265 772 q 481 760 418 772 q 597 715 544 747 l 544 575 q 458 613 499 601 q 376 624 417 624 q 291 601 318 624 q 264 540 264 578 q 292 481 264 501 q 376 461 319 461 l 471 461 l 471 314 l 376 314 q 300 305 329 314 q 258 277 271 296 q 244 229 244 258 q 281 162 244 183 q 381 140 317 140 q 485 155 440 140 q 582 203 531 169 l 582 43 q 478 -1 533 13 q 351 -14 424 -14 m 288 842 l 288 860 l 353 1078 l 575 1078 l 575 1064 l 422 842 l 288 842 z "},"ή":{"ha":819,"x_min":97,"x_max":725,"o":"m 528 -333 l 528 446 q 506 567 528 526 q 426 608 483 608 q 347 581 376 608 q 306 499 318 554 q 294 360 294 444 l 294 0 l 97 0 l 97 758 l 250 758 l 275 661 l 286 661 q 338 724 308 700 q 406 760 368 749 q 485 772 443 772 q 615 742 561 772 q 697 652 668 713 q 725 497 725 592 l 725 -333 l 528 -333 m 307 842 l 307 860 l 372 1078 l 594 1078 l 594 1064 l 442 842 l 307 842 z "},"ί":{"ha":500,"x_min":97,"x_max":463,"o":"m 340 -14 q 201 17 256 -14 q 122 106 147 49 q 97 238 97 163 l 97 758 l 294 758 l 294 261 q 319 174 294 199 q 381 150 343 150 q 422 153 403 150 q 463 163 442 157 l 463 3 q 406 -10 439 -6 q 340 -14 372 -14 m 139 842 l 139 860 l 204 1078 l 426 1078 l 426 1064 l 274 842 l 139 842 z "},"ΰ":{"ha":811,"x_min":94,"x_max":803,"o":"m 394 -12 q 249 10 307 -12 q 158 76 192 33 q 109 178 124 119 q 94 310 94 238 l 94 758 l 292 758 l 292 308 q 301 218 292 253 q 335 167 311 183 q 400 151 360 151 q 478 177 449 151 q 522 260 508 203 q 535 410 535 317 q 523 582 535 499 q 489 758 511 665 l 688 758 q 713 638 703 694 q 727 526 722 582 q 732 407 732 471 q 648 90 732 193 q 394 -12 564 -12 m 342 842 l 342 860 l 393 1078 l 615 1078 l 615 1064 l 476 842 l 342 842 m 211 860 q 148 883 174 860 q 122 950 122 906 q 148 1021 122 999 q 211 1043 174 1043 q 277 1020 250 1043 q 304 951 304 997 q 277 883 304 906 q 211 860 250 860 m 711 860 q 646 883 672 860 q 619 950 619 906 q 646 1021 619 999 q 711 1043 672 1043 q 776 1020 750 1043 q 803 951 803 997 q 776 883 803 906 q 711 860 750 860 z "},"α":{"ha":844,"x_min":58,"x_max":807,"o":"m 318 -14 q 178 33 238 -14 q 89 167 119 79 q 58 376 58 256 q 130 671 58 569 q 326 772 201 772 q 413 758 376 772 q 475 719 449 744 q 522 661 501 694 l 529 661 l 546 758 l 714 758 l 714 236 q 730 172 714 192 q 768 153 746 153 q 790 156 778 153 q 807 160 801 158 l 807 4 q 785 -4 801 0 q 751 -11 769 -8 q 719 -14 733 -14 q 607 12 650 -14 q 542 100 564 38 l 529 100 q 478 42 508 68 q 408 1 447 15 q 318 -14 368 -14 m 389 147 q 467 169 438 147 q 512 241 497 192 q 526 365 526 290 l 526 378 q 496 551 526 493 q 386 608 465 608 q 290 549 322 608 q 258 375 258 489 q 290 204 258 261 q 389 147 322 147 z "},"β":{"ha":811,"x_min":97,"x_max":754,"o":"m 97 -333 l 97 742 q 134 920 97 849 q 241 1027 171 992 q 408 1063 311 1063 q 567 1032 501 1063 q 668 942 633 1001 q 703 797 703 883 q 682 681 703 729 q 623 603 661 632 q 533 563 585 574 l 533 558 q 652 517 603 549 q 728 431 701 486 q 754 293 754 376 q 715 128 754 197 q 609 23 676 60 q 457 -14 542 -14 q 390 -9 417 -14 q 341 6 363 -4 q 294 29 319 15 l 294 -333 l 97 -333 m 415 149 q 516 190 481 149 q 551 311 551 232 q 531 401 551 365 q 479 455 511 438 q 410 472 447 472 l 354 472 l 354 625 l 399 625 q 457 643 433 625 q 493 694 481 661 q 506 771 506 728 q 477 871 506 838 q 406 904 449 904 q 344 887 369 904 q 307 833 319 869 q 294 736 294 796 l 294 194 q 353 161 324 174 q 415 149 382 149 z "},"γ":{"ha":726,"x_min":1,"x_max":683,"o":"m 238 -292 l 238 6 l 1 758 l 206 758 l 322 331 q 336 282 329 308 q 349 231 343 256 q 360 188 356 206 l 365 188 q 433 348 407 263 q 472 535 460 433 q 485 758 485 636 l 683 758 q 660 486 683 613 q 583 245 638 360 q 435 15 528 131 l 435 -292 l 238 -292 z "},"δ":{"ha":778,"x_min":44,"x_max":721,"o":"m 378 -14 q 201 25 276 -14 q 85 135 126 64 q 44 306 44 207 q 74 458 44 394 q 155 563 104 521 q 268 631 206 606 q 202 686 231 656 q 158 756 174 717 q 143 843 143 794 q 178 961 143 913 q 276 1036 214 1010 q 419 1063 339 1063 q 522 1053 474 1063 q 613 1023 571 1043 q 689 971 654 1003 l 617 831 q 524 892 571 872 q 431 913 476 913 q 376 901 397 913 q 344 874 354 890 q 335 838 335 857 q 350 792 335 813 q 395 751 365 772 q 471 700 425 729 q 615 593 560 649 q 695 472 669 538 q 721 324 721 407 q 679 140 721 215 q 560 25 638 64 q 378 -14 483 -14 m 382 147 q 458 170 426 147 q 505 233 489 193 q 521 328 521 274 q 506 417 521 378 q 461 489 490 457 q 390 546 432 521 q 329 512 357 533 q 283 463 301 490 q 253 400 264 435 q 243 324 243 365 q 260 230 243 269 q 308 169 276 190 q 382 147 340 147 z "},"ε":{"ha":636,"x_min":44,"x_max":597,"o":"m 351 -14 q 121 47 197 -14 q 44 210 44 108 q 65 303 44 267 q 122 362 86 340 q 204 392 158 383 l 204 399 q 108 460 139 417 q 78 564 78 503 q 109 674 78 626 q 203 747 140 721 q 357 772 265 772 q 481 760 418 772 q 597 715 544 747 l 544 575 q 458 613 499 601 q 376 624 417 624 q 291 601 318 624 q 264 540 264 578 q 292 481 264 501 q 376 461 319 461 l 471 461 l 471 314 l 376 314 q 300 305 329 314 q 258 277 271 296 q 244 229 244 258 q 281 162 244 183 q 381 140 317 140 q 485 155 440 140 q 582 203 531 169 l 582 43 q 478 -1 533 13 q 351 -14 424 -14 z "},"ζ":{"ha":617,"x_min":58,"x_max":621,"o":"m 360 -281 q 406 -183 389 -231 q 424 -104 424 -136 q 415 -60 424 -76 q 381 -33 406 -44 q 307 -10 356 -21 q 171 48 226 13 q 87 140 115 83 q 58 278 58 197 q 92 451 58 369 q 183 611 126 532 q 304 775 239 690 l 407 914 q 365 907 390 910 q 315 903 340 904 q 268 901 289 901 l 86 901 l 86 1056 l 621 1056 l 621 928 l 446 690 q 340 537 382 603 q 278 417 299 471 q 258 313 258 364 q 272 244 258 275 q 321 191 286 214 q 419 151 356 168 q 534 109 492 133 q 595 47 576 85 q 614 -49 614 10 q 606 -127 614 -89 q 582 -203 597 -165 q 544 -281 567 -242 l 360 -281 z "},"η":{"ha":819,"x_min":97,"x_max":725,"o":"m 528 -333 l 528 446 q 506 567 528 526 q 426 608 483 608 q 347 581 376 608 q 306 499 318 554 q 294 360 294 444 l 294 0 l 97 0 l 97 758 l 250 758 l 275 661 l 286 661 q 338 724 308 700 q 406 760 368 749 q 485 772 443 772 q 615 742 561 772 q 697 652 668 713 q 725 497 725 592 l 725 -333 l 528 -333 z "},"θ":{"ha":785,"x_min":58,"x_max":726,"o":"m 392 -14 q 205 48 279 -14 q 94 229 131 110 q 58 526 58 349 q 93 821 58 701 q 201 1001 128 940 q 392 1063 274 1063 q 577 1002 503 1063 q 689 822 651 942 q 726 526 726 703 q 692 230 726 350 q 583 48 657 110 q 392 -14 510 -14 m 390 138 q 467 167 438 138 q 511 266 496 197 q 528 450 526 335 l 254 450 q 271 268 257 338 q 315 168 285 199 q 390 138 344 138 m 256 603 l 529 603 q 510 784 526 717 q 466 881 494 851 q 393 911 438 911 q 318 881 347 911 q 274 784 289 851 q 256 603 260 717 z "},"ι":{"ha":500,"x_min":97,"x_max":463,"o":"m 340 -14 q 201 17 256 -14 q 122 106 147 49 q 97 238 97 163 l 97 758 l 294 758 l 294 261 q 319 174 294 199 q 381 150 343 150 q 422 153 403 150 q 463 163 442 157 l 463 3 q 406 -10 439 -6 q 340 -14 372 -14 z "},"κ":{"ha":786,"x_min":97,"x_max":788,"o":"m 772 758 l 511 425 l 788 0 l 565 0 l 382 299 l 294 233 l 294 0 l 97 0 l 97 758 l 294 758 l 294 574 q 293 485 293 529 q 289 400 293 442 l 293 400 q 332 456 313 429 q 372 508 351 483 l 561 758 l 772 758 z "},"λ":{"ha":743,"x_min":1,"x_max":742,"o":"m 638 -14 q 544 6 581 -14 q 485 66 507 26 q 444 163 463 106 l 393 340 q 378 385 386 363 q 364 432 371 408 q 352 480 357 456 q 346 528 347 504 l 340 528 q 328 441 338 481 q 306 351 319 401 l 214 0 l 1 0 l 253 742 l 235 799 q 181 880 214 863 q 99 897 147 897 q 62 894 79 897 q 31 889 44 892 l 31 1051 q 59 1057 43 1054 q 94 1061 75 1060 q 136 1063 114 1063 q 260 1044 208 1064 q 350 979 313 1025 q 414 850 388 933 l 606 272 q 635 199 622 225 q 663 165 649 174 q 694 156 676 156 q 720 158 710 156 q 742 163 731 160 l 742 3 q 713 -6 731 -1 q 674 -12 694 -10 q 638 -14 654 -14 z "},"μ":{"ha":865,"x_min":97,"x_max":828,"o":"m 97 -333 l 97 758 l 294 758 l 294 315 q 319 192 294 233 q 401 150 344 150 q 508 213 479 150 q 538 399 538 275 l 538 758 l 735 758 l 735 236 q 751 172 735 192 q 789 153 767 153 q 810 156 799 153 q 828 160 822 158 l 828 4 q 806 -4 822 0 q 772 -11 790 -8 q 740 -14 754 -14 q 626 13 669 -14 q 561 101 583 39 l 553 101 q 514 40 538 65 q 463 0 490 14 q 404 -14 435 -14 q 339 2 367 -14 q 292 47 311 18 l 288 47 q 292 3 290 31 q 294 -56 293 -25 q 294 -111 294 -86 l 294 -333 l 97 -333 z "},"ν":{"ha":726,"x_min":1,"x_max":683,"o":"m 240 0 l 1 758 l 206 758 l 322 331 q 336 282 329 308 q 349 231 343 256 q 360 188 356 206 l 365 188 q 433 348 407 263 q 472 535 460 433 q 485 758 485 636 l 683 758 q 659 481 683 610 q 577 234 635 351 q 421 0 519 117 l 240 0 z "},"ξ":{"ha":672,"x_min":58,"x_max":633,"o":"m 374 -281 q 420 -185 403 -231 q 438 -104 438 -139 q 428 -59 438 -75 q 392 -32 418 -43 q 317 -8 365 -21 q 182 45 240 10 q 91 139 124 81 q 58 285 58 197 q 78 403 58 351 q 141 492 99 456 q 250 549 183 528 l 250 556 q 167 591 201 568 q 115 649 132 614 q 97 729 97 683 q 117 813 97 778 q 174 872 136 847 q 269 910 213 897 q 212 906 242 908 q 158 903 182 904 q 119 901 133 901 l 96 901 l 96 1056 l 633 1056 l 633 908 l 567 908 q 453 901 504 908 q 367 878 403 894 q 311 833 331 863 q 292 757 292 803 q 309 688 292 717 q 367 642 326 658 q 476 625 408 625 l 599 625 l 599 472 l 474 472 q 352 455 400 472 q 281 402 304 438 q 258 313 258 367 q 278 226 258 257 q 336 180 297 196 q 431 150 375 164 q 551 107 508 133 q 611 44 594 81 q 628 -42 628 7 q 620 -122 628 -82 q 597 -200 613 -161 q 558 -281 582 -239 l 374 -281 z "},"ο":{"ha":793,"x_min":58,"x_max":735,"o":"m 735 381 q 713 219 735 292 q 648 94 690 147 q 542 14 606 42 q 396 -14 478 -14 q 256 14 318 -14 q 149 94 193 42 q 82 219 106 146 q 58 382 58 292 q 97 590 58 503 q 213 725 136 678 q 399 772 289 772 q 574 727 499 772 q 692 594 650 682 q 735 381 735 507 m 258 379 q 273 252 258 304 q 318 174 288 200 q 397 147 349 147 q 476 174 446 147 q 519 252 506 200 q 533 381 533 304 q 519 509 533 458 q 475 585 506 560 q 396 611 444 611 q 291 554 324 611 q 258 379 258 497 z "},"π":{"ha":944,"x_min":26,"x_max":907,"o":"m 760 -14 q 617 41 668 -14 q 567 211 567 96 l 567 606 l 365 606 l 365 0 l 168 0 l 168 606 l 26 606 l 26 758 l 907 758 l 907 606 l 765 606 l 765 218 q 781 165 765 182 q 821 147 796 147 q 863 153 842 147 q 901 169 883 160 l 901 24 q 839 -3 878 8 q 760 -14 800 -14 z "},"ρ":{"ha":790,"x_min":76,"x_max":733,"o":"m 76 -333 l 76 381 q 113 591 76 503 q 222 726 150 679 q 401 772 294 772 q 576 729 501 772 q 692 598 650 686 q 733 372 733 510 q 693 166 733 253 q 585 33 653 79 q 433 -14 517 -14 q 347 1 383 -14 q 276 39 310 17 l 265 39 q 272 -51 268 0 q 275 -143 275 -101 l 275 -333 l 76 -333 m 403 147 q 472 171 443 147 q 517 244 501 194 q 532 372 532 293 q 497 557 532 503 q 396 611 463 611 q 304 561 333 611 q 275 401 275 511 l 275 200 q 334 161 300 175 q 403 147 368 147 z "},"σ":{"ha":838,"x_min":58,"x_max":788,"o":"m 390 -14 q 212 35 286 -14 q 98 172 138 85 q 58 369 58 258 q 103 594 58 508 q 232 720 149 681 q 429 760 315 760 l 788 760 l 788 606 l 628 606 q 684 533 663 572 q 715 450 706 494 q 725 354 725 406 q 705 218 725 283 q 643 100 685 153 q 538 17 601 47 q 390 -14 475 -14 m 392 147 q 468 174 439 147 q 511 251 497 201 q 525 364 525 300 q 518 462 525 417 q 497 544 511 507 q 458 606 483 581 l 428 606 q 335 583 374 606 q 278 507 297 560 q 258 365 258 454 q 272 247 258 296 q 315 173 286 199 q 392 147 343 147 z "},"τ":{"ha":678,"x_min":26,"x_max":626,"o":"m 424 -14 q 304 10 356 -14 q 224 88 253 33 q 196 236 196 143 l 196 606 l 26 606 l 26 758 l 626 758 l 626 606 l 393 606 l 393 239 q 403 188 393 208 q 431 158 413 168 q 474 149 449 149 q 531 155 503 149 q 589 171 560 161 l 589 19 q 517 -4 560 6 q 424 -14 474 -14 z "},"υ":{"ha":811,"x_min":94,"x_max":732,"o":"m 394 -12 q 249 10 307 -12 q 158 76 192 33 q 109 178 124 119 q 94 310 94 238 l 94 758 l 292 758 l 292 308 q 301 218 292 253 q 335 167 311 183 q 400 151 360 151 q 478 177 449 151 q 522 260 508 203 q 535 410 535 317 q 523 582 535 499 q 489 758 511 665 l 688 758 q 713 638 703 694 q 727 526 722 582 q 732 407 732 471 q 648 90 732 193 q 394 -12 564 -12 z "},"φ":{"ha":1043,"x_min":58,"x_max":985,"o":"m 433 -333 l 433 -6 q 230 56 314 6 q 102 190 146 107 q 58 379 58 272 q 99 572 58 489 q 222 705 139 656 q 432 763 306 754 l 432 1056 l 613 1056 l 613 763 q 817 701 735 753 q 942 568 900 650 q 985 379 985 486 q 943 189 985 272 q 819 56 901 106 q 613 -6 738 6 l 613 -333 l 433 -333 m 432 143 l 432 615 q 341 578 381 610 q 281 497 301 547 q 260 379 260 446 q 280 263 260 314 q 338 181 300 211 q 432 143 376 150 m 613 143 q 706 181 668 150 q 764 263 744 213 q 783 379 783 314 q 738 542 783 479 q 613 614 692 604 l 613 143 z "},"χ":{"ha":824,"x_min":14,"x_max":829,"o":"m 701 -333 q 606 -314 642 -333 q 544 -253 569 -294 q 486 -149 518 -212 l 181 511 q 136 583 156 563 q 86 604 117 604 q 55 601 72 604 q 18 593 38 599 l 18 751 q 66 765 40 760 q 128 769 92 769 q 219 751 182 769 q 283 695 256 732 q 338 600 311 658 l 660 -87 q 688 -134 675 -117 q 717 -159 700 -151 q 758 -167 733 -167 q 787 -165 772 -167 q 819 -160 801 -164 l 819 -317 q 785 -326 803 -322 q 748 -331 768 -329 q 701 -333 728 -333 m 14 -335 l 354 254 l 433 72 l 213 -335 l 14 -335 m 492 129 l 414 326 l 629 758 l 829 758 l 492 129 z "},"ψ":{"ha":1064,"x_min":94,"x_max":985,"o":"m 440 -333 l 440 -12 q 254 27 332 -8 q 135 140 176 63 q 94 347 94 217 l 94 758 l 279 758 l 279 347 q 293 233 279 275 q 342 171 307 190 q 440 146 378 151 l 440 1056 l 626 1056 l 626 147 q 728 179 690 154 q 781 256 765 204 q 797 393 797 308 q 783 573 797 483 q 746 758 769 663 l 932 758 q 972 569 960 657 q 985 390 985 481 q 940 168 985 256 q 816 38 896 81 q 626 -12 736 -6 l 626 -333 l 440 -333 z "},"ω":{"ha":1110,"x_min":72,"x_max":1038,"o":"m 346 -14 q 193 34 254 -14 q 102 168 132 82 q 72 368 72 254 q 108 604 72 506 q 193 758 143 703 l 372 758 q 312 658 338 717 q 272 529 286 600 q 258 375 258 458 q 284 209 258 269 q 368 149 310 149 q 424 168 404 149 q 453 226 444 188 q 463 324 463 264 l 463 517 l 647 517 l 647 324 q 656 226 647 264 q 686 169 665 188 q 743 149 707 150 q 806 176 782 149 q 840 253 829 203 q 851 372 851 304 q 839 522 851 451 q 801 653 826 593 q 738 758 776 714 l 918 758 q 981 662 954 719 q 1023 531 1008 604 q 1038 368 1038 458 q 1008 167 1038 254 q 917 33 978 81 q 763 -14 856 -14 q 632 26 682 -14 q 558 147 582 65 l 551 147 q 508 57 536 93 q 440 3 481 21 q 346 -14 400 -14 z "},"ϊ":{"ha":500,"x_min":-26,"x_max":463,"o":"m 340 -14 q 201 17 256 -14 q 122 106 147 49 q 97 238 97 163 l 97 758 l 294 758 l 294 261 q 319 174 294 199 q 381 150 343 150 q 422 153 403 150 q 463 163 442 157 l 463 3 q 406 -10 439 -6 q 340 -14 372 -14 m -26 950 q -1 1021 -26 999 q 63 1043 25 1043 q 128 1020 101 1043 q 156 951 156 997 q 128 883 156 906 q 63 860 101 860 q -1 883 25 860 q -26 950 -26 906 m 239 950 q 265 1021 239 999 q 329 1043 290 1043 q 396 1020 369 1043 q 422 951 422 997 q 396 883 422 906 q 331 860 369 860 q 265 883 292 860 q 239 950 239 906 z "},"ϋ":{"ha":811,"x_min":94,"x_max":732,"o":"m 394 -12 q 249 10 307 -12 q 158 76 192 33 q 109 178 124 119 q 94 310 94 238 l 94 758 l 292 758 l 292 308 q 301 218 292 253 q 335 167 311 183 q 400 151 360 151 q 478 177 449 151 q 522 260 508 203 q 535 410 535 317 q 523 582 535 499 q 489 758 511 665 l 688 758 q 713 638 703 694 q 727 526 722 582 q 732 407 732 471 q 648 90 732 193 q 394 -12 564 -12 m 171 950 q 197 1021 171 999 q 260 1043 222 1043 q 326 1020 299 1043 q 353 951 353 997 q 326 883 353 906 q 260 860 299 860 q 197 883 222 860 q 171 950 171 906 m 436 950 q 462 1021 436 999 q 526 1043 488 1043 q 593 1020 567 1043 q 619 951 619 997 q 593 883 619 906 q 528 860 567 860 q 463 883 489 860 q 436 950 436 906 z "},"ό":{"ha":793,"x_min":58,"x_max":735,"o":"m 735 381 q 713 219 735 292 q 648 94 690 147 q 542 14 606 42 q 396 -14 478 -14 q 256 14 318 -14 q 149 94 193 42 q 82 219 106 146 q 58 382 58 292 q 97 590 58 503 q 213 725 136 678 q 399 772 289 772 q 574 727 499 772 q 692 594 650 682 q 735 381 735 507 m 258 379 q 273 252 258 304 q 318 174 288 200 q 397 147 349 147 q 476 174 446 147 q 519 252 506 200 q 533 381 533 304 q 519 509 533 458 q 475 585 506 560 q 396 611 444 611 q 291 554 324 611 q 258 379 258 497 m 338 842 l 338 860 l 403 1078 l 625 1078 l 625 1064 l 472 842 l 338 842 z "},"ύ":{"ha":811,"x_min":94,"x_max":732,"o":"m 394 -12 q 249 10 307 -12 q 158 76 192 33 q 109 178 124 119 q 94 310 94 238 l 94 758 l 292 758 l 292 308 q 301 218 292 253 q 335 167 311 183 q 400 151 360 151 q 478 177 449 151 q 522 260 508 203 q 535 410 535 317 q 523 582 535 499 q 489 758 511 665 l 688 758 q 713 638 703 694 q 727 526 722 582 q 732 407 732 471 q 648 90 732 193 q 394 -12 564 -12 m 336 842 l 336 860 l 401 1078 l 624 1078 l 624 1064 l 471 842 l 336 842 z "},"ώ":{"ha":1110,"x_min":72,"x_max":1038,"o":"m 346 -14 q 193 34 254 -14 q 102 168 132 82 q 72 368 72 254 q 108 604 72 506 q 193 758 143 703 l 372 758 q 312 658 338 717 q 272 529 286 600 q 258 375 258 458 q 284 209 258 269 q 368 149 310 149 q 424 168 404 149 q 453 226 444 188 q 463 324 463 264 l 463 517 l 647 517 l 647 324 q 656 226 647 264 q 686 169 665 188 q 743 149 707 150 q 806 176 782 149 q 840 253 829 203 q 851 372 851 304 q 839 522 851 451 q 801 653 826 593 q 738 758 776 714 l 918 758 q 981 662 954 719 q 1023 531 1008 604 q 1038 368 1038 458 q 1008 167 1038 254 q 917 33 978 81 q 763 -14 856 -14 q 632 26 682 -14 q 558 147 582 65 l 551 147 q 508 57 536 93 q 440 3 481 21 q 346 -14 400 -14 m 496 842 l 496 860 l 561 1078 l 783 1078 l 783 1064 l 631 842 l 496 842 z "},"Ё":{"ha":710,"x_min":111,"x_max":636,"o":"m 111 0 l 111 992 l 636 992 l 636 824 l 314 824 l 314 600 l 614 600 l 614 431 l 314 431 l 314 171 l 636 171 l 636 0 l 111 0 m 254 1090 q 190 1116 213 1090 q 168 1186 168 1142 q 191 1261 168 1236 q 254 1286 214 1286 q 319 1260 296 1286 q 342 1188 342 1235 q 319 1115 342 1140 q 254 1090 296 1090 m 503 1090 q 439 1115 461 1090 q 417 1188 417 1140 q 440 1260 417 1235 q 504 1286 463 1286 q 567 1261 544 1286 q 590 1186 590 1236 q 567 1115 590 1140 q 503 1090 544 1090 z "},"Ђ":{"ha":974,"x_min":25,"x_max":919,"o":"m 639 -18 q 577 -14 606 -18 q 525 -3 549 -10 l 525 158 q 563 151 547 153 q 593 150 579 150 q 685 185 654 150 q 715 293 715 221 l 715 293 q 678 403 715 367 q 568 440 642 440 q 474 426 522 440 q 386 389 425 413 l 438 490 l 438 -1 l 235 -1 l 235 819 l 25 819 l 25 990 l 711 990 l 711 819 l 438 819 l 438 494 l 379 561 q 490 597 433 585 q 607 610 546 610 q 839 527 758 610 q 919 293 919 444 l 919 293 q 886 126 919 196 q 790 19 853 56 q 639 -18 728 -18 z "},"Ѓ":{"ha":703,"x_min":111,"x_max":657,"o":"m 111 0 l 111 992 l 657 992 l 657 821 l 314 821 l 314 0 l 111 0 m 292 1074 l 292 1092 l 431 1296 l 653 1296 l 653 1282 l 425 1074 l 292 1074 z "},"Є":{"ha":824,"x_min":71,"x_max":774,"o":"m 497 -14 q 265 44 360 -14 q 120 215 169 101 q 71 494 71 328 q 124 764 71 649 q 275 942 176 879 q 514 1006 374 1006 q 647 990 581 1006 q 774 944 713 974 l 706 785 q 609 822 656 810 q 518 835 563 835 q 388 798 442 835 q 308 689 335 761 q 278 510 281 617 l 193 593 l 656 593 l 656 422 l 189 422 l 278 506 q 303 313 276 392 q 387 196 329 235 q 532 157 444 157 q 633 169 578 157 q 744 200 689 181 l 744 35 q 630 -1 694 13 q 497 -14 565 -14 z "},"Ѕ":{"ha":704,"x_min":53,"x_max":654,"o":"m 311 -14 q 222 -8 267 -14 q 135 10 176 -1 q 53 40 93 22 l 53 232 q 186 176 124 194 q 306 158 249 158 q 390 172 358 158 q 438 210 422 186 q 453 267 453 235 q 433 328 453 303 q 375 378 413 354 q 282 431 338 401 q 206 475 244 450 q 135 533 167 500 q 83 613 103 567 q 63 724 63 660 q 101 874 63 811 q 210 972 139 938 q 379 1006 282 1006 q 517 988 451 1006 q 651 939 583 971 l 588 776 q 477 819 526 806 q 381 833 428 833 q 317 822 343 833 q 276 787 290 810 q 263 732 263 764 q 281 674 263 699 q 336 626 299 649 q 432 572 374 603 q 553 497 504 536 q 628 406 601 457 q 654 281 654 354 q 613 126 654 193 q 497 23 572 60 q 311 -14 421 -14 z "},"І":{"ha":426,"x_min":111,"x_max":314,"o":"m 111 0 l 111 992 l 314 992 l 314 0 l 111 0 z "},"Ї":{"ha":432,"x_min":19,"x_max":413,"o":"m 114 0 l 114 992 l 317 992 l 317 0 l 114 0 m 106 1090 q 42 1115 65 1090 q 19 1186 19 1140 q 42 1260 19 1235 q 107 1286 65 1286 q 172 1261 149 1286 q 194 1188 194 1236 q 172 1115 194 1139 q 106 1090 149 1090 m 325 1090 q 260 1115 283 1090 q 238 1186 238 1139 q 261 1260 238 1235 q 325 1286 285 1286 q 390 1260 367 1286 q 413 1188 413 1235 q 390 1115 413 1140 q 325 1090 367 1090 z "},"Ј":{"ha":425,"x_min":-93,"x_max":314,"o":"m 22 -293 q -42 -288 -12 -293 q -93 -278 -71 -283 l -93 -107 q -51 -117 -74 -112 q -3 -121 -29 -121 q 58 -106 32 -121 q 99 -53 85 -92 q 113 56 113 -14 l 113 992 l 314 992 l 314 57 q 278 -148 314 -71 q 178 -259 243 -225 q 22 -293 113 -293 z "},"Љ":{"ha":1311,"x_min":4,"x_max":1256,"o":"m 117 -15 q 57 -11 88 -15 q 4 0 26 -7 l 4 171 q 36 164 21 167 q 68 161 51 161 q 122 176 100 161 q 156 223 143 190 q 172 310 168 256 q 181 441 176 371 q 191 594 186 511 q 201 774 196 676 q 210 992 206 872 l 810 992 l 810 646 l 900 646 q 1166 565 1076 646 q 1256 326 1256 485 q 1165 83 1256 167 q 899 0 1074 0 l 608 0 l 608 821 l 390 821 q 381 668 385 740 q 374 531 378 596 q 367 404 371 465 q 357 282 363 343 q 321 115 349 181 q 243 17 293 49 q 117 -15 193 -15 m 810 171 l 886 171 q 1009 210 968 171 q 1050 328 1050 249 q 1010 440 1050 404 q 885 476 969 476 l 810 476 l 810 171 z "},"Њ":{"ha":1328,"x_min":111,"x_max":1274,"o":"m 111 0 l 111 992 l 314 992 l 314 615 l 624 615 l 624 992 l 824 992 l 824 614 l 915 614 q 1181 535 1089 614 q 1274 307 1274 457 q 1181 79 1274 158 q 915 0 1089 0 l 624 0 l 624 444 l 314 444 l 314 0 l 111 0 m 824 171 l 901 171 q 1025 206 983 171 q 1067 311 1067 242 q 1025 412 1067 379 q 901 444 983 444 l 824 444 l 824 171 z "},"Ћ":{"ha":989,"x_min":25,"x_max":910,"o":"m 235 0 l 235 821 l 25 821 l 25 992 l 707 992 l 707 821 l 438 821 l 438 496 l 376 558 q 494 594 435 582 q 614 607 553 607 q 833 533 757 607 q 910 308 910 460 l 908 0 l 706 0 l 707 301 q 674 404 707 371 q 569 438 640 438 q 475 424 522 438 q 382 389 428 410 l 438 488 l 438 0 l 235 0 z "},"Ќ":{"ha":879,"x_min":111,"x_max":876,"o":"m 646 0 l 351 500 l 350 524 l 633 992 l 847 992 l 543 500 l 547 544 l 876 0 l 646 0 m 111 0 l 111 992 l 314 992 l 314 0 l 111 0 m 224 429 l 224 600 l 438 600 l 438 429 l 224 429 m 353 1071 l 353 1089 l 492 1293 l 714 1293 l 714 1279 l 486 1071 l 353 1071 z "},"Ў":{"ha":817,"x_min":13,"x_max":817,"o":"m 196 -14 q 135 -10 167 -14 q 76 4 104 -6 l 76 175 q 120 165 97 169 q 167 161 143 161 q 253 181 221 161 q 307 242 286 200 q 346 347 328 283 l 351 186 l 13 992 l 232 992 l 376 600 q 392 556 383 581 q 410 506 401 532 q 424 457 418 481 l 432 457 q 445 504 438 479 q 462 555 453 529 q 478 604 471 581 l 613 992 l 817 992 l 551 301 q 458 115 507 183 q 345 16 408 46 q 196 -14 282 -14 m 429 1067 q 247 1120 313 1067 q 171 1285 182 1174 l 336 1285 q 365 1207 342 1233 q 429 1181 388 1181 q 494 1206 471 1181 q 522 1285 518 1232 l 688 1285 q 611 1120 676 1174 q 429 1067 546 1067 z "},"Џ":{"ha":964,"x_min":111,"x_max":851,"o":"m 383 -201 l 383 0 l 111 0 l 111 992 l 314 992 l 314 171 l 649 171 l 649 992 l 851 992 l 851 0 l 581 0 l 581 -201 l 383 -201 z "},"А":{"ha":875,"x_min":0,"x_max":875,"o":"m 657 0 l 593 238 l 283 238 l 218 0 l 0 0 l 310 994 l 563 994 l 875 0 l 657 0 m 485 651 q 469 713 478 679 q 452 781 461 747 q 438 843 443 815 q 423 780 432 817 q 406 708 414 743 q 392 653 397 674 l 326 410 l 550 410 l 485 651 z "}}}
